<svg width="160" height="28" viewBox="0 0 160 28" fill="none" xmlns="http://www.w3.org/2000/svg">
<path d="M19.9601 14.3127C19.7935 14.3127 19.6508 14.2411 19.5318 14.1457C19.4129 14.0264 19.3653 13.8833 19.3653 13.7163V9.8519L15.9633 6.393C15.8443 6.27373 15.7968 6.1306 15.7968 5.96362V0.596362C15.7968 0.429381 15.8681 0.286254 15.9633 0.166981C16.0822 0.0715634 16.2488 0 16.3915 0H19.9601C20.1266 0 20.2693 0.0715634 20.3883 0.166981L22.6959 2.48087C22.8149 2.60014 22.8625 2.74326 22.8625 2.91025C22.8625 3.07723 22.7911 3.22035 22.6959 3.31577C22.577 3.43504 22.4343 3.48275 22.2915 3.48275C22.125 3.48275 21.9822 3.43504 21.8633 3.31577L19.7222 1.16887H16.9863V5.70122L20.3883 9.18397C20.5072 9.30325 20.5548 9.44637 20.5548 9.61335V13.7163C20.5548 13.8833 20.4834 14.0264 20.3883 14.1457C20.2693 14.2411 20.1266 14.3127 19.9601 14.3127Z" fill="#94A0FD"/>
<path d="M0.927766 14.909C0.761234 14.909 0.618492 14.8375 0.49954 14.7421C0.380588 14.6228 0.333008 14.4797 0.333008 14.3127V7.7527C0.333008 7.58572 0.404379 7.4426 0.49954 7.32332L7.63664 0.166981C7.75559 0.0715634 7.92212 0 8.06486 0H12.8229C12.9895 0 13.1322 0.0715634 13.2512 0.166981C13.3701 0.286254 13.4177 0.429381 13.4177 0.596362C13.4177 0.763343 13.3463 0.90647 13.2512 1.02574C13.1322 1.12116 12.9895 1.19272 12.8229 1.19272H8.32656L1.52252 7.99125V14.3127C1.52252 14.4797 1.45115 14.6228 1.35599 14.7421C1.23704 14.8375 1.0943 14.909 0.927766 14.909Z" fill="#94A0FD"/>
<path d="M4.49631 18.4872H0.927766C0.761234 18.4872 0.618492 18.4156 0.49954 18.3202C0.380588 18.201 0.333008 18.0578 0.333008 17.8908C0.333008 17.7239 0.404379 17.5807 0.49954 17.4615C0.594701 17.3422 0.761234 17.2945 0.927766 17.2945H3.90156V11.9272C3.90156 11.7602 3.97293 11.6171 4.06809 11.4978L8.75478 6.79851C8.87373 6.67924 9.01647 6.63153 9.18301 6.63153C9.34954 6.63153 9.49228 6.70309 9.58744 6.79851C9.70639 6.91778 9.75397 7.06091 9.75397 7.20404C9.75397 7.37102 9.70639 7.51415 9.58744 7.63342L5.06728 12.1658V17.8908C5.06728 18.0578 4.99591 18.201 4.90075 18.3202C4.80559 18.4156 4.66285 18.4872 4.49631 18.4872Z" fill="#C2E8FD"/>
<path d="M19.96 27.4327H15.2019C15.0354 27.4327 14.8927 27.3611 14.7737 27.2657C14.6548 27.1464 14.6072 27.0033 14.6072 26.8363C14.6072 26.6693 14.6785 26.5262 14.7737 26.4069C14.8927 26.2877 15.0354 26.2399 15.2019 26.2399H19.7221L26.5023 19.4414V13.12C26.5023 12.953 26.5737 12.8099 26.6689 12.6906C26.7878 12.5713 26.9306 12.5236 27.0971 12.5236C27.2636 12.5236 27.4064 12.5952 27.5253 12.6906C27.6443 12.8099 27.6919 12.953 27.6919 13.12V19.68C27.6919 19.8469 27.6205 19.9901 27.5253 20.1093L20.3882 27.2657C20.2693 27.3611 20.1265 27.4327 19.96 27.4327Z" fill="#94A0FD"/>
<path d="M11.6334 27.4327H8.0649C7.89836 27.4327 7.75562 27.3611 7.63667 27.2657L5.32901 24.9518C5.21006 24.8325 5.16248 24.6894 5.16248 24.5224C5.16248 24.3555 5.23385 24.2123 5.32901 24.1169C5.44796 23.9976 5.5907 23.9499 5.73344 23.9499C5.89998 23.9499 6.04272 23.9976 6.16167 24.1169L8.3028 26.2638H11.0387V21.7076L7.63667 18.3203C7.51772 18.201 7.47014 18.0579 7.47014 17.8909V13.7164C7.47014 13.5494 7.54151 13.4062 7.63667 13.287C7.75562 13.1677 7.89836 13.12 8.0649 13.12C8.23143 13.12 8.37417 13.1916 8.49312 13.287C8.61207 13.4062 8.65965 13.5494 8.65965 13.7164V17.6523L12.0617 21.0635C12.1806 21.1828 12.2282 21.3259 12.2282 21.4929V26.8602C12.2282 27.0272 12.1568 27.1703 12.0617 27.2896C11.9427 27.3611 11.8 27.4327 11.6334 27.4327Z" fill="#94A0FD"/>
<path d="M18.8418 20.8011C18.7229 20.8011 18.6039 20.7773 18.5088 20.7057C18.4136 20.6341 18.3422 20.5387 18.2947 20.4433C18.2471 20.324 18.2471 20.2047 18.2709 20.1093C18.2947 19.9901 18.3422 19.8946 18.4374 19.7992L22.9576 15.2669V9.5418C22.9576 9.37482 23.0289 9.23169 23.1241 9.11242C23.2431 8.99314 23.3858 8.94543 23.5523 8.94543H27.1209C27.2874 8.94543 27.4302 9.017 27.5491 9.11242C27.6681 9.23169 27.7156 9.37482 27.7156 9.5418C27.7156 9.70878 27.6443 9.8519 27.5491 9.97118C27.4302 10.0904 27.2874 10.1382 27.1209 10.1382H24.1471V15.5054C24.1471 15.6724 24.0757 15.8155 23.9806 15.9348L19.2701 20.6341C19.1511 20.7295 19.0084 20.8011 18.8418 20.8011Z" fill="#C2E8FD"/>
<path d="M14.0124 16.1018C13.5366 16.1018 13.0846 15.9586 12.6802 15.6962C12.2757 15.4338 11.9903 15.0522 11.7999 14.6228C11.6096 14.1934 11.562 13.7163 11.6572 13.2392C11.7524 12.786 11.9665 12.3566 12.2995 12.0227C12.6326 11.6887 13.0608 11.4501 13.5128 11.3786C13.9649 11.2832 14.4645 11.3309 14.8927 11.5217C15.3209 11.7125 15.7016 11.9988 15.9633 12.4043C16.2249 12.786 16.3677 13.2631 16.3677 13.7402C16.3677 14.3842 16.106 14.9806 15.6778 15.4338C15.2495 15.8394 14.6548 16.1018 14.0124 16.1018Z" fill="#FCFCFC"/>
<path d="M23.5286 6.56002C23.0527 6.56002 22.6007 6.41689 22.1963 6.15449C21.8157 5.89209 21.5064 5.51042 21.3161 5.08104C21.1257 4.65166 21.0782 4.17457 21.1733 3.69748C21.2685 3.24425 21.4826 2.81487 21.8157 2.4809C22.1725 2.14694 22.6007 1.93225 23.0765 1.83683C23.5286 1.74141 24.0282 1.78912 24.4564 1.97996C24.8846 2.1708 25.2652 2.45705 25.5269 2.86258C25.7886 3.24425 25.9314 3.72134 25.9314 4.19843C25.9314 4.8425 25.6697 5.43886 25.2415 5.89209C24.7657 6.29762 24.1709 6.56002 23.5286 6.56002Z" fill="#FCFCFC"/>
<path d="M4.49633 25.6436C4.02052 25.6436 3.56851 25.5004 3.16407 25.2381C2.78343 24.9757 2.47415 24.594 2.28383 24.1646C2.09351 23.7352 2.04593 23.2581 2.14109 22.781C2.23625 22.3278 2.45036 21.8984 2.78343 21.5645C3.11649 21.2305 3.54472 20.992 3.99673 20.9204C4.44875 20.825 4.94834 20.8727 5.37657 21.0635C5.8048 21.2544 6.18544 21.5406 6.44713 21.9461C6.70883 22.3278 6.85157 22.8049 6.85157 23.282C6.85157 23.9261 6.58988 24.5224 6.16165 24.9756C5.73343 25.3812 5.13867 25.6436 4.49633 25.6436Z" fill="#FCFCFC"/>
<path d="M10.4438 8.34908C9.96803 8.34908 9.51602 8.20595 9.11158 7.94355C8.70714 7.68115 8.42166 7.29948 8.23134 6.8701C8.04102 6.44072 7.99344 5.96363 8.0886 5.48654C8.18376 5.03331 8.39787 4.60393 8.73094 4.26997C9.064 3.936 9.49223 3.69746 9.94424 3.62589C10.3963 3.53048 10.8959 3.57819 11.3241 3.76902C11.7523 3.95986 12.133 4.24611 12.3946 4.65164C12.6563 5.03331 12.7991 5.5104 12.7991 5.98749C12.7991 6.63156 12.5374 7.22792 12.1092 7.68116C11.6809 8.08668 11.0862 8.34908 10.4438 8.34908Z" fill="#41B8FD"/>
<path d="M17.581 23.8545C17.1052 23.8545 16.6532 23.7113 16.2488 23.4489C15.8681 23.1865 15.5589 22.8049 15.3685 22.3755C15.1782 21.9461 15.1306 21.469 15.2258 20.9919C15.321 20.5387 15.5351 20.1093 15.8681 19.7753C16.2012 19.4414 16.6294 19.2028 17.0814 19.1313C17.5335 19.0358 18.0331 19.0836 18.4613 19.2744C18.8895 19.4652 19.2702 19.7515 19.5318 20.157C19.7935 20.5625 19.9363 21.0158 19.9363 21.4929C19.9363 22.1369 19.6746 22.7333 19.2464 23.1865C18.8181 23.5921 18.2234 23.8545 17.581 23.8545Z" fill="#41B8FD"/>
<path d="M39.7059 24.3315V15.5769L40.9668 14.3365L42.1563 15.5769V21.7075L39.7059 24.3315ZM50.4592 14.3365L51.6963 15.5769V21.7075L50.4592 23.0672L49.2221 21.7075V15.5769L50.4592 14.3365ZM42.5846 12.7144H48.6987L50.0547 13.9548L48.6987 15.1953H42.5846L41.3475 13.931L42.5846 12.7144ZM48.6987 22.1846L49.9834 23.4251L48.6987 24.6655H40.2293L42.5846 22.1846H48.6987ZM51.6725 6.22598V12.3566L50.4354 13.6209L49.1983 12.3566V6.22598L50.4354 4.86628L51.6725 6.22598ZM40.943 13.6209L39.7059 12.3566V3.76897L42.1563 6.22598V12.3566L40.943 13.6209ZM40.0628 3.31573H48.7938L49.9596 4.55617L48.7938 5.7966H42.6797L40.0628 3.31573Z" fill="#FCFCFC"/>
<path d="M58.5955 14.3366L59.785 15.6008V23.3297L58.5479 24.6894L57.3108 23.3297V15.6008L58.5955 14.3366ZM59.8088 4.55622V12.3089L58.6193 13.6686L57.3584 12.3089V4.55622L58.5955 3.29193L59.8088 4.55622Z" fill="#FCFCFC"/>
<path d="M70.1814 14.3365L71.3709 15.6008V23.3297L70.1338 24.6894L68.8967 23.3297V15.6008L70.1814 14.3365ZM76.2479 4.46078L74.8919 5.70121H65.5661L64.3052 4.50849L65.5661 3.2442H74.8919L76.2479 4.46078ZM68.9205 6.39299H71.3709V12.5236L70.1814 13.7879L68.9205 12.5236V6.39299Z" fill="#FCFCFC"/>
<path d="M83.3374 21.7075L82.0765 23.0672L80.887 21.7075V15.5769L82.1241 14.3365L83.3612 15.5769V21.7075H83.3374ZM91.0692 22.1846L92.3539 23.4251L91.0692 24.6655H83.7656L82.5761 23.4012L83.7656 22.2085H91.0692V22.1846ZM92.8059 6.22598V12.3566L91.5688 13.6209L90.3317 12.3566V6.22598L91.5926 4.86628L92.8059 6.22598ZM82.0765 13.6209L80.887 12.3566V6.22598L82.1241 4.86628L83.3612 6.22598V12.3566L82.0765 13.6209ZM83.8132 5.77275L82.5285 4.50846L83.8132 3.31573H89.9273L91.1168 4.55617L89.9273 5.7966H83.8132V5.77275Z" fill="#B0B8FD"/>
<path d="M98.3728 14.3365L99.5623 15.6008V23.3296L98.3252 24.6893L97.0881 23.3296V15.6008L98.3728 14.3365ZM99.5623 4.55616V12.3089L98.3728 13.6686L97.1119 12.3089V4.55616L98.349 3.29187L99.5623 4.55616Z" fill="#B0B8FD"/>
<path d="M108.793 14.3365L109.983 15.6008V23.3297L108.746 24.6894L107.508 23.3297V15.6008L108.793 14.3365ZM114.86 4.46078L113.504 5.70121H104.202L102.941 4.50849L104.202 3.2442H113.527L114.86 4.46078ZM107.532 6.39299H109.983V12.5236L108.793 13.7879L107.532 12.5236V6.39299Z" fill="#B0B8FD"/>
<path d="M129.657 4.67544V12.4043L128.396 13.6686L127.207 12.4043V4.67544L128.444 3.31573L129.657 4.67544ZM120.141 12.4043V4.67544L118.904 3.31573L117.667 4.67544V12.4043L118.904 13.6686L120.141 12.4043ZM127.159 15.6008V21.7075L128.396 23.0672L129.633 21.7075V15.6008L128.396 14.3365L127.159 15.6008ZM120.546 15.1953H126.66L128.016 14.0025L126.66 12.7383H120.546L119.308 13.9787L120.546 15.1953ZM119.546 22.1846L118.357 23.4251L119.546 24.6655H126.66L127.944 23.4728L126.66 22.2085H119.546V22.1846Z" fill="#B0B8FD"/>
<path d="M135.533 12.7144H141.648L143.004 13.9787L141.648 15.1714H135.533L134.273 13.931L135.533 12.7144Z" fill="#B0B8FD"/>
<path d="M148.904 5.7012L147.643 4.46077L148.904 3.22034H158.182L159.538 4.46077L158.182 5.7012H148.904ZM148.904 22.2085L147.643 23.4489L148.904 24.6894H158.182L159.538 23.4489L158.182 22.2085H148.904ZM151.354 14.7421L148.642 19.7992L149.094 21.5883L150.807 20.9681L153.519 15.9109L153.043 14.2173L151.354 14.7421ZM157.682 8.03894L157.206 6.34527L155.517 6.89393L152.805 11.9511L153.257 13.6925L154.97 13.0722L157.682 8.03894Z" fill="#B0B8FD"/>
</svg>
