<svg width="34" height="41" viewBox="0 0 34 41" fill="none" xmlns="http://www.w3.org/2000/svg">
<path d="M20.7934 33.6836V38.1244L16.9445 40.3998L13.2051 38.1244V33.6836L16.9445 35.959L20.7934 33.6836ZM0.199219 18.3244L3.93863 20.5998V28.2152L10.3777 32.0871V36.5279L0.199219 30.4906V18.3244ZM33.6898 18.3244V30.509L23.4018 36.5462V32.1055L29.8409 28.2335V20.6182L33.6898 18.3244ZM23.3836 12.2871L27.2324 14.5625V19.0033L20.7934 22.8752V30.6007L17.0539 32.8762L13.3328 30.6007V22.8569L6.65655 18.985V14.5442L10.5054 12.2688L16.9445 16.1407L23.3836 12.2871ZM6.65655 22.1779L10.396 24.4534V28.8942L6.65655 26.6187V22.1779ZM27.2324 22.1779V26.6187L23.493 28.8942V24.4534L27.2324 22.1779ZM3.93863 8.41519L7.78749 10.6906L3.93863 12.9661V17.4068L0.199219 15.1314V10.6906L3.93863 8.41519ZM29.9504 8.41519L33.7992 10.6906V15.1314L29.9504 17.4068V12.9661L26.2109 10.6906L29.9504 8.41519ZM16.9445 8.41519L20.7934 10.6906L16.9445 12.9661L13.2051 10.6906L16.9445 8.41519ZM16.9445 0.799805L27.2324 6.83706L23.493 9.1125L17.0539 5.24058L10.4872 9.1125L6.74775 6.83706L16.9445 0.799805Z" fill="#F3BA2F"/>
</svg>
