<svg width="24" height="24" viewBox="0 0 24 24" fill="none" xmlns="http://www.w3.org/2000/svg">
<path d="M0 12C0 5.37258 5.37258 0 12 0C18.6274 0 24 5.37258 24 12C24 18.6274 18.6274 24 12 24C5.37258 24 0 18.6274 0 12Z" fill="white"/>
<mask id="mask0_1092_30112" style="mask-type:alpha" maskUnits="userSpaceOnUse" x="0" y="0" width="24" height="24">
<path fill-rule="evenodd" clip-rule="evenodd" d="M0 12C0 5.37258 5.37258 0 12 0C18.6274 0 24 5.37258 24 12C24 18.6274 18.6274 24 12 24C5.37258 24 0 18.6274 0 12Z" fill="white"/>
</mask>
<g mask="url(#mask0_1092_30112)">
<path fill-rule="evenodd" clip-rule="evenodd" d="M10.4004 12.0002C10.4004 11.5606 10.7167 11.2002 11.1174 11.2002C11.5181 11.2002 11.8415 11.5606 11.8345 12.0002C11.8345 12.4398 11.5181 12.8002 11.1174 12.8002C10.7238 12.8002 10.4004 12.4398 10.4004 12.0002ZM12.9663 12.0002C12.9663 11.5606 13.2826 11.2002 13.6833 11.2002C14.084 11.2002 14.4004 11.5606 14.4004 12.0002C14.4004 12.4398 14.084 12.8002 13.6833 12.8002C13.2897 12.8002 12.9663 12.4398 12.9663 12.0002Z" fill="#7289DA"/>
<path fill-rule="evenodd" clip-rule="evenodd" d="M7.45257 5.2002H16.9474C17.7481 5.2002 18.4 5.8442 18.4 6.6422V19.2002L16.8766 17.8702L16.0192 17.0862L15.1122 16.2532L15.4878 17.5482H7.45257C6.65189 17.5482 6 16.9042 6 16.1062V6.6422C6 5.8442 6.65189 5.2002 7.45257 5.2002ZM13.7447 13.7752C13.9573 14.0412 14.2123 14.3422 14.2123 14.3422C15.7783 14.2932 16.3806 13.2782 16.3806 13.2782C16.3806 11.0242 15.3602 9.1972 15.3602 9.1972C14.3399 8.4412 13.3691 8.4622 13.3691 8.4622L13.2699 8.5742C14.4745 8.9382 15.0343 9.4632 15.0343 9.4632C14.2974 9.0642 13.5746 8.8682 12.9015 8.7912C12.3913 8.7352 11.9024 8.7492 11.4702 8.8052C11.4331 8.8052 11.4013 8.81053 11.3656 8.81654C11.3604 8.81742 11.3551 8.81831 11.3497 8.8192C11.1017 8.8402 10.4994 8.9312 9.74126 9.2602C9.47909 9.3792 9.3232 9.4632 9.3232 9.4632C9.3232 9.4632 9.91131 8.9102 11.1867 8.5462L11.1159 8.4622C11.1159 8.4622 10.1451 8.4412 9.1248 9.1972C9.1248 9.1972 8.10446 11.0242 8.10446 13.2782C8.10446 13.2782 8.69966 14.2932 10.2656 14.3422C10.2656 14.3422 10.5278 14.0272 10.7403 13.7612C9.84046 13.4952 9.50034 12.9352 9.50034 12.9352C9.50034 12.9352 9.5712 12.9842 9.69874 13.0542C9.70583 13.0612 9.71291 13.0682 9.72709 13.0752C9.73771 13.0822 9.74834 13.0874 9.75897 13.0927C9.7696 13.0979 9.78023 13.1032 9.79086 13.1102C9.968 13.2082 10.1451 13.2852 10.3081 13.3482C10.5986 13.4602 10.9458 13.5722 11.3497 13.6492C11.8811 13.7472 12.5047 13.7822 13.1849 13.6562C13.5179 13.6002 13.8581 13.5022 14.2123 13.3552C14.4603 13.2642 14.7367 13.1312 15.0272 12.9422C15.0272 12.9422 14.6729 13.5162 13.7447 13.7752Z" fill="#7289DA"/>
</g>
</svg>
