<svg width="503" height="51" viewBox="0 0 503 51" fill="none" xmlns="http://www.w3.org/2000/svg">
<path opacity="0.8" d="M0.420001 49H-0.58V50H0.420001V49ZM0.420001 1.4V0.399998H-0.58V1.4H0.420001ZM13 1.4H14V0.399998H13V1.4ZM13 37.44H12V38.44H13V37.44ZM35.78 37.44H36.78V36.44H35.78V37.44ZM35.78 49V50H36.78V49H35.78ZM1.42 49V1.4H-0.58V49H1.42ZM0.420001 2.4H13V0.399998H0.420001V2.4ZM12 1.4V37.44H14V1.4H12ZM13 38.44H35.78V36.44H13V38.44ZM34.78 37.44V49H36.78V37.44H34.78ZM35.78 48H0.420001V50H35.78V48ZM36.4414 49L35.4763 48.7381L35.1338 50H36.4414V49ZM49.3614 1.4V0.399998H48.5967L48.3963 1.13805L49.3614 1.4ZM72.4814 1.4L73.4465 1.13805L73.2462 0.399998H72.4814V1.4ZM85.4014 49V50H86.709L86.3665 48.7381L85.4014 49ZM72.4814 49L71.5113 49.2425L71.7006 50H72.4814V49ZM70.1014 39.48L71.0715 39.2375L70.8822 38.48H70.1014V39.48ZM51.7414 39.48V38.48H50.9606L50.7713 39.2375L51.7414 39.48ZM49.3614 49V50H50.1422L50.3316 49.2425L49.3614 49ZM54.4614 28.6L53.4938 28.3476L53.1671 29.6H54.4614V28.6ZM67.3814 28.6V29.6H68.6757L68.349 28.3476L67.3814 28.6ZM63.3014 12.96L64.269 12.7076L64.074 11.96H63.3014V12.96ZM58.5414 12.96V11.96H57.7688L57.5738 12.7076L58.5414 12.96ZM37.4065 49.2619L50.3265 1.66195L48.3963 1.13805L35.4763 48.7381L37.4065 49.2619ZM49.3614 2.4H72.4814V0.399998H49.3614V2.4ZM71.5163 1.66195L84.4363 49.2619L86.3665 48.7381L73.4465 1.13805L71.5163 1.66195ZM85.4014 48H72.4814V50H85.4014V48ZM73.4516 48.7575L71.0715 39.2375L69.1313 39.7225L71.5113 49.2425L73.4516 48.7575ZM70.1014 38.48H51.7414V40.48H70.1014V38.48ZM50.7713 39.2375L48.3913 48.7575L50.3316 49.2425L52.7115 39.7225L50.7713 39.2375ZM49.3614 48H36.4414V50H49.3614V48ZM54.4614 29.6H67.3814V27.6H54.4614V29.6ZM68.349 28.3476L64.269 12.7076L62.3338 13.2124L66.4138 28.8524L68.349 28.3476ZM63.3014 11.96H58.5414V13.96H63.3014V11.96ZM57.5738 12.7076L53.4938 28.3476L55.429 28.8524L59.509 13.2124L57.5738 12.7076ZM89.4628 1.4V0.399998H88.4628V1.4H89.4628ZM102.043 1.4H103.043V0.399998H102.043V1.4ZM104.423 36.352L103.706 37.0491V37.0491L104.423 36.352ZM117.343 36.352L118.06 37.0491V37.0491L117.343 36.352ZM119.723 1.4V0.399998H118.723V1.4H119.723ZM132.303 1.4H133.303V0.399998H132.303V1.4ZM126.523 44.784L125.829 44.0643L126.523 44.784ZM95.2428 44.784L95.9371 44.0643L95.2428 44.784ZM90.4628 29.96V1.4H88.4628V29.96H90.4628ZM89.4628 2.4H102.043V0.399998H89.4628V2.4ZM101.043 1.4V29.62H103.043V1.4H101.043ZM101.043 29.62C101.043 32.6667 101.894 35.1858 103.706 37.0491L105.14 35.6549C103.778 34.2542 103.043 32.2853 103.043 29.62H101.043ZM103.706 37.0491C105.517 38.9119 107.949 39.8 110.883 39.8V37.8C108.376 37.8 106.502 37.0561 105.14 35.6549L103.706 37.0491ZM110.883 39.8C113.816 39.8 116.249 38.9119 118.06 37.0491L116.626 35.6549C115.264 37.0561 113.389 37.8 110.883 37.8V39.8ZM118.06 37.0491C119.871 35.1858 120.723 32.6667 120.723 29.62H118.723C118.723 32.2853 117.988 34.2542 116.626 35.6549L118.06 37.0491ZM120.723 29.62V1.4H118.723V29.62H120.723ZM119.723 2.4H132.303V0.399998H119.723V2.4ZM131.303 1.4V29.96H133.303V1.4H131.303ZM131.303 29.96C131.303 35.8987 129.456 40.5645 125.829 44.0643L127.217 45.5037C131.296 41.5689 133.303 36.3519 133.303 29.96H131.303ZM125.829 44.0643C122.202 47.5628 117.259 49.36 110.883 49.36V51.36C117.653 51.36 123.137 49.4399 127.217 45.5037L125.829 44.0643ZM110.883 49.36C104.506 49.36 99.5636 47.5628 95.9371 44.0643L94.5485 45.5037C98.6287 49.4399 104.113 51.36 110.883 51.36V49.36ZM95.9371 44.0643C92.3092 40.5645 90.4628 35.8987 90.4628 29.96H88.4628C88.4628 36.3519 90.4698 41.5689 94.5485 45.5037L95.9371 44.0643ZM140.803 49H139.803V50H140.803V49ZM140.803 1.4V0.399998H139.803V1.4H140.803ZM156.103 1.4L156.977 0.913511L156.691 0.399998H156.103V1.4ZM172.763 31.32L171.889 31.8065L172.175 32.32H172.763V31.32ZM173.443 31.32V32.32H174.623L174.429 31.1556L173.443 31.32ZM172.423 25.2H171.423V25.2828L171.436 25.3644L172.423 25.2ZM172.423 1.4V0.399998H171.423V1.4H172.423ZM185.003 1.4H186.003V0.399998H185.003V1.4ZM185.003 49V50H186.003V49H185.003ZM169.703 49L168.829 49.4865L169.115 50H169.703V49ZM153.043 19.08L153.917 18.5935L153.631 18.08H153.043V19.08ZM152.363 19.08V18.08H151.182L151.376 19.2444L152.363 19.08ZM153.383 25.2H154.383V25.1172L154.369 25.0356L153.383 25.2ZM153.383 49V50H154.383V49H153.383ZM141.803 49V1.4H139.803V49H141.803ZM140.803 2.4H156.103V0.399998H140.803V2.4ZM155.229 1.88648L171.889 31.8065L173.637 30.8335L156.977 0.913511L155.229 1.88648ZM172.763 32.32H173.443V30.32H172.763V32.32ZM174.429 31.1556L173.409 25.0356L171.436 25.3644L172.456 31.4844L174.429 31.1556ZM173.423 25.2V1.4H171.423V25.2H173.423ZM172.423 2.4H185.003V0.399998H172.423V2.4ZM184.003 1.4V49H186.003V1.4H184.003ZM185.003 48H169.703V50H185.003V48ZM170.577 48.5135L153.917 18.5935L152.169 19.5665L168.829 49.4865L170.577 48.5135ZM153.043 18.08H152.363V20.08H153.043V18.08ZM151.376 19.2444L152.396 25.3644L154.369 25.0356L153.349 18.9156L151.376 19.2444ZM152.383 25.2V49H154.383V25.2H152.383ZM153.383 48H140.803V50H153.383V48ZM199.233 43.22L198.536 43.9369L198.543 43.9434L199.233 43.22ZM199.233 7.248L199.927 7.9682L199.927 7.96808L199.233 7.248ZM238.537 9.424L239.333 8.81791L239.325 8.80769L238.537 9.424ZM243.161 18.74V19.74H244.468L244.127 18.4791L243.161 18.74ZM230.241 18.74L229.341 19.1756L229.614 19.74H230.241V18.74ZM227.725 15.204L227.018 15.9111L227.027 15.9193L227.035 15.9274L227.725 15.204ZM208.753 15.34L208.04 14.6394L208.753 15.34ZM208.753 35.06L208.04 35.7606L208.753 35.06ZM228.269 34.72L227.522 34.0556L227.514 34.0651L228.269 34.72ZM230.581 30.64V29.64H229.84L229.624 30.35L230.581 30.64ZM243.501 30.64L244.466 30.9021L244.809 29.64H243.501V30.64ZM238.673 40.5L237.879 39.8921L237.874 39.8991L237.869 39.9062L238.673 40.5ZM199.931 42.5031C195.193 37.8955 192.821 32.1518 192.821 25.2H190.821C190.821 32.6642 193.392 38.9339 198.536 43.9369L199.931 42.5031ZM192.821 25.2C192.821 18.2483 195.192 12.5293 199.927 7.9682L198.54 6.5278C193.392 11.4867 190.821 17.7357 190.821 25.2H192.821ZM199.927 7.96808C204.705 3.36436 210.815 1.04 218.341 1.04V-0.960003C210.364 -0.960003 203.735 1.52098 198.54 6.52792L199.927 7.96808ZM218.341 1.04C226.63 1.04 233.06 4.04759 237.75 10.0403L239.325 8.80769C234.223 2.28841 227.189 -0.960003 218.341 -0.960003V1.04ZM237.742 10.03C239.842 12.7866 241.324 15.7754 242.196 19.0009L244.127 18.4791C243.185 14.9953 241.585 11.7734 239.333 8.81796L237.742 10.03ZM243.161 17.74H230.241V19.74H243.161V17.74ZM231.142 18.3044C230.416 16.8055 229.51 15.5254 228.416 14.4806L227.035 15.9274C227.935 16.7866 228.707 17.8638 229.341 19.1756L231.142 18.3044ZM228.433 14.4969C225.817 11.881 222.421 10.6 218.341 10.6V12.6C221.968 12.6 224.829 13.7217 227.018 15.9111L228.433 14.4969ZM218.341 10.6C214.167 10.6 210.701 11.9292 208.04 14.6394L209.467 16.0406C211.702 13.7642 214.628 12.6 218.341 12.6V10.6ZM208.04 14.6394C205.378 17.351 204.081 20.9052 204.081 25.2H206.081C206.081 21.3348 207.233 18.3157 209.467 16.0406L208.04 14.6394ZM204.081 25.2C204.081 29.4948 205.378 33.049 208.04 35.7606L209.467 34.3594C207.233 32.0843 206.081 29.0652 206.081 25.2H204.081ZM208.04 35.7606C210.701 38.4708 214.167 39.8 218.341 39.8V37.8C214.628 37.8 211.702 36.6358 209.467 34.3594L208.04 35.7606ZM218.341 39.8C222.834 39.8 226.442 38.3549 229.025 35.3749L227.514 34.0651C225.382 36.5251 222.371 37.8 218.341 37.8V39.8ZM229.017 35.3844C230.196 34.0575 231.041 32.5711 231.538 30.93L229.624 30.35C229.215 31.7009 228.519 32.9345 227.522 34.0556L229.017 35.3844ZM230.581 31.64H243.501V29.64H230.581V31.64ZM242.536 30.3779C241.572 33.9299 240.019 37.0981 237.879 39.8921L239.467 41.1079C241.771 38.0993 243.437 34.6941 244.466 30.9021L242.536 30.3779ZM237.869 39.9062C233.221 46.2052 226.752 49.36 218.341 49.36V51.36C227.339 51.36 234.425 47.9415 239.478 41.0938L237.869 39.9062ZM218.341 49.36C210.812 49.36 204.701 47.0565 199.924 42.4966L198.543 43.9434C203.739 48.9035 210.367 51.36 218.341 51.36V49.36ZM249.975 49H248.975V50H249.975V49ZM249.975 1.4V0.399998H248.975V1.4H249.975ZM262.555 1.4H263.555V0.399998H262.555V1.4ZM262.555 19.08H261.555V20.08H262.555V19.08ZM280.915 19.08V20.08H281.915V19.08H280.915ZM280.915 1.4V0.399998H279.915V1.4H280.915ZM293.495 1.4H294.495V0.399998H293.495V1.4ZM293.495 49V50H294.495V49H293.495ZM280.915 49H279.915V50H280.915V49ZM280.915 30.64H281.915V29.64H280.915V30.64ZM262.555 30.64V29.64H261.555V30.64H262.555ZM262.555 49V50H263.555V49H262.555ZM250.975 49V1.4H248.975V49H250.975ZM249.975 2.4H262.555V0.399998H249.975V2.4ZM261.555 1.4V19.08H263.555V1.4H261.555ZM262.555 20.08H280.915V18.08H262.555V20.08ZM281.915 19.08V1.4H279.915V19.08H281.915ZM280.915 2.4H293.495V0.399998H280.915V2.4ZM292.495 1.4V49H294.495V1.4H292.495ZM293.495 48H280.915V50H293.495V48ZM281.915 49V30.64H279.915V49H281.915ZM280.915 29.64H262.555V31.64H280.915V29.64ZM261.555 30.64V49H263.555V30.64H261.555ZM262.555 48H249.975V50H262.555V48ZM302.303 49H301.303V50H302.303V49ZM302.303 1.4V0.399998H301.303V1.4H302.303ZM339.635 6.432L338.956 7.16616L338.965 7.17484L339.635 6.432ZM339.635 31.116L340.309 31.8547L340.309 31.8543L339.635 31.116ZM314.883 36.08V35.08H313.883V36.08H314.883ZM314.883 49V50H315.883V49H314.883ZM314.883 24.52H313.883V25.52H314.883V24.52ZM330.387 22.956L329.738 22.1948L329.731 22.2008L329.724 22.207L330.387 22.956ZM330.387 14.524L329.724 15.273L329.731 15.2792L329.738 15.2852L330.387 14.524ZM314.883 12.96V11.96H313.883V12.96H314.883ZM303.303 49V1.4H301.303V49H303.303ZM302.303 2.4H325.423V0.399998H302.303V2.4ZM325.423 2.4C331.068 2.4 335.547 4.01305 338.956 7.1661L340.314 5.6979C336.469 2.14161 331.473 0.399998 325.423 0.399998V2.4ZM338.965 7.17484C342.429 10.2966 344.143 14.1304 344.143 18.74H346.143C346.143 13.5576 344.184 9.18603 340.304 5.68916L338.965 7.17484ZM344.143 18.74C344.143 23.3501 342.429 27.2091 338.96 30.3777L340.309 31.8543C344.185 28.3136 346.143 23.9219 346.143 18.74H344.143ZM338.961 30.3773C335.552 33.4874 331.072 35.08 325.423 35.08V37.08C331.47 37.08 336.464 35.3633 340.309 31.8547L338.961 30.3773ZM325.423 35.08H314.883V37.08H325.423V35.08ZM313.883 36.08V49H315.883V36.08H313.883ZM314.883 48H302.303V50H314.883V48ZM314.883 25.52H325.083V23.52H314.883V25.52ZM325.083 25.52C327.566 25.52 329.615 24.9735 331.049 23.705L329.724 22.207C328.801 23.0239 327.314 23.52 325.083 23.52V25.52ZM331.035 23.7172C332.506 22.4642 333.223 20.7681 333.223 18.74H331.223C331.223 20.2479 330.715 21.3624 329.738 22.1948L331.035 23.7172ZM333.223 18.74C333.223 16.7119 332.506 15.0158 331.035 13.7628L329.738 15.2852C330.715 16.1176 331.223 17.2321 331.223 18.74H333.223ZM331.049 13.775C329.615 12.5065 327.566 11.96 325.083 11.96V13.96C327.314 13.96 328.801 14.4561 329.724 15.273L331.049 13.775ZM325.083 11.96H314.883V13.96H325.083V11.96ZM313.883 12.96V24.52H315.883V12.96H313.883ZM357.016 43.016L356.312 43.7264L356.319 43.7327L357.016 43.016ZM357.016 7.452L357.717 8.16557L357.717 8.1655L357.016 7.452ZM395.028 7.452L394.324 8.16236L394.331 8.16872L395.028 7.452ZM395.028 43.016L395.729 43.7296L395.729 43.7295L395.028 43.016ZM366.468 15.34L365.755 14.6394L366.468 15.34ZM366.468 35.06L365.755 35.7606L366.468 35.06ZM385.644 35.06L386.358 35.7606L385.644 35.06ZM385.644 15.34L386.358 14.6394L385.644 15.34ZM357.72 42.3057C352.92 37.5496 350.536 31.8656 350.536 25.2H348.536C348.536 32.4064 351.139 38.5998 356.312 43.7263L357.72 42.3057ZM350.536 25.2C350.536 18.5347 352.92 12.8751 357.717 8.16557L356.316 6.73844C351.139 11.8209 348.536 17.9933 348.536 25.2H350.536ZM357.717 8.1655C362.545 3.42451 368.632 1.04 376.056 1.04V-0.960003C368.158 -0.960003 361.552 1.59682 356.316 6.73849L357.717 8.1655ZM376.056 1.04C383.48 1.04 389.543 3.42439 394.324 8.16233L395.732 6.74167C390.54 1.59694 383.955 -0.960003 376.056 -0.960003V1.04ZM394.331 8.16872C399.172 12.8791 401.576 18.5377 401.576 25.2H403.576C403.576 17.9903 400.948 11.8169 395.726 6.73527L394.331 8.16872ZM401.576 25.2C401.576 31.8626 399.172 37.5456 394.328 42.3025L395.729 43.7295C400.949 38.6037 403.576 32.4094 403.576 25.2H401.576ZM394.328 42.3024C389.547 46.9963 383.483 49.36 376.056 49.36V51.36C383.952 51.36 390.536 48.8277 395.729 43.7296L394.328 42.3024ZM376.056 49.36C368.629 49.36 362.541 46.9962 357.714 42.2993L356.319 43.7327C361.555 48.8278 368.16 51.36 376.056 51.36V49.36ZM365.755 14.6394C363.092 17.351 361.796 20.9052 361.796 25.2H363.796C363.796 21.3348 364.948 18.3157 367.182 16.0406L365.755 14.6394ZM361.796 25.2C361.796 29.4948 363.092 33.049 365.755 35.7606L367.182 34.3594C364.948 32.0843 363.796 29.0652 363.796 25.2H361.796ZM365.755 35.7606C368.416 38.4708 371.882 39.8 376.056 39.8V37.8C372.343 37.8 369.417 36.6358 367.182 34.3594L365.755 35.7606ZM376.056 39.8C380.231 39.8 383.697 38.4708 386.358 35.7606L384.931 34.3594C382.696 36.6358 379.77 37.8 376.056 37.8V39.8ZM386.358 35.7606C389.02 33.049 390.316 29.4948 390.316 25.2H388.316C388.316 29.0652 387.164 32.0843 384.931 34.3594L386.358 35.7606ZM390.316 25.2C390.316 20.9052 389.02 17.351 386.358 14.6394L384.931 16.0406C387.164 18.3157 388.316 21.3348 388.316 25.2H390.316ZM386.358 14.6394C383.697 11.9292 380.231 10.6 376.056 10.6V12.6C379.77 12.6 382.696 13.7642 384.931 16.0406L386.358 14.6394ZM376.056 10.6C371.882 10.6 368.416 11.9292 365.755 14.6394L367.182 16.0406C369.417 13.7642 372.343 12.6 376.056 12.6V10.6ZM414.79 43.016L414.086 43.7264L414.092 43.7327L414.79 43.016ZM414.79 7.452L415.49 8.16557L415.49 8.1655L414.79 7.452ZM452.802 7.452L452.098 8.16236L452.104 8.16872L452.802 7.452ZM452.802 43.016L453.502 43.7296L453.502 43.7295L452.802 43.016ZM424.242 15.34L423.528 14.6394L424.242 15.34ZM424.242 35.06L423.528 35.7606L424.242 35.06ZM443.418 35.06L444.131 35.7606L443.418 35.06ZM443.418 15.34L444.131 14.6394L443.418 15.34ZM415.494 42.3057C410.694 37.5496 408.31 31.8656 408.31 25.2H406.31C406.31 32.4064 408.912 38.5998 414.086 43.7263L415.494 42.3057ZM408.31 25.2C408.31 18.5347 410.694 12.8751 415.49 8.16557L414.089 6.73844C408.913 11.8209 406.31 17.9933 406.31 25.2H408.31ZM415.49 8.1655C420.318 3.42451 426.406 1.04 433.83 1.04V-0.960003C425.931 -0.960003 419.325 1.59682 414.089 6.73849L415.49 8.1655ZM433.83 1.04C441.254 1.04 447.316 3.42439 452.098 8.16233L453.506 6.74167C448.314 1.59694 441.728 -0.960003 433.83 -0.960003V1.04ZM452.104 8.16872C456.946 12.8791 459.35 18.5377 459.35 25.2H461.35C461.35 17.9903 458.722 11.8169 453.499 6.73527L452.104 8.16872ZM459.35 25.2C459.35 31.8626 456.945 37.5456 452.101 42.3025L453.502 43.7295C458.722 38.6037 461.35 32.4094 461.35 25.2H459.35ZM452.101 42.3024C447.32 46.9963 441.257 49.36 433.83 49.36V51.36C441.725 51.36 448.31 48.8277 453.502 43.7296L452.101 42.3024ZM433.83 49.36C426.403 49.36 420.314 46.9962 415.487 42.2993L414.092 43.7327C419.329 48.8278 425.934 51.36 433.83 51.36V49.36ZM423.528 14.6394C420.866 17.351 419.57 20.9052 419.57 25.2H421.57C421.57 21.3348 422.721 18.3157 424.955 16.0406L423.528 14.6394ZM419.57 25.2C419.57 29.4948 420.866 33.049 423.528 35.7606L424.955 34.3594C422.721 32.0843 421.57 29.0652 421.57 25.2H419.57ZM423.528 35.7606C426.189 38.4708 429.655 39.8 433.83 39.8V37.8C430.116 37.8 427.19 36.6358 424.955 34.3594L423.528 35.7606ZM433.83 39.8C438.004 39.8 441.47 38.4708 444.131 35.7606L442.704 34.3594C440.469 36.6358 437.543 37.8 433.83 37.8V39.8ZM444.131 35.7606C446.793 33.049 448.09 29.4948 448.09 25.2H446.09C446.09 29.0652 444.938 32.0843 442.704 34.3594L444.131 35.7606ZM448.09 25.2C448.09 20.9052 446.793 17.351 444.131 14.6394L442.704 16.0406C444.938 18.3157 446.09 21.3348 446.09 25.2H448.09ZM444.131 14.6394C441.47 11.9292 438.004 10.6 433.83 10.6V12.6C437.543 12.6 440.469 13.7642 442.704 16.0406L444.131 14.6394ZM433.83 10.6C429.655 10.6 426.189 11.9292 423.528 14.6394L424.955 16.0406C427.19 13.7642 430.116 12.6 433.83 12.6V10.6ZM467.123 49H466.123V50H467.123V49ZM467.123 1.4V0.399998H466.123V1.4H467.123ZM479.703 1.4H480.703V0.399998H479.703V1.4ZM479.703 37.44H478.703V38.44H479.703V37.44ZM502.483 37.44H503.483V36.44H502.483V37.44ZM502.483 49V50H503.483V49H502.483ZM468.123 49V1.4H466.123V49H468.123ZM467.123 2.4H479.703V0.399998H467.123V2.4ZM478.703 1.4V37.44H480.703V1.4H478.703ZM479.703 38.44H502.483V36.44H479.703V38.44ZM501.483 37.44V49H503.483V37.44H501.483ZM502.483 48H467.123V50H502.483V48Z" fill="url(#paint0_linear_766_34754)"/>
<defs>
<linearGradient id="paint0_linear_766_34754" x1="250" y1="-90.5" x2="250" y2="49" gradientUnits="userSpaceOnUse">
<stop stop-color="#2CE7FF"/>
<stop offset="1" stop-color="#2CE7FF" stop-opacity="0"/>
</linearGradient>
</defs>
</svg>
