<svg width="124" height="22" viewBox="0 0 124 22" fill="none" xmlns="http://www.w3.org/2000/svg">
<path d="M15.4811 11.2457C15.352 11.2457 15.2413 11.1895 15.149 11.1145C15.0567 11.0208 15.0198 10.9083 15.0198 10.7771V7.74078L12.3811 5.02307C12.2889 4.92936 12.252 4.8169 12.252 4.6857V0.46857C12.252 0.33737 12.3073 0.224914 12.3811 0.1312C12.4734 0.0562284 12.6026 0 12.7133 0H15.4811C15.6103 0 15.721 0.0562284 15.8133 0.1312L17.6032 1.94925C17.6955 2.04297 17.7323 2.15542 17.7323 2.28662C17.7323 2.41782 17.677 2.53028 17.6032 2.60525C17.5109 2.69896 17.4002 2.73645 17.2895 2.73645C17.1603 2.73645 17.0496 2.69896 16.9573 2.60525L15.2966 0.918398H13.1746V4.47953L15.8133 7.216C15.9056 7.30968 15.9425 7.42213 15.9425 7.55337V10.7771C15.9425 10.9083 15.8871 11.0208 15.8133 11.1145C15.721 11.1895 15.6103 11.2457 15.4811 11.2457Z" fill="#94A0FD"/>
<path d="M0.719123 11.7142C0.589957 11.7142 0.479241 11.658 0.386979 11.5831C0.294717 11.4893 0.257812 11.3769 0.257812 11.2457V6.09139C0.257812 5.96021 0.313169 5.84775 0.386979 5.75402L5.9227 0.1312C6.01494 0.0562284 6.14413 0 6.25483 0H9.94534C10.0745 0 10.1852 0.0562284 10.2775 0.1312C10.3697 0.224914 10.4066 0.337371 10.4066 0.46857C10.4066 0.599771 10.3513 0.712227 10.2775 0.805942C10.1852 0.880911 10.0745 0.937139 9.94534 0.937139H6.45781L1.18043 6.27885V11.2457C1.18043 11.3769 1.12507 11.4893 1.05127 11.5831C0.959003 11.658 0.84829 11.7142 0.719123 11.7142Z" fill="#94A0FD"/>
<path d="M3.48698 14.5257H0.719123C0.589957 14.5257 0.479241 14.4695 0.386979 14.3945C0.294717 14.3008 0.257812 14.1884 0.257812 14.0571C0.257812 13.9259 0.313169 13.8135 0.386979 13.7198C0.460788 13.6261 0.589957 13.5886 0.719123 13.5886H3.02567V9.37144C3.02567 9.24025 3.08103 9.1278 3.15484 9.03407L6.78994 5.34175C6.88224 5.24802 6.99293 5.21057 7.12212 5.21057C7.25126 5.21057 7.36195 5.2668 7.4358 5.34175C7.52804 5.43548 7.56494 5.54794 7.56494 5.66039C7.56494 5.79158 7.52804 5.90403 7.4358 5.99776L3.92984 9.5589V14.0571C3.92984 14.1884 3.87448 14.3008 3.80067 14.3945C3.72686 14.4695 3.61615 14.5257 3.48698 14.5257Z" fill="#C2E8FD"/>
<path d="M15.4819 21.5542H11.7914C11.6622 21.5542 11.5515 21.498 11.4592 21.423C11.367 21.3293 11.3301 21.2169 11.3301 21.0857C11.3301 20.9544 11.3854 20.842 11.4592 20.7483C11.5515 20.6546 11.6622 20.6171 11.7914 20.6171H15.2973L20.5563 15.2754V10.3085C20.5563 10.1774 20.6116 10.0649 20.6854 9.97118C20.7777 9.87745 20.8884 9.84 21.0176 9.84C21.1467 9.84 21.2574 9.89622 21.3497 9.97118C21.442 10.0649 21.4789 10.1774 21.4789 10.3085V15.4628C21.4789 15.594 21.4235 15.7065 21.3497 15.8002L15.814 21.423C15.7217 21.498 15.611 21.5542 15.4819 21.5542Z" fill="#94A0FD"/>
<path d="M9.02296 21.5542H6.25509C6.12594 21.5542 6.0152 21.498 5.92296 21.423L4.13307 19.605C4.04081 19.5112 4.00391 19.3988 4.00391 19.2676C4.00391 19.1364 4.05926 19.024 4.13307 18.949C4.22533 18.8553 4.33605 18.8178 4.44676 18.8178C4.57593 18.8178 4.68664 18.8553 4.77891 18.949L6.43962 20.6358H8.56164V17.0559L5.92296 14.3945C5.83071 14.3008 5.79377 14.1883 5.79377 14.0571V10.7771C5.79377 10.6459 5.84916 10.5334 5.92296 10.4397C6.0152 10.346 6.12594 10.3085 6.25509 10.3085C6.38428 10.3085 6.49497 10.3648 6.58721 10.4397C6.67951 10.5334 6.71641 10.6459 6.71641 10.7771V13.8697L9.35509 16.5499C9.44738 16.6436 9.48428 16.7561 9.48428 16.8872V21.1044C9.48428 21.2356 9.42893 21.348 9.35509 21.4418C9.26284 21.498 9.1521 21.5542 9.02296 21.5542Z" fill="#94A0FD"/>
<path d="M14.6151 16.3438C14.5229 16.3438 14.4306 16.325 14.3568 16.2688C14.283 16.2125 14.2276 16.1376 14.1907 16.0626C14.1538 15.9689 14.1538 15.8752 14.1723 15.8002C14.1907 15.7065 14.2276 15.6315 14.3014 15.5565L17.8074 11.9954V7.49716C17.8074 7.36593 17.8627 7.25348 17.9365 7.1598C18.0288 7.06607 18.1395 7.02856 18.2687 7.02856H21.0365C21.1657 7.02856 21.2764 7.08479 21.3687 7.1598C21.461 7.25348 21.4979 7.36593 21.4979 7.49716C21.4979 7.62835 21.4425 7.7408 21.3687 7.83453C21.2764 7.92821 21.1657 7.96571 21.0365 7.96571H18.73V12.1829C18.73 12.314 18.6746 12.4265 18.6008 12.5202L14.9473 16.2125C14.855 16.2875 14.7443 16.3438 14.6151 16.3438Z" fill="#C2E8FD"/>
<path d="M10.8676 12.6514C10.4986 12.6514 10.1479 12.539 9.83425 12.3328C9.52057 12.1266 9.29914 11.8267 9.1515 11.4893C9.00391 11.152 8.96701 10.7772 9.0408 10.4023C9.1146 10.0461 9.28069 9.70878 9.53902 9.44642C9.79736 9.184 10.1295 8.99659 10.4801 8.94037C10.8307 8.86536 11.2182 8.90286 11.5503 9.05282C11.8825 9.20273 12.1777 9.42764 12.3807 9.74628C12.5837 10.0461 12.6944 10.421 12.6944 10.7959C12.6944 11.3019 12.4914 11.7705 12.1593 12.1266C11.8271 12.4452 11.3658 12.6514 10.8676 12.6514Z" fill="#FCFCFC"/>
<path d="M18.2485 5.15428C17.8794 5.15428 17.5288 5.0418 17.2151 4.83563C16.9199 4.62946 16.68 4.32958 16.5324 3.9922C16.3847 3.65484 16.3479 3.27998 16.4217 2.90512C16.4955 2.54901 16.6615 2.21164 16.9199 1.94924C17.1967 1.68684 17.5288 1.51816 17.8979 1.44319C18.2485 1.36821 18.636 1.4057 18.9681 1.55564C19.3003 1.70559 19.5955 1.9305 19.7985 2.24912C20.0014 2.54901 20.1122 2.92386 20.1122 3.29872C20.1122 3.80478 19.9092 4.27335 19.577 4.62946C19.208 4.94809 18.7467 5.15428 18.2485 5.15428Z" fill="#FCFCFC"/>
<path d="M3.48674 20.1485C3.11769 20.1485 2.7671 20.0361 2.45341 19.8299C2.15816 19.6237 1.91828 19.3238 1.77067 18.9865C1.62305 18.6491 1.58614 18.2742 1.65995 17.8994C1.73376 17.5433 1.89983 17.2059 2.15816 16.9435C2.4165 16.6811 2.74864 16.4937 3.09924 16.4374C3.44983 16.3625 3.83733 16.4 4.16947 16.5499C4.50162 16.6998 4.79686 16.9248 4.99984 17.2434C5.2028 17.5433 5.31355 17.9181 5.31355 18.293C5.31355 18.7991 5.11056 19.2676 4.77841 19.6237C4.44626 19.9423 3.98495 20.1485 3.48674 20.1485Z" fill="#FCFCFC"/>
<path d="M8.10001 6.55997C7.73098 6.55997 7.3804 6.44751 7.06667 6.24133C6.75299 6.03514 6.53156 5.73527 6.38397 5.39791C6.23633 5.06054 6.19943 4.68568 6.27322 4.31083C6.34707 3.95471 6.51311 3.61734 6.77144 3.35494C7.02978 3.09254 7.3619 2.90511 7.71253 2.84888C8.06311 2.77392 8.45063 2.8114 8.78276 2.96135C9.11489 3.11128 9.41012 3.3362 9.61311 3.65483C9.8161 3.95471 9.92679 4.32957 9.92679 4.70443C9.92679 5.2105 9.72385 5.67905 9.39167 6.03514C9.05954 6.35378 8.59822 6.55997 8.10001 6.55997Z" fill="#41B8FD"/>
<path d="M13.6371 18.7428C13.2681 18.7428 12.9175 18.6304 12.6038 18.4242C12.3086 18.218 12.0687 17.9181 11.921 17.5808C11.7735 17.2434 11.7365 16.8685 11.8104 16.4937C11.8842 16.1376 12.0502 15.8002 12.3086 15.5378C12.5669 15.2754 12.899 15.088 13.2496 15.0317C13.6002 14.9568 13.9877 14.9942 14.3198 15.1442C14.652 15.2942 14.9473 15.5191 15.1502 15.8377C15.3532 16.1563 15.4639 16.5124 15.4639 16.8873C15.4639 17.3933 15.2609 17.8619 14.9288 18.218C14.5966 18.5367 14.1354 18.7428 13.6371 18.7428Z" fill="#41B8FD"/>
<path d="M30.7969 19.1177V12.2391L31.7749 11.2644L32.6975 12.2391V17.0559L30.7969 19.1177ZM39.1374 11.2644L40.0969 12.2391V17.0559L39.1374 18.1243L38.1778 17.0559V12.2391L39.1374 11.2644ZM33.0296 9.9899H37.7719L38.8237 10.9646L37.7719 11.9392H33.0296L32.0701 10.9458L33.0296 9.9899ZM37.7719 17.4308L38.7683 18.4054L37.7719 19.3801H31.2028L33.0296 17.4308H37.7719ZM40.0784 4.89188V9.70876L39.1189 10.7021L38.1594 9.70876V4.89188L39.1189 3.82354L40.0784 4.89188ZM31.7564 10.7021L30.7969 9.70876V2.96137L32.6975 4.89188V9.70876L31.7564 10.7021ZM31.0737 2.60526H37.8457L38.7499 3.57988L37.8457 4.55451H33.1034L31.0737 2.60526Z" fill="#FCFCFC"/>
<path d="M45.4476 11.2644L46.3702 12.2578V18.3305L45.4107 19.3988L44.4512 18.3305V12.2578L45.4476 11.2644ZM46.3887 3.57988V9.67131L45.4661 10.7396L44.4881 9.67131V3.57988L45.4476 2.58652L46.3887 3.57988Z" fill="#FCFCFC"/>
<path d="M54.4347 11.2644L55.3571 12.2578V18.3304L54.3979 19.3988L53.4381 18.3304V12.2578L54.4347 11.2644ZM59.1401 3.5049L58.0881 4.47952H50.8548L49.877 3.54238L50.8548 2.54901H58.0881L59.1401 3.5049ZM53.4568 5.02306H55.3571V9.83998L54.4347 10.8334L53.4568 9.83998V5.02306Z" fill="#FCFCFC"/>
<path d="M64.6391 17.0559L63.6612 18.1243L62.7383 17.0559V12.2391L63.698 11.2644L64.6573 12.2391V17.0559H64.6391ZM70.636 17.4308L71.6325 18.4055L70.636 19.3801H64.9713L64.0483 18.3867L64.9713 17.4495H70.636V17.4308ZM71.9828 4.89187V9.70875L71.0236 10.7021L70.0638 9.70875V4.89187L71.0422 3.82353L71.9828 4.89187ZM63.6612 10.7021L62.7383 9.70875V4.89187L63.698 3.82353L64.6573 4.89187V9.70875L63.6612 10.7021ZM65.0081 4.53576L64.0115 3.54239L65.0081 2.60526H69.7503L70.6728 3.57988L69.7503 4.55451H65.0081V4.53576Z" fill="#B0B8FD"/>
<path d="M76.3012 11.2644L77.2237 12.2578V18.3305L76.2639 19.3988L75.3047 18.3305V12.2578L76.3012 11.2644ZM77.2237 3.57988V9.67132L76.3012 10.7396L75.3228 9.67132V3.57988L76.2826 2.58652L77.2237 3.57988Z" fill="#B0B8FD"/>
<path d="M84.3829 11.2644L85.3058 12.2578V18.3304L84.3461 19.3988L83.3868 18.3304V12.2578L84.3829 11.2644ZM89.0883 3.5049L88.0368 4.47952H80.8216L79.8438 3.54238L80.8216 2.54901H88.055L89.0883 3.5049ZM83.405 5.02306H85.3058V9.83998L84.3829 10.8334L83.405 9.83998V5.02306Z" fill="#B0B8FD"/>
<path d="M100.566 3.6736V9.74625L99.5877 10.7396L98.6648 9.74625V3.6736L99.6245 2.60526L100.566 3.6736ZM93.1846 9.74625V3.6736L92.2254 2.60526L91.2656 3.6736V9.74625L92.2254 10.7396L93.1846 9.74625ZM98.628 12.2578V17.0559L99.5877 18.1243L100.547 17.0559V12.2578L99.5877 11.2644L98.628 12.2578ZM93.4981 11.9392H98.2404L99.2924 11.002L98.2404 10.0087H93.4981L92.5389 10.9833L93.4981 11.9392ZM92.7234 17.4308L91.8009 18.4055L92.7234 19.3801H98.2404L99.2369 18.4429L98.2404 17.4495H92.7234V17.4308Z" fill="#B0B8FD"/>
<path d="M105.122 9.9899H109.865L110.917 10.9833L109.865 11.9204H105.122L104.145 10.9458L105.122 9.9899Z" fill="#B0B8FD"/>
<path d="M115.494 4.47952L114.516 3.5049L115.494 2.53027H122.69L123.742 3.5049L122.69 4.47952H115.494ZM115.494 17.4495L114.516 18.4242L115.494 19.3988H122.69L123.742 18.4242L122.69 17.4495H115.494ZM117.394 11.583L115.29 15.5565L115.641 16.9623L116.97 16.4749L119.073 12.5015L118.704 11.1707L117.394 11.583ZM122.302 6.3163L121.933 4.98558L120.623 5.41665L118.52 9.39016L118.87 10.7584L120.199 10.271L122.302 6.3163Z" fill="#B0B8FD"/>
</svg>
