<svg width="24" height="24" viewBox="0 0 24 24" fill="none" xmlns="http://www.w3.org/2000/svg">
<path fill-rule="evenodd" clip-rule="evenodd" d="M12 24C18.6274 24 24 18.6274 24 12C24 5.37264 18.6274 0 12 0C5.37264 0 0 5.37264 0 12C0 18.6274 5.37264 24 12 24ZM9.504 15.2582C11.3064 15.2582 12.768 13.7966 12.768 11.9942C12.768 10.1914 11.3064 8.73024 9.504 8.73024C7.70112 8.73024 6.24 10.1914 6.24 11.9942C6.24 13.7966 7.70112 15.2582 9.504 15.2582ZM16.271 11.9971C16.271 13.6853 15.5366 15.0542 14.6309 15.0542C13.7251 15.0542 12.9907 13.6853 12.9907 11.9966C12.9907 10.3085 13.7251 8.94 14.6309 8.94C15.5366 8.94 16.271 10.3085 16.271 11.9971ZM17.1658 14.7667C17.509 14.7667 17.7869 13.523 17.7869 11.9885C17.7869 10.4539 17.5085 9.21024 17.1658 9.21024C16.823 9.21024 16.5451 10.4539 16.5451 11.9885C16.5451 13.523 16.823 14.7667 17.1658 14.7667Z" fill="white"/>
</svg>
