<svg width="37" height="35" viewBox="0 0 37 35" fill="none" xmlns="http://www.w3.org/2000/svg">
<path d="M34.0105 1.40039L20.8105 11.0004L23.2516 5.33652L34.0105 1.40039Z" fill="#E2761B" stroke="#E2761B" stroke-linecap="round" stroke-linejoin="round"/>
<path d="M2.90039 1.40039L16.2244 11.471L13.8619 5.49072L2.90039 1.40039Z" fill="#E4761B" stroke="#E4761B" stroke-linecap="round" stroke-linejoin="round"/>
<path d="M29.0754 24.5254L25.498 30.0062L33.1522 32.1121L35.3527 24.6469L29.0754 24.5254Z" fill="#E4761B" stroke="#E4761B" stroke-linecap="round" stroke-linejoin="round"/>
<path d="M1.48242 24.6469L3.66933 32.1121L11.3235 30.0062L7.74617 24.5254L1.48242 24.6469Z" fill="#E4761B" stroke="#E4761B" stroke-linecap="round" stroke-linejoin="round"/>
<path d="M10.8907 15.2645L8.75781 18.4908L16.358 18.8283L16.088 10.6611L10.8907 15.2645Z" fill="#E4761B" stroke="#E4761B" stroke-linecap="round" stroke-linejoin="round"/>
<path d="M25.9168 15.2642L20.6521 10.5664L20.4766 18.8281L28.0632 18.4906L25.9168 15.2642Z" fill="#E4761B" stroke="#E4761B" stroke-linecap="round" stroke-linejoin="round"/>
<path d="M11.3242 30.0055L15.887 27.7781L11.9452 24.7002L11.3242 30.0055Z" fill="#E4761B" stroke="#E4761B" stroke-linecap="round" stroke-linejoin="round"/>
<path d="M20.9219 27.7781L25.4982 30.0055L24.8637 24.7002L20.9219 27.7781Z" fill="#E4761B" stroke="#E4761B" stroke-linecap="round" stroke-linejoin="round"/>
<path d="M25.4982 30.0057L20.9219 27.7783L21.2864 30.7617L21.2459 32.0171L25.4982 30.0057Z" fill="#D7C1B3" stroke="#D7C1B3" stroke-linecap="round" stroke-linejoin="round"/>
<path d="M11.3242 30.0057L15.5765 32.0171L15.5495 30.7617L15.887 27.7783L11.3242 30.0057Z" fill="#D7C1B3" stroke="#D7C1B3" stroke-linecap="round" stroke-linejoin="round"/>
<path d="M16.0102 23.0006L12.4102 21.8558L14.9506 20.6006L16.0102 23.0006Z" fill="#233447" stroke="#233447" stroke-linecap="round" stroke-linejoin="round"/>
<path d="M20.8105 23.0006L21.8664 20.6006L24.4105 21.8558L20.8105 23.0006Z" fill="#233447" stroke="#233447" stroke-linecap="round" stroke-linejoin="round"/>
<path d="M11.3234 30.0052L11.9714 24.5244L7.74609 24.6459L11.3234 30.0052Z" fill="#CD6116" stroke="#CD6116" stroke-linecap="round" stroke-linejoin="round"/>
<path d="M24.8496 24.5244L25.4976 30.0052L29.0749 24.6459L24.8496 24.5244Z" fill="#CD6116" stroke="#CD6116" stroke-linecap="round" stroke-linejoin="round"/>
<path d="M28.0632 18.4902L20.4766 18.8277L21.1785 22.7291L22.299 20.3802L24.9989 21.6086L28.0632 18.4902Z" fill="#CD6116" stroke="#CD6116" stroke-linecap="round" stroke-linejoin="round"/>
<path d="M11.8357 21.6086L14.5356 20.3802L15.6425 22.7291L16.358 18.8277L8.75781 18.4902L11.8357 21.6086Z" fill="#CD6116" stroke="#CD6116" stroke-linecap="round" stroke-linejoin="round"/>
<path d="M8.75977 18.4902L11.9456 24.7L11.8376 21.6086L8.75977 18.4902Z" fill="#E4751F" stroke="#E4751F" stroke-linecap="round" stroke-linejoin="round"/>
<path d="M25.0002 21.6086L24.8652 24.7L28.0646 18.4902L25.0002 21.6086Z" fill="#E4751F" stroke="#E4751F" stroke-linecap="round" stroke-linejoin="round"/>
<path d="M16.36 18.8281L15.6445 22.7295L16.5355 27.3328L16.738 21.2715L16.36 18.8281Z" fill="#E4751F" stroke="#E4751F" stroke-linecap="round" stroke-linejoin="round"/>
<path d="M20.4778 18.8281L20.1133 21.258L20.2753 27.3328L21.1797 22.7295L20.4778 18.8281Z" fill="#E4751F" stroke="#E4751F" stroke-linecap="round" stroke-linejoin="round"/>
<path d="M21.4997 22.8905L20.8105 27.3675L21.3043 27.8008L24.3077 24.8073L24.4105 21.8008L21.4997 22.8905Z" fill="#F6851B" stroke="#F6851B" stroke-linecap="round" stroke-linejoin="round"/>
<path d="M12.4102 21.8008L12.4929 24.8073L15.5136 27.8008L16.0102 27.3675L15.3274 22.8905L12.4102 21.8008Z" fill="#F6851B" stroke="#F6851B" stroke-linecap="round" stroke-linejoin="round"/>
<path d="M21.2909 32.3896L21.3321 31.0231L20.9892 30.6998H15.8189L15.5035 31.0231L15.5309 32.3896L11.2109 30.2002L12.7195 31.5226L15.7778 33.8002H21.0304L24.1024 31.5226L25.6109 30.2002L21.2909 32.3896Z" fill="#C0AD9E" stroke="#C0AD9E" stroke-linecap="round" stroke-linejoin="round"/>
<path d="M20.5048 28.1126L19.9627 27.8008H16.8342L16.2921 28.1126L16.0098 30.2008L16.2695 29.9929H20.5274L20.8098 30.2008L20.5048 28.1126Z" fill="#161616" stroke="#161616" stroke-linecap="round" stroke-linejoin="round"/>
<path d="M34.4753 12.0245L35.6228 6.51668L33.9083 1.40039L20.9219 11.039L25.9167 15.2643L32.9769 17.3297L34.5428 15.5073L33.8678 15.0213L34.9478 14.0359L34.1108 13.3879L35.1908 12.5644L34.4753 12.0245Z" fill="#763D16" stroke="#763D16" stroke-linecap="round" stroke-linejoin="round"/>
<path d="M1.19922 6.51668L2.34667 12.0245L1.6177 12.5644L2.69766 13.3879L1.87419 14.0359L2.95415 15.0213L2.27917 15.5073L3.83161 17.3297L10.8918 15.2643L15.8866 11.039L2.90015 1.40039L1.19922 6.51668Z" fill="#763D16" stroke="#763D16" stroke-linecap="round" stroke-linejoin="round"/>
<path d="M32.7638 17.6394L25.4943 15.8008L27.7044 18.6729L24.4102 24.2008L28.7468 24.1527H35.2102L32.7638 17.6394Z" fill="#F6851B" stroke="#F6851B" stroke-linecap="round" stroke-linejoin="round"/>
<path d="M11.3244 15.8008L4.0361 17.6394L1.61133 24.1527H8.07739L12.4113 24.2008L9.12255 18.6729L11.3244 15.8008Z" fill="#F6851B" stroke="#F6851B" stroke-linecap="round" stroke-linejoin="round"/>
<path d="M20.5802 18.9224L21.0495 10.7916L23.2113 5H13.6113L15.7447 10.7916L16.2424 18.9224L16.4131 21.487L16.4273 27.8H20.3669L20.3953 21.487L20.5802 18.9224Z" fill="#F6851B" stroke="#F6851B" stroke-linecap="round" stroke-linejoin="round"/>
</svg>
