<svg width="54" height="54" viewBox="0 0 54 54" fill="none" xmlns="http://www.w3.org/2000/svg">
<g filter="url(#filter0_d_766_36231)">
<path d="M22.1675 27C22.1675 27.0667 22.1609 27.1333 22.1475 27.1933C22.1342 27.26 22.1142 27.32 22.0942 27.38C22.0675 27.44 22.0342 27.5 22.0009 27.5533C21.9609 27.6067 21.9209 27.66 21.8742 27.7067C21.6875 27.8933 21.4342 28 21.1675 28C20.9009 28 20.6475 27.8933 20.4609 27.7067C20.4142 27.66 20.3742 27.6067 20.3342 27.5533C20.3009 27.5 20.2675 27.44 20.2475 27.38C20.2209 27.32 20.2009 27.26 20.1875 27.1933C20.1209 26.8733 20.2275 26.5267 20.4609 26.2933C20.6475 26.1067 20.9009 26 21.1675 26C21.4342 26 21.6875 26.1067 21.8742 26.2933C22.0609 26.48 22.1675 26.74 22.1675 27Z" fill="#F5F5F5"/>
</g>
<g filter="url(#filter1_d_766_36231)">
<path d="M25.166 27C25.166 27.0667 25.1594 27.1333 25.146 27.1933C25.1327 27.26 25.1127 27.32 25.0927 27.38C25.066 27.44 25.0327 27.5 24.9994 27.5533C24.9594 27.6067 24.9193 27.66 24.8727 27.7067C24.686 27.8933 24.4327 28 24.166 28C23.8993 28 23.646 27.8933 23.4594 27.7067C23.4127 27.66 23.3727 27.6067 23.3327 27.5533C23.2993 27.5 23.266 27.44 23.246 27.38C23.2193 27.32 23.1993 27.26 23.186 27.1933C23.1593 27.0667 23.1593 26.9333 23.186 26.8067C23.1993 26.74 23.2193 26.68 23.246 26.62C23.266 26.56 23.2993 26.5 23.3327 26.4467C23.3727 26.3933 23.4127 26.34 23.4594 26.2933C23.646 26.1067 23.8993 26 24.166 26C24.4327 26 24.686 26.1067 24.8727 26.2933C24.9193 26.34 24.9594 26.3933 24.9994 26.4467C25.0327 26.5 25.066 26.56 25.0927 26.62C25.1127 26.68 25.1327 26.74 25.146 26.8067C25.1594 26.8667 25.166 26.9333 25.166 27Z" fill="#F5F5F5"/>
</g>
<g filter="url(#filter2_d_766_36231)">
<path d="M27.8336 27C27.8336 27.0667 27.8269 27.1333 27.8136 27.1933C27.8002 27.26 27.7802 27.32 27.7602 27.38C27.7336 27.44 27.7002 27.5 27.6669 27.5533C27.6269 27.6067 27.5869 27.66 27.5402 27.7067C27.4936 27.7533 27.4469 27.7933 27.3869 27.8333C27.3336 27.8667 27.2736 27.9 27.2136 27.9267C27.1536 27.9467 27.0936 27.9666 27.0269 27.98C26.9669 27.9933 26.9002 28 26.8336 28C26.5669 28 26.3136 27.8933 26.1269 27.7067C26.0802 27.66 26.0402 27.6067 26.0002 27.5533C25.9669 27.5 25.9336 27.44 25.9069 27.38C25.8869 27.32 25.8669 27.26 25.8536 27.1933C25.7869 26.8733 25.8936 26.5267 26.1269 26.2933C26.3136 26.1067 26.5669 26 26.8336 26C26.9002 26 26.9669 26.0067 27.0269 26.02C27.0936 26.0334 27.1536 26.0533 27.2136 26.08C27.2736 26.1 27.3336 26.1333 27.3869 26.1667C27.4469 26.2067 27.4936 26.2467 27.5402 26.2933C27.5869 26.34 27.6269 26.3933 27.6669 26.4467C27.7002 26.5 27.7336 26.56 27.7602 26.62C27.7802 26.68 27.8002 26.74 27.8136 26.8067C27.8269 26.8667 27.8336 26.9333 27.8336 27Z" fill="#F5F5F5"/>
</g>
<g filter="url(#filter3_d_766_36231)">
<path d="M30.1673 27C30.1673 27.1734 30.094 27.3467 29.974 27.4734C29.8473 27.5934 29.674 27.6667 29.5007 27.6667C29.3273 27.6667 29.154 27.5934 29.0273 27.4734C28.874 27.32 28.8073 27.0867 28.8473 26.8734C28.854 26.8267 28.8673 26.7867 28.8873 26.7467C28.9007 26.7067 28.9207 26.6667 28.9473 26.6334C28.974 26.5934 29.0006 26.56 29.0273 26.5267C29.154 26.4067 29.3273 26.3334 29.5007 26.3334C29.674 26.3334 29.8473 26.4067 29.974 26.5267C30.0007 26.56 30.0273 26.5934 30.054 26.6334C30.0807 26.6667 30.1007 26.7067 30.114 26.7467C30.134 26.7867 30.1473 26.8267 30.154 26.8734C30.1607 26.9134 30.1673 26.96 30.1673 27Z" fill="#F5F5F5"/>
</g>
<g filter="url(#filter4_d_766_36231)">
<path d="M32.334 27C32.334 27.0667 32.3207 27.1333 32.294 27.1933C32.2673 27.2533 32.234 27.3067 32.1873 27.3534C32.1407 27.4 32.0873 27.44 32.0273 27.46C31.9673 27.4867 31.9007 27.5 31.834 27.5C31.7007 27.5 31.574 27.4467 31.4807 27.3534C31.434 27.3067 31.4007 27.2533 31.374 27.1933C31.3207 27.0667 31.3207 26.9333 31.374 26.8067C31.4007 26.7467 31.434 26.6933 31.4807 26.6466C31.5273 26.6 31.5807 26.5667 31.6407 26.54C31.7007 26.5133 31.7673 26.5 31.834 26.5C31.9007 26.5 31.9673 26.5133 32.0273 26.54C32.0873 26.5667 32.1407 26.6 32.1873 26.6466C32.234 26.6933 32.2673 26.7467 32.294 26.8067C32.3207 26.8733 32.334 26.9333 32.334 27Z" fill="#F5F5F5"/>
</g>
<g filter="url(#filter5_d_766_36231)">
<path d="M33.7125 27C33.7125 27.0866 33.6791 27.1733 33.6124 27.2333C33.5524 27.3 33.4658 27.3333 33.3791 27.3333C33.2925 27.3333 33.2058 27.3 33.1458 27.2333C33.0191 27.1133 33.0191 26.8867 33.1458 26.7667C33.2058 26.7 33.2925 26.6666 33.3791 26.6666C33.4658 26.6666 33.5524 26.7 33.6124 26.7667C33.6791 26.8267 33.7125 26.9133 33.7125 27Z" fill="#F5F5F5"/>
</g>
<g filter="url(#filter6_d_766_36231)">
<path d="M25.1664 32.6667C25.1664 32.9334 25.0597 33.1867 24.873 33.3734C24.6864 33.56 24.433 33.6667 24.1664 33.6667C23.9064 33.6667 23.6464 33.56 23.4597 33.3734C23.0864 33.0067 23.0864 32.3334 23.4597 31.96C23.6464 31.7734 23.9064 31.6667 24.1664 31.6667C24.433 31.6667 24.6864 31.7734 24.873 31.96C24.9197 32.0067 24.9597 32.06 24.9997 32.1133C25.033 32.1667 25.0664 32.2267 25.0864 32.2867C25.113 32.3467 25.133 32.4067 25.1464 32.4734C25.1597 32.5334 25.1664 32.6 25.1664 32.6667Z" fill="#F5F5F5"/>
</g>
<g filter="url(#filter7_d_766_36231)">
<path d="M25.166 21.3333C25.166 21.5933 25.0593 21.8533 24.8727 22.04C24.686 22.2266 24.426 22.3333 24.166 22.3333C24.0994 22.3333 24.0327 22.3266 23.9727 22.3133C23.906 22.3 23.846 22.28 23.786 22.26C23.726 22.2333 23.666 22.2 23.6127 22.1666C23.5593 22.1266 23.506 22.0866 23.4594 22.04C23.4127 21.9933 23.3727 21.94 23.3327 21.8867C23.2993 21.8333 23.266 21.7733 23.246 21.7133C23.2193 21.6533 23.1993 21.5933 23.186 21.5266C23.1593 21.4 23.1593 21.2667 23.186 21.14C23.1993 21.0733 23.2193 21.0133 23.246 20.9533C23.266 20.8933 23.2993 20.8333 23.3327 20.78C23.3727 20.7266 23.4127 20.6733 23.4594 20.6266C23.506 20.58 23.5593 20.54 23.6127 20.5C23.666 20.4666 23.726 20.4333 23.786 20.4133C23.846 20.3866 23.906 20.3667 23.9727 20.3533C24.0327 20.34 24.0993 20.3333 24.166 20.3333C24.4327 20.3333 24.686 20.44 24.8727 20.6266C24.9193 20.6733 24.9594 20.7266 24.9994 20.78C25.0327 20.8333 25.066 20.8933 25.0927 20.9533C25.1127 21.0133 25.1327 21.0733 25.146 21.14C25.1594 21.2067 25.166 21.2666 25.166 21.3333Z" fill="#F5F5F5"/>
</g>
<g filter="url(#filter8_d_766_36231)">
<path d="M27.4991 21.3333C27.4991 21.3733 27.4924 21.42 27.4857 21.46C27.4791 21.5067 27.4657 21.5467 27.4457 21.5867C27.4324 21.6267 27.4124 21.6667 27.3857 21.7067C27.3657 21.74 27.3324 21.7733 27.3057 21.8067C27.2724 21.8333 27.2391 21.8667 27.2057 21.8867C27.1657 21.9133 27.1257 21.9333 27.0857 21.9467C27.0457 21.9667 27.0057 21.98 26.9657 21.9867C26.9191 21.9933 26.8791 22 26.8324 22C26.6591 22 26.4857 21.9267 26.3591 21.8067C26.3324 21.7733 26.3057 21.74 26.2791 21.7067C26.2524 21.6667 26.2324 21.6267 26.2191 21.5867C26.1991 21.5467 26.1857 21.5067 26.1791 21.46C26.1591 21.38 26.1591 21.2933 26.1791 21.2067C26.1857 21.16 26.1991 21.12 26.2191 21.08C26.2324 21.04 26.2524 21 26.2791 20.9667C26.3057 20.9267 26.3324 20.8933 26.3591 20.86C26.4857 20.74 26.6591 20.6667 26.8324 20.6667C26.8791 20.6667 26.9191 20.6733 26.9657 20.68C27.0057 20.6867 27.0457 20.7 27.0857 20.72C27.1257 20.7333 27.1657 20.7533 27.2057 20.78C27.2391 20.8067 27.2724 20.8333 27.3057 20.86C27.3324 20.8933 27.3657 20.9267 27.3857 20.9667C27.4124 21 27.4324 21.04 27.4457 21.08C27.4657 21.12 27.4791 21.16 27.4857 21.2067C27.4924 21.2467 27.4991 21.2933 27.4991 21.3333Z" fill="#F5F5F5"/>
</g>
<g filter="url(#filter9_d_766_36231)">
<path d="M27.5006 32.6666C27.5006 32.84 27.4272 33.0133 27.3072 33.14C27.1806 33.26 27.0072 33.3333 26.8339 33.3333C26.6606 33.3333 26.4872 33.26 26.3606 33.14C26.1739 32.9533 26.1139 32.66 26.2206 32.4133C26.2539 32.3266 26.3006 32.26 26.3606 32.1933C26.4872 32.0733 26.6606 32 26.8339 32C27.0072 32 27.1806 32.0733 27.3072 32.1933C27.4272 32.32 27.5006 32.4933 27.5006 32.6666Z" fill="#F5F5F5"/>
</g>
<g filter="url(#filter10_d_766_36231)">
<path d="M29.333 21.3333C29.333 21.4666 29.2797 21.5933 29.1863 21.6867C29.093 21.78 28.9663 21.8333 28.833 21.8333C28.7663 21.8333 28.7063 21.82 28.6397 21.7933C28.5797 21.7666 28.5263 21.7333 28.4797 21.6867C28.3397 21.5467 28.293 21.3267 28.373 21.14C28.3997 21.08 28.433 21.0266 28.4797 20.98C28.5263 20.9333 28.5797 20.9 28.6397 20.8733C28.7063 20.8466 28.7663 20.8333 28.833 20.8333C28.9663 20.8333 29.093 20.8866 29.1863 20.98C29.233 21.0266 29.2663 21.08 29.293 21.14C29.3197 21.2067 29.333 21.2666 29.333 21.3333Z" fill="#F5F5F5"/>
</g>
<g filter="url(#filter11_d_766_36231)">
<path d="M29.3332 32.6667C29.3332 32.8 29.2798 32.9267 29.1865 33.02C29.1398 33.0667 29.0865 33.1067 29.0265 33.1267C28.9665 33.1534 28.8998 33.1667 28.8332 33.1667C28.7665 33.1667 28.7065 33.1534 28.6398 33.1267C28.5798 33.1067 28.5265 33.0667 28.4798 33.02C28.2932 32.84 28.2932 32.5 28.4798 32.3133C28.5265 32.2667 28.5798 32.2334 28.6398 32.2067C28.7065 32.18 28.7665 32.1667 28.8332 32.1667C28.8998 32.1667 28.9665 32.18 29.0265 32.2067C29.0865 32.2334 29.1398 32.2667 29.1865 32.3133C29.2798 32.4067 29.3332 32.5334 29.3332 32.6667Z" fill="#F5F5F5"/>
</g>
<g filter="url(#filter12_d_766_36231)">
<path d="M30.9996 21.3334C30.9996 21.38 30.9929 21.42 30.9729 21.46C30.9596 21.5 30.9329 21.54 30.8996 21.5667C30.8396 21.6333 30.7529 21.6667 30.6662 21.6667C30.5796 21.6667 30.4929 21.6333 30.4329 21.5667C30.3062 21.4467 30.3062 21.22 30.4329 21.1C30.4929 21.0334 30.5796 21 30.6662 21C30.7529 21 30.8396 21.0334 30.8996 21.1C30.9662 21.16 30.9996 21.2467 30.9996 21.3334Z" fill="#F5F5F5"/>
</g>
<g filter="url(#filter13_d_766_36231)">
<path d="M30.9996 32.6667C30.9996 32.7533 30.9662 32.84 30.8996 32.9C30.8396 32.9667 30.7529 33 30.6662 33C30.5796 33 30.4929 32.9667 30.4329 32.9C30.3062 32.78 30.3062 32.5533 30.4329 32.4333C30.4929 32.3667 30.5796 32.3333 30.6662 32.3333C30.7529 32.3333 30.8396 32.3667 30.8996 32.4333C30.9662 32.4933 30.9996 32.58 30.9996 32.6667Z" fill="#F5F5F5"/>
</g>
<g filter="url(#filter14_d_766_36231)">
<path d="M23.6664 29.8333C23.6664 29.9 23.6597 29.9666 23.6464 30.0266C23.633 30.0933 23.613 30.1533 23.5864 30.2133C23.5664 30.28 23.533 30.3333 23.4997 30.3867C23.4597 30.4467 23.4197 30.4933 23.373 30.54C23.1864 30.7266 22.9264 30.8333 22.6664 30.8333C22.4064 30.8333 22.1464 30.7266 21.9597 30.54C21.5864 30.1666 21.5864 29.5 21.9597 29.1266C22.1464 28.94 22.3997 28.8333 22.6664 28.8333C22.933 28.8333 23.1864 28.94 23.373 29.1266C23.4197 29.1733 23.4597 29.2266 23.4997 29.28C23.533 29.3333 23.5664 29.3933 23.5864 29.4533C23.613 29.5133 23.633 29.5733 23.6464 29.64C23.6597 29.7 23.6664 29.7666 23.6664 29.8333Z" fill="#F5F5F5"/>
</g>
<g filter="url(#filter15_d_766_36231)">
<path d="M23.666 24.1667C23.666 24.2334 23.6594 24.3 23.646 24.36C23.6327 24.4267 23.6127 24.4867 23.586 24.5467C23.566 24.6067 23.5327 24.6667 23.4994 24.72C23.4594 24.7734 23.4193 24.8267 23.3727 24.8734C23.326 24.92 23.2727 24.96 23.2194 25C23.166 25.0334 23.106 25.0667 23.046 25.0934C22.986 25.1134 22.926 25.1333 22.8593 25.1467C22.7993 25.16 22.7327 25.1667 22.666 25.1667C22.406 25.1667 22.146 25.06 21.9594 24.8734C21.9127 24.8267 21.8727 24.7734 21.8327 24.72C21.7993 24.6667 21.766 24.6067 21.746 24.5467C21.7193 24.4867 21.6993 24.4267 21.686 24.36C21.6593 24.2333 21.6593 24.1 21.686 23.9734C21.6993 23.9067 21.7193 23.8467 21.746 23.7867C21.766 23.7267 21.7993 23.6667 21.8327 23.6133C21.8727 23.56 21.9127 23.5067 21.9594 23.46C22.146 23.2734 22.406 23.1667 22.666 23.1667C22.7327 23.1667 22.7993 23.1734 22.8593 23.1867C22.926 23.2 22.986 23.22 23.046 23.24C23.106 23.2667 23.166 23.3 23.2194 23.3334C23.2727 23.3734 23.326 23.4134 23.3727 23.46C23.4193 23.5067 23.4594 23.56 23.4994 23.6133C23.5327 23.6667 23.566 23.7267 23.586 23.7867C23.6127 23.8467 23.6327 23.9067 23.646 23.9734C23.6594 24.0334 23.666 24.1 23.666 24.1667Z" fill="#F5F5F5"/>
</g>
<g filter="url(#filter16_d_766_36231)">
<path d="M26.5003 29.8333C26.5003 29.9 26.4937 29.9666 26.4803 30.0266C26.467 30.0933 26.447 30.1533 26.427 30.2133C26.4003 30.2733 26.367 30.3333 26.3337 30.3867C26.2937 30.4467 26.2537 30.4933 26.207 30.54C26.0203 30.7266 25.7603 30.8333 25.5003 30.8333C25.2337 30.8333 24.9803 30.7266 24.7937 30.54C24.4203 30.1666 24.4203 29.5 24.7937 29.1266C24.9803 28.94 25.2337 28.8333 25.5003 28.8333C25.767 28.8333 26.0203 28.94 26.207 29.1266C26.3937 29.3133 26.5003 29.5733 26.5003 29.8333Z" fill="#F5F5F5"/>
</g>
<g filter="url(#filter17_d_766_36231)">
<path d="M26.5 24.1667C26.5 24.2334 26.4933 24.3 26.48 24.36C26.4667 24.4267 26.4467 24.4867 26.42 24.5467C26.4 24.6067 26.3667 24.6667 26.3333 24.72C26.2933 24.7734 26.2533 24.8267 26.2067 24.8734C26.16 24.92 26.1067 24.96 26.0533 25C26 25.0334 25.94 25.0667 25.88 25.0934C25.82 25.1134 25.76 25.1333 25.6933 25.1467C25.6333 25.16 25.5667 25.1667 25.5 25.1667C25.24 25.1667 24.98 25.06 24.7933 24.8734C24.7467 24.8267 24.7067 24.7734 24.6667 24.72C24.6333 24.6667 24.6 24.6067 24.58 24.5467C24.5533 24.4867 24.5333 24.4267 24.52 24.36C24.4933 24.2333 24.4933 24.1 24.52 23.9734C24.5333 23.9067 24.5533 23.8467 24.58 23.7867C24.6 23.7267 24.6333 23.6667 24.6667 23.6133C24.7067 23.56 24.7467 23.5067 24.7933 23.46C24.98 23.2734 25.24 23.1667 25.5 23.1667C25.5667 23.1667 25.6333 23.1734 25.6933 23.1867C25.76 23.2 25.82 23.22 25.88 23.24C25.94 23.2667 26 23.3 26.0533 23.3334C26.1067 23.3734 26.16 23.4134 26.2067 23.46C26.2533 23.5067 26.2933 23.56 26.3333 23.6133C26.3667 23.6667 26.4 23.7267 26.42 23.7867C26.4467 23.8467 26.4667 23.9067 26.48 23.9734C26.4933 24.0334 26.5 24.1 26.5 24.1667Z" fill="#F5F5F5"/>
</g>
<g filter="url(#filter18_d_766_36231)">
<path d="M28.8328 29.8333C28.8328 29.92 28.8128 30.0067 28.7795 30.0867C28.7461 30.1733 28.6995 30.2467 28.6395 30.3067C28.5728 30.3667 28.4995 30.4133 28.4195 30.4467C28.3395 30.48 28.2528 30.5 28.1662 30.5C27.9928 30.5 27.8195 30.4267 27.6928 30.3067C27.4461 30.06 27.4461 29.6067 27.6928 29.36C27.8195 29.24 27.9928 29.1667 28.1662 29.1667C28.2528 29.1667 28.3395 29.1867 28.4195 29.22C28.4995 29.2533 28.5728 29.3 28.6395 29.36C28.7595 29.4867 28.8328 29.66 28.8328 29.8333Z" fill="#F5F5F5"/>
</g>
<g filter="url(#filter19_d_766_36231)">
<path d="M28.8328 24.1666C28.8328 24.34 28.7595 24.5133 28.6395 24.64C28.5128 24.76 28.3395 24.8333 28.1662 24.8333C27.9928 24.8333 27.8195 24.76 27.6928 24.64C27.4461 24.3933 27.4461 23.9466 27.6928 23.6933C27.8195 23.5733 27.9928 23.5 28.1662 23.5C28.2128 23.5 28.2528 23.5067 28.2995 23.5133C28.3395 23.52 28.3795 23.5333 28.4195 23.5533C28.4595 23.5667 28.4995 23.5866 28.5328 23.6133C28.5728 23.64 28.6062 23.6666 28.6395 23.6933C28.7595 23.82 28.8328 23.9933 28.8328 24.1666Z" fill="#F5F5F5"/>
</g>
<g filter="url(#filter20_d_766_36231)">
<path d="M30.834 29.8333C30.834 29.9666 30.7807 30.0933 30.6873 30.1867C30.6407 30.2333 30.5873 30.2666 30.5273 30.2933C30.4673 30.32 30.4007 30.3333 30.334 30.3333C30.2673 30.3333 30.2073 30.32 30.1407 30.2933C30.0807 30.2666 30.0273 30.2333 29.9807 30.1867C29.934 30.14 29.9007 30.0866 29.874 30.0266C29.8207 29.9066 29.8207 29.7667 29.874 29.64C29.9007 29.58 29.934 29.5266 29.9807 29.48C30.074 29.3866 30.2007 29.3333 30.334 29.3333C30.4007 29.3333 30.4673 29.3466 30.5273 29.3733C30.5873 29.4 30.6407 29.4333 30.6873 29.48C30.7807 29.5733 30.834 29.7 30.834 29.8333Z" fill="#F5F5F5"/>
</g>
<g filter="url(#filter21_d_766_36231)">
<path d="M30.834 24.1667C30.834 24.2334 30.8207 24.3 30.794 24.36C30.7673 24.42 30.734 24.4734 30.6873 24.52C30.6407 24.5667 30.5873 24.6067 30.5273 24.6267C30.4673 24.6534 30.4007 24.6667 30.334 24.6667C30.2673 24.6667 30.2007 24.6534 30.1407 24.6267C30.0807 24.6 30.0273 24.5667 29.9807 24.52C29.934 24.4734 29.9007 24.42 29.874 24.36C29.8207 24.24 29.8207 24.1 29.874 23.9734C29.9007 23.9134 29.934 23.86 29.9807 23.8133C30.0273 23.7667 30.0807 23.7334 30.1407 23.7067C30.2007 23.68 30.2673 23.6667 30.334 23.6667C30.4007 23.6667 30.4673 23.68 30.5273 23.7067C30.5873 23.7334 30.6407 23.7667 30.6873 23.8133C30.7807 23.9067 30.834 24.0334 30.834 24.1667Z" fill="#F5F5F5"/>
</g>
<g filter="url(#filter22_d_766_36231)">
<path d="M32.3335 29.8334C32.3335 29.92 32.3002 30.0067 32.2335 30.0667C32.1735 30.1333 32.0869 30.1667 32.0002 30.1667C31.9135 30.1667 31.8269 30.1333 31.7669 30.0667C31.6402 29.9467 31.6402 29.72 31.7669 29.6C31.8269 29.5334 31.9135 29.5 32.0002 29.5C32.0869 29.5 32.1735 29.5334 32.2335 29.6C32.3002 29.66 32.3335 29.7467 32.3335 29.8334Z" fill="#F5F5F5"/>
</g>
<g filter="url(#filter23_d_766_36231)">
<path d="M32.3335 24.1667C32.3335 24.2133 32.3269 24.2533 32.3069 24.2933C32.2936 24.3333 32.2669 24.3733 32.2335 24.4C32.2069 24.4333 32.1669 24.46 32.1269 24.4733C32.0869 24.4933 32.0469 24.5 32.0002 24.5C31.9135 24.5 31.8269 24.4667 31.7669 24.4C31.6402 24.28 31.6402 24.0533 31.7669 23.9333C31.8269 23.8667 31.9135 23.8333 32.0002 23.8333C32.0469 23.8333 32.0869 23.84 32.1269 23.86C32.1669 23.8733 32.2069 23.9 32.2335 23.9333C32.3002 23.9933 32.3335 24.08 32.3335 24.1667Z" fill="#F5F5F5"/>
</g>
<defs>
<filter id="filter0_d_766_36231" x="0.167969" y="6" width="42" height="42" filterUnits="userSpaceOnUse" color-interpolation-filters="sRGB">
<feFlood flood-opacity="0" result="BackgroundImageFix"/>
<feColorMatrix in="SourceAlpha" type="matrix" values="0 0 0 0 0 0 0 0 0 0 0 0 0 0 0 0 0 0 127 0" result="hardAlpha"/>
<feOffset/>
<feGaussianBlur stdDeviation="10"/>
<feComposite in2="hardAlpha" operator="out"/>
<feColorMatrix type="matrix" values="0 0 0 0 0.172549 0 0 0 0 0.905882 0 0 0 0 1 0 0 0 0.5 0"/>
<feBlend mode="normal" in2="BackgroundImageFix" result="effect1_dropShadow_766_36231"/>
<feBlend mode="normal" in="SourceGraphic" in2="effect1_dropShadow_766_36231" result="shape"/>
</filter>
<filter id="filter1_d_766_36231" x="3.16602" y="6" width="42" height="42" filterUnits="userSpaceOnUse" color-interpolation-filters="sRGB">
<feFlood flood-opacity="0" result="BackgroundImageFix"/>
<feColorMatrix in="SourceAlpha" type="matrix" values="0 0 0 0 0 0 0 0 0 0 0 0 0 0 0 0 0 0 127 0" result="hardAlpha"/>
<feOffset/>
<feGaussianBlur stdDeviation="10"/>
<feComposite in2="hardAlpha" operator="out"/>
<feColorMatrix type="matrix" values="0 0 0 0 0.172549 0 0 0 0 0.905882 0 0 0 0 1 0 0 0 0.5 0"/>
<feBlend mode="normal" in2="BackgroundImageFix" result="effect1_dropShadow_766_36231"/>
<feBlend mode="normal" in="SourceGraphic" in2="effect1_dropShadow_766_36231" result="shape"/>
</filter>
<filter id="filter2_d_766_36231" x="5.83398" y="6" width="42" height="42" filterUnits="userSpaceOnUse" color-interpolation-filters="sRGB">
<feFlood flood-opacity="0" result="BackgroundImageFix"/>
<feColorMatrix in="SourceAlpha" type="matrix" values="0 0 0 0 0 0 0 0 0 0 0 0 0 0 0 0 0 0 127 0" result="hardAlpha"/>
<feOffset/>
<feGaussianBlur stdDeviation="10"/>
<feComposite in2="hardAlpha" operator="out"/>
<feColorMatrix type="matrix" values="0 0 0 0 0.172549 0 0 0 0 0.905882 0 0 0 0 1 0 0 0 0.5 0"/>
<feBlend mode="normal" in2="BackgroundImageFix" result="effect1_dropShadow_766_36231"/>
<feBlend mode="normal" in="SourceGraphic" in2="effect1_dropShadow_766_36231" result="shape"/>
</filter>
<filter id="filter3_d_766_36231" x="8.83594" y="6.33337" width="41.332" height="41.3333" filterUnits="userSpaceOnUse" color-interpolation-filters="sRGB">
<feFlood flood-opacity="0" result="BackgroundImageFix"/>
<feColorMatrix in="SourceAlpha" type="matrix" values="0 0 0 0 0 0 0 0 0 0 0 0 0 0 0 0 0 0 127 0" result="hardAlpha"/>
<feOffset/>
<feGaussianBlur stdDeviation="10"/>
<feComposite in2="hardAlpha" operator="out"/>
<feColorMatrix type="matrix" values="0 0 0 0 0.172549 0 0 0 0 0.905882 0 0 0 0 1 0 0 0 0.5 0"/>
<feBlend mode="normal" in2="BackgroundImageFix" result="effect1_dropShadow_766_36231"/>
<feBlend mode="normal" in="SourceGraphic" in2="effect1_dropShadow_766_36231" result="shape"/>
</filter>
<filter id="filter4_d_766_36231" x="11.334" y="6.5" width="41" height="41" filterUnits="userSpaceOnUse" color-interpolation-filters="sRGB">
<feFlood flood-opacity="0" result="BackgroundImageFix"/>
<feColorMatrix in="SourceAlpha" type="matrix" values="0 0 0 0 0 0 0 0 0 0 0 0 0 0 0 0 0 0 127 0" result="hardAlpha"/>
<feOffset/>
<feGaussianBlur stdDeviation="10"/>
<feComposite in2="hardAlpha" operator="out"/>
<feColorMatrix type="matrix" values="0 0 0 0 0.172549 0 0 0 0 0.905882 0 0 0 0 1 0 0 0 0.5 0"/>
<feBlend mode="normal" in2="BackgroundImageFix" result="effect1_dropShadow_766_36231"/>
<feBlend mode="normal" in="SourceGraphic" in2="effect1_dropShadow_766_36231" result="shape"/>
</filter>
<filter id="filter5_d_766_36231" x="13.0508" y="6.66663" width="40.6621" height="40.6667" filterUnits="userSpaceOnUse" color-interpolation-filters="sRGB">
<feFlood flood-opacity="0" result="BackgroundImageFix"/>
<feColorMatrix in="SourceAlpha" type="matrix" values="0 0 0 0 0 0 0 0 0 0 0 0 0 0 0 0 0 0 127 0" result="hardAlpha"/>
<feOffset/>
<feGaussianBlur stdDeviation="10"/>
<feComposite in2="hardAlpha" operator="out"/>
<feColorMatrix type="matrix" values="0 0 0 0 0.172549 0 0 0 0 0.905882 0 0 0 0 1 0 0 0 0.5 0"/>
<feBlend mode="normal" in2="BackgroundImageFix" result="effect1_dropShadow_766_36231"/>
<feBlend mode="normal" in="SourceGraphic" in2="effect1_dropShadow_766_36231" result="shape"/>
</filter>
<filter id="filter6_d_766_36231" x="3.17969" y="11.6667" width="41.9863" height="42" filterUnits="userSpaceOnUse" color-interpolation-filters="sRGB">
<feFlood flood-opacity="0" result="BackgroundImageFix"/>
<feColorMatrix in="SourceAlpha" type="matrix" values="0 0 0 0 0 0 0 0 0 0 0 0 0 0 0 0 0 0 127 0" result="hardAlpha"/>
<feOffset/>
<feGaussianBlur stdDeviation="10"/>
<feComposite in2="hardAlpha" operator="out"/>
<feColorMatrix type="matrix" values="0 0 0 0 0.172549 0 0 0 0 0.905882 0 0 0 0 1 0 0 0 0.5 0"/>
<feBlend mode="normal" in2="BackgroundImageFix" result="effect1_dropShadow_766_36231"/>
<feBlend mode="normal" in="SourceGraphic" in2="effect1_dropShadow_766_36231" result="shape"/>
</filter>
<filter id="filter7_d_766_36231" x="3.16602" y="0.333313" width="42" height="42" filterUnits="userSpaceOnUse" color-interpolation-filters="sRGB">
<feFlood flood-opacity="0" result="BackgroundImageFix"/>
<feColorMatrix in="SourceAlpha" type="matrix" values="0 0 0 0 0 0 0 0 0 0 0 0 0 0 0 0 0 0 127 0" result="hardAlpha"/>
<feOffset/>
<feGaussianBlur stdDeviation="10"/>
<feComposite in2="hardAlpha" operator="out"/>
<feColorMatrix type="matrix" values="0 0 0 0 0.172549 0 0 0 0 0.905882 0 0 0 0 1 0 0 0 0.5 0"/>
<feBlend mode="normal" in2="BackgroundImageFix" result="effect1_dropShadow_766_36231"/>
<feBlend mode="normal" in="SourceGraphic" in2="effect1_dropShadow_766_36231" result="shape"/>
</filter>
<filter id="filter8_d_766_36231" x="6.16406" y="0.666687" width="41.3359" height="41.3333" filterUnits="userSpaceOnUse" color-interpolation-filters="sRGB">
<feFlood flood-opacity="0" result="BackgroundImageFix"/>
<feColorMatrix in="SourceAlpha" type="matrix" values="0 0 0 0 0 0 0 0 0 0 0 0 0 0 0 0 0 0 127 0" result="hardAlpha"/>
<feOffset/>
<feGaussianBlur stdDeviation="10"/>
<feComposite in2="hardAlpha" operator="out"/>
<feColorMatrix type="matrix" values="0 0 0 0 0.172549 0 0 0 0 0.905882 0 0 0 0 1 0 0 0 0.5 0"/>
<feBlend mode="normal" in2="BackgroundImageFix" result="effect1_dropShadow_766_36231"/>
<feBlend mode="normal" in="SourceGraphic" in2="effect1_dropShadow_766_36231" result="shape"/>
</filter>
<filter id="filter9_d_766_36231" x="6.16797" y="12" width="41.332" height="41.3333" filterUnits="userSpaceOnUse" color-interpolation-filters="sRGB">
<feFlood flood-opacity="0" result="BackgroundImageFix"/>
<feColorMatrix in="SourceAlpha" type="matrix" values="0 0 0 0 0 0 0 0 0 0 0 0 0 0 0 0 0 0 127 0" result="hardAlpha"/>
<feOffset/>
<feGaussianBlur stdDeviation="10"/>
<feComposite in2="hardAlpha" operator="out"/>
<feColorMatrix type="matrix" values="0 0 0 0 0.172549 0 0 0 0 0.905882 0 0 0 0 1 0 0 0 0.5 0"/>
<feBlend mode="normal" in2="BackgroundImageFix" result="effect1_dropShadow_766_36231"/>
<feBlend mode="normal" in="SourceGraphic" in2="effect1_dropShadow_766_36231" result="shape"/>
</filter>
<filter id="filter10_d_766_36231" x="8.33398" y="0.833313" width="40.998" height="41" filterUnits="userSpaceOnUse" color-interpolation-filters="sRGB">
<feFlood flood-opacity="0" result="BackgroundImageFix"/>
<feColorMatrix in="SourceAlpha" type="matrix" values="0 0 0 0 0 0 0 0 0 0 0 0 0 0 0 0 0 0 127 0" result="hardAlpha"/>
<feOffset/>
<feGaussianBlur stdDeviation="10"/>
<feComposite in2="hardAlpha" operator="out"/>
<feColorMatrix type="matrix" values="0 0 0 0 0.172549 0 0 0 0 0.905882 0 0 0 0 1 0 0 0 0.5 0"/>
<feBlend mode="normal" in2="BackgroundImageFix" result="effect1_dropShadow_766_36231"/>
<feBlend mode="normal" in="SourceGraphic" in2="effect1_dropShadow_766_36231" result="shape"/>
</filter>
<filter id="filter11_d_766_36231" x="8.33984" y="12.1667" width="40.9941" height="41" filterUnits="userSpaceOnUse" color-interpolation-filters="sRGB">
<feFlood flood-opacity="0" result="BackgroundImageFix"/>
<feColorMatrix in="SourceAlpha" type="matrix" values="0 0 0 0 0 0 0 0 0 0 0 0 0 0 0 0 0 0 127 0" result="hardAlpha"/>
<feOffset/>
<feGaussianBlur stdDeviation="10"/>
<feComposite in2="hardAlpha" operator="out"/>
<feColorMatrix type="matrix" values="0 0 0 0 0.172549 0 0 0 0 0.905882 0 0 0 0 1 0 0 0 0.5 0"/>
<feBlend mode="normal" in2="BackgroundImageFix" result="effect1_dropShadow_766_36231"/>
<feBlend mode="normal" in="SourceGraphic" in2="effect1_dropShadow_766_36231" result="shape"/>
</filter>
<filter id="filter12_d_766_36231" x="10.3379" y="1" width="40.6621" height="40.6667" filterUnits="userSpaceOnUse" color-interpolation-filters="sRGB">
<feFlood flood-opacity="0" result="BackgroundImageFix"/>
<feColorMatrix in="SourceAlpha" type="matrix" values="0 0 0 0 0 0 0 0 0 0 0 0 0 0 0 0 0 0 127 0" result="hardAlpha"/>
<feOffset/>
<feGaussianBlur stdDeviation="10"/>
<feComposite in2="hardAlpha" operator="out"/>
<feColorMatrix type="matrix" values="0 0 0 0 0.172549 0 0 0 0 0.905882 0 0 0 0 1 0 0 0 0.5 0"/>
<feBlend mode="normal" in2="BackgroundImageFix" result="effect1_dropShadow_766_36231"/>
<feBlend mode="normal" in="SourceGraphic" in2="effect1_dropShadow_766_36231" result="shape"/>
</filter>
<filter id="filter13_d_766_36231" x="10.3379" y="12.3333" width="40.6621" height="40.6667" filterUnits="userSpaceOnUse" color-interpolation-filters="sRGB">
<feFlood flood-opacity="0" result="BackgroundImageFix"/>
<feColorMatrix in="SourceAlpha" type="matrix" values="0 0 0 0 0 0 0 0 0 0 0 0 0 0 0 0 0 0 127 0" result="hardAlpha"/>
<feOffset/>
<feGaussianBlur stdDeviation="10"/>
<feComposite in2="hardAlpha" operator="out"/>
<feColorMatrix type="matrix" values="0 0 0 0 0.172549 0 0 0 0 0.905882 0 0 0 0 1 0 0 0 0.5 0"/>
<feBlend mode="normal" in2="BackgroundImageFix" result="effect1_dropShadow_766_36231"/>
<feBlend mode="normal" in="SourceGraphic" in2="effect1_dropShadow_766_36231" result="shape"/>
</filter>
<filter id="filter14_d_766_36231" x="1.67969" y="8.83331" width="41.9863" height="42" filterUnits="userSpaceOnUse" color-interpolation-filters="sRGB">
<feFlood flood-opacity="0" result="BackgroundImageFix"/>
<feColorMatrix in="SourceAlpha" type="matrix" values="0 0 0 0 0 0 0 0 0 0 0 0 0 0 0 0 0 0 127 0" result="hardAlpha"/>
<feOffset/>
<feGaussianBlur stdDeviation="10"/>
<feComposite in2="hardAlpha" operator="out"/>
<feColorMatrix type="matrix" values="0 0 0 0 0.172549 0 0 0 0 0.905882 0 0 0 0 1 0 0 0 0.5 0"/>
<feBlend mode="normal" in2="BackgroundImageFix" result="effect1_dropShadow_766_36231"/>
<feBlend mode="normal" in="SourceGraphic" in2="effect1_dropShadow_766_36231" result="shape"/>
</filter>
<filter id="filter15_d_766_36231" x="1.66602" y="3.16669" width="42" height="42" filterUnits="userSpaceOnUse" color-interpolation-filters="sRGB">
<feFlood flood-opacity="0" result="BackgroundImageFix"/>
<feColorMatrix in="SourceAlpha" type="matrix" values="0 0 0 0 0 0 0 0 0 0 0 0 0 0 0 0 0 0 127 0" result="hardAlpha"/>
<feOffset/>
<feGaussianBlur stdDeviation="10"/>
<feComposite in2="hardAlpha" operator="out"/>
<feColorMatrix type="matrix" values="0 0 0 0 0.172549 0 0 0 0 0.905882 0 0 0 0 1 0 0 0 0.5 0"/>
<feBlend mode="normal" in2="BackgroundImageFix" result="effect1_dropShadow_766_36231"/>
<feBlend mode="normal" in="SourceGraphic" in2="effect1_dropShadow_766_36231" result="shape"/>
</filter>
<filter id="filter16_d_766_36231" x="4.51367" y="8.83331" width="41.9863" height="42" filterUnits="userSpaceOnUse" color-interpolation-filters="sRGB">
<feFlood flood-opacity="0" result="BackgroundImageFix"/>
<feColorMatrix in="SourceAlpha" type="matrix" values="0 0 0 0 0 0 0 0 0 0 0 0 0 0 0 0 0 0 127 0" result="hardAlpha"/>
<feOffset/>
<feGaussianBlur stdDeviation="10"/>
<feComposite in2="hardAlpha" operator="out"/>
<feColorMatrix type="matrix" values="0 0 0 0 0.172549 0 0 0 0 0.905882 0 0 0 0 1 0 0 0 0.5 0"/>
<feBlend mode="normal" in2="BackgroundImageFix" result="effect1_dropShadow_766_36231"/>
<feBlend mode="normal" in="SourceGraphic" in2="effect1_dropShadow_766_36231" result="shape"/>
</filter>
<filter id="filter17_d_766_36231" x="4.5" y="3.16669" width="42" height="42" filterUnits="userSpaceOnUse" color-interpolation-filters="sRGB">
<feFlood flood-opacity="0" result="BackgroundImageFix"/>
<feColorMatrix in="SourceAlpha" type="matrix" values="0 0 0 0 0 0 0 0 0 0 0 0 0 0 0 0 0 0 127 0" result="hardAlpha"/>
<feOffset/>
<feGaussianBlur stdDeviation="10"/>
<feComposite in2="hardAlpha" operator="out"/>
<feColorMatrix type="matrix" values="0 0 0 0 0.172549 0 0 0 0 0.905882 0 0 0 0 1 0 0 0 0.5 0"/>
<feBlend mode="normal" in2="BackgroundImageFix" result="effect1_dropShadow_766_36231"/>
<feBlend mode="normal" in="SourceGraphic" in2="effect1_dropShadow_766_36231" result="shape"/>
</filter>
<filter id="filter18_d_766_36231" x="7.50781" y="9.16669" width="41.3242" height="41.3333" filterUnits="userSpaceOnUse" color-interpolation-filters="sRGB">
<feFlood flood-opacity="0" result="BackgroundImageFix"/>
<feColorMatrix in="SourceAlpha" type="matrix" values="0 0 0 0 0 0 0 0 0 0 0 0 0 0 0 0 0 0 127 0" result="hardAlpha"/>
<feOffset/>
<feGaussianBlur stdDeviation="10"/>
<feComposite in2="hardAlpha" operator="out"/>
<feColorMatrix type="matrix" values="0 0 0 0 0.172549 0 0 0 0 0.905882 0 0 0 0 1 0 0 0 0.5 0"/>
<feBlend mode="normal" in2="BackgroundImageFix" result="effect1_dropShadow_766_36231"/>
<feBlend mode="normal" in="SourceGraphic" in2="effect1_dropShadow_766_36231" result="shape"/>
</filter>
<filter id="filter19_d_766_36231" x="7.50781" y="3.5" width="41.3242" height="41.3333" filterUnits="userSpaceOnUse" color-interpolation-filters="sRGB">
<feFlood flood-opacity="0" result="BackgroundImageFix"/>
<feColorMatrix in="SourceAlpha" type="matrix" values="0 0 0 0 0 0 0 0 0 0 0 0 0 0 0 0 0 0 127 0" result="hardAlpha"/>
<feOffset/>
<feGaussianBlur stdDeviation="10"/>
<feComposite in2="hardAlpha" operator="out"/>
<feColorMatrix type="matrix" values="0 0 0 0 0.172549 0 0 0 0 0.905882 0 0 0 0 1 0 0 0 0.5 0"/>
<feBlend mode="normal" in2="BackgroundImageFix" result="effect1_dropShadow_766_36231"/>
<feBlend mode="normal" in="SourceGraphic" in2="effect1_dropShadow_766_36231" result="shape"/>
</filter>
<filter id="filter20_d_766_36231" x="9.83398" y="9.33331" width="41" height="41" filterUnits="userSpaceOnUse" color-interpolation-filters="sRGB">
<feFlood flood-opacity="0" result="BackgroundImageFix"/>
<feColorMatrix in="SourceAlpha" type="matrix" values="0 0 0 0 0 0 0 0 0 0 0 0 0 0 0 0 0 0 127 0" result="hardAlpha"/>
<feOffset/>
<feGaussianBlur stdDeviation="10"/>
<feComposite in2="hardAlpha" operator="out"/>
<feColorMatrix type="matrix" values="0 0 0 0 0.172549 0 0 0 0 0.905882 0 0 0 0 1 0 0 0 0.5 0"/>
<feBlend mode="normal" in2="BackgroundImageFix" result="effect1_dropShadow_766_36231"/>
<feBlend mode="normal" in="SourceGraphic" in2="effect1_dropShadow_766_36231" result="shape"/>
</filter>
<filter id="filter21_d_766_36231" x="9.83398" y="3.66669" width="41" height="41" filterUnits="userSpaceOnUse" color-interpolation-filters="sRGB">
<feFlood flood-opacity="0" result="BackgroundImageFix"/>
<feColorMatrix in="SourceAlpha" type="matrix" values="0 0 0 0 0 0 0 0 0 0 0 0 0 0 0 0 0 0 127 0" result="hardAlpha"/>
<feOffset/>
<feGaussianBlur stdDeviation="10"/>
<feComposite in2="hardAlpha" operator="out"/>
<feColorMatrix type="matrix" values="0 0 0 0 0.172549 0 0 0 0 0.905882 0 0 0 0 1 0 0 0 0.5 0"/>
<feBlend mode="normal" in2="BackgroundImageFix" result="effect1_dropShadow_766_36231"/>
<feBlend mode="normal" in="SourceGraphic" in2="effect1_dropShadow_766_36231" result="shape"/>
</filter>
<filter id="filter22_d_766_36231" x="11.6719" y="9.5" width="40.6621" height="40.6667" filterUnits="userSpaceOnUse" color-interpolation-filters="sRGB">
<feFlood flood-opacity="0" result="BackgroundImageFix"/>
<feColorMatrix in="SourceAlpha" type="matrix" values="0 0 0 0 0 0 0 0 0 0 0 0 0 0 0 0 0 0 127 0" result="hardAlpha"/>
<feOffset/>
<feGaussianBlur stdDeviation="10"/>
<feComposite in2="hardAlpha" operator="out"/>
<feColorMatrix type="matrix" values="0 0 0 0 0.172549 0 0 0 0 0.905882 0 0 0 0 1 0 0 0 0.5 0"/>
<feBlend mode="normal" in2="BackgroundImageFix" result="effect1_dropShadow_766_36231"/>
<feBlend mode="normal" in="SourceGraphic" in2="effect1_dropShadow_766_36231" result="shape"/>
</filter>
<filter id="filter23_d_766_36231" x="11.6719" y="3.83331" width="40.6621" height="40.6667" filterUnits="userSpaceOnUse" color-interpolation-filters="sRGB">
<feFlood flood-opacity="0" result="BackgroundImageFix"/>
<feColorMatrix in="SourceAlpha" type="matrix" values="0 0 0 0 0 0 0 0 0 0 0 0 0 0 0 0 0 0 127 0" result="hardAlpha"/>
<feOffset/>
<feGaussianBlur stdDeviation="10"/>
<feComposite in2="hardAlpha" operator="out"/>
<feColorMatrix type="matrix" values="0 0 0 0 0.172549 0 0 0 0 0.905882 0 0 0 0 1 0 0 0 0.5 0"/>
<feBlend mode="normal" in2="BackgroundImageFix" result="effect1_dropShadow_766_36231"/>
<feBlend mode="normal" in="SourceGraphic" in2="effect1_dropShadow_766_36231" result="shape"/>
</filter>
</defs>
</svg>
