<svg width="24" height="24" viewBox="0 0 24 24" fill="none" xmlns="http://www.w3.org/2000/svg">
<path d="M4.74937 12C4.74937 12.1 4.73937 12.2 4.71937 12.29C4.69937 12.39 4.66936 12.48 4.63936 12.57C4.59936 12.66 4.54937 12.75 4.49937 12.83C4.43937 12.91 4.37936 12.99 4.30936 13.06C4.02936 13.34 3.64937 13.5 3.24937 13.5C2.84937 13.5 2.46937 13.34 2.18937 13.06C2.11937 12.99 2.05937 12.91 1.99937 12.83C1.94937 12.75 1.89936 12.66 1.86936 12.57C1.82936 12.48 1.79936 12.39 1.77936 12.29C1.67936 11.81 1.83937 11.29 2.18937 10.94C2.46937 10.66 2.84937 10.5 3.24937 10.5C3.64937 10.5 4.02936 10.66 4.30936 10.94C4.58936 11.22 4.74937 11.61 4.74937 12Z" fill="#2CE7FF"/>
<path d="M9.25 12C9.25 12.1 9.24 12.2 9.22 12.29C9.2 12.39 9.17 12.48 9.14 12.57C9.1 12.66 9.05 12.75 9 12.83C8.94 12.91 8.88 12.99 8.81 13.06C8.53 13.34 8.15 13.5 7.75 13.5C7.35 13.5 6.97 13.34 6.69 13.06C6.62 12.99 6.56 12.91 6.5 12.83C6.45 12.75 6.4 12.66 6.37 12.57C6.33 12.48 6.3 12.39 6.28 12.29C6.24 12.1 6.24 11.9 6.28 11.71C6.3 11.61 6.33 11.52 6.37 11.43C6.4 11.34 6.45 11.25 6.5 11.17C6.56 11.09 6.62 11.01 6.69 10.94C6.97 10.66 7.35 10.5 7.75 10.5C8.15 10.5 8.53 10.66 8.81 10.94C8.88 11.01 8.94 11.09 9 11.17C9.05 11.25 9.1 11.34 9.14 11.43C9.17 11.52 9.2 11.61 9.22 11.71C9.24 11.8 9.25 11.9 9.25 12Z" fill="#2CE7FF"/>
<path d="M13.2494 12C13.2494 12.1 13.2394 12.2 13.2194 12.29C13.1994 12.39 13.1694 12.48 13.1394 12.57C13.0994 12.66 13.0494 12.75 12.9994 12.83C12.9394 12.91 12.8794 12.99 12.8094 13.06C12.7394 13.13 12.6694 13.19 12.5794 13.25C12.4994 13.3 12.4094 13.35 12.3194 13.39C12.2294 13.42 12.1394 13.45 12.0394 13.47C11.9494 13.49 11.8494 13.5 11.7494 13.5C11.3494 13.5 10.9694 13.34 10.6894 13.06C10.6194 12.99 10.5594 12.91 10.4994 12.83C10.4494 12.75 10.3994 12.66 10.3594 12.57C10.3294 12.48 10.2994 12.39 10.2794 12.29C10.1794 11.81 10.3394 11.29 10.6894 10.94C10.9694 10.66 11.3494 10.5 11.7494 10.5C11.8494 10.5 11.9494 10.51 12.0394 10.53C12.1394 10.55 12.2294 10.58 12.3194 10.62C12.4094 10.65 12.4994 10.7 12.5794 10.75C12.6694 10.81 12.7394 10.87 12.8094 10.94C12.8794 11.01 12.9394 11.09 12.9994 11.17C13.0494 11.25 13.0994 11.34 13.1394 11.43C13.1694 11.52 13.1994 11.61 13.2194 11.71C13.2394 11.8 13.2494 11.9 13.2494 12Z" fill="#2CE7FF"/>
<path d="M16.749 12C16.749 12.26 16.639 12.52 16.459 12.71C16.269 12.89 16.009 13 15.749 13C15.489 13 15.229 12.89 15.039 12.71C14.809 12.48 14.709 12.13 14.769 11.81C14.779 11.74 14.799 11.68 14.829 11.62C14.849 11.56 14.879 11.5 14.919 11.45C14.959 11.39 14.999 11.34 15.039 11.29C15.229 11.11 15.489 11 15.749 11C16.009 11 16.269 11.11 16.459 11.29C16.499 11.34 16.539 11.39 16.579 11.45C16.619 11.5 16.649 11.56 16.669 11.62C16.699 11.68 16.719 11.74 16.729 11.81C16.739 11.87 16.749 11.94 16.749 12Z" fill="#2CE7FF"/>
<path d="M20 12C20 12.1 19.98 12.2 19.94 12.29C19.9 12.38 19.85 12.46 19.78 12.53C19.71 12.6 19.63 12.66 19.54 12.69C19.45 12.73 19.35 12.75 19.25 12.75C19.05 12.75 18.86 12.67 18.72 12.53C18.65 12.46 18.6 12.38 18.56 12.29C18.48 12.1 18.48 11.9 18.56 11.71C18.6 11.62 18.65 11.54 18.72 11.47C18.79 11.4 18.87 11.35 18.96 11.31C19.05 11.27 19.15 11.25 19.25 11.25C19.35 11.25 19.45 11.27 19.54 11.31C19.63 11.35 19.71 11.4 19.78 11.47C19.85 11.54 19.9 11.62 19.94 11.71C19.98 11.81 20 11.9 20 12Z" fill="#2CE7FF"/>
<path d="M22.0706 12C22.0706 12.13 22.0206 12.26 21.9206 12.35C21.8306 12.45 21.7006 12.5 21.5706 12.5C21.4406 12.5 21.3106 12.45 21.2206 12.35C21.0306 12.17 21.0306 11.83 21.2206 11.65C21.3106 11.55 21.4406 11.5 21.5706 11.5C21.7006 11.5 21.8306 11.55 21.9206 11.65C22.0206 11.74 22.0706 11.87 22.0706 12Z" fill="#2CE7FF"/>
<path d="M9.24953 20.5C9.24953 20.9 9.08953 21.28 8.80953 21.56C8.52953 21.84 8.14953 22 7.74953 22C7.35953 22 6.96953 21.84 6.68953 21.56C6.12953 21.01 6.12953 20 6.68953 19.44C6.96953 19.16 7.35953 19 7.74953 19C8.14953 19 8.52953 19.16 8.80953 19.44C8.87953 19.51 8.93953 19.59 8.99953 19.67C9.04953 19.75 9.09953 19.84 9.12953 19.93C9.16953 20.02 9.19953 20.11 9.21953 20.21C9.23953 20.3 9.24953 20.4 9.24953 20.5Z" fill="#2CE7FF"/>
<path d="M9.25 3.5C9.25 3.89 9.09 4.28 8.81 4.56C8.53 4.84 8.14 5 7.75 5C7.65 5 7.55001 4.98997 7.46001 4.96997C7.36001 4.94997 7.26999 4.92001 7.17999 4.89001C7.08999 4.85001 7 4.8 6.92 4.75C6.84 4.69 6.76 4.63 6.69 4.56C6.62 4.49 6.56 4.41002 6.5 4.33002C6.45 4.25002 6.4 4.16001 6.37 4.07001C6.33 3.98001 6.3 3.88998 6.28 3.78998C6.24 3.59998 6.24 3.40002 6.28 3.21002C6.3 3.11002 6.33 3.01999 6.37 2.92999C6.4 2.83999 6.45 2.74998 6.5 2.66998C6.56 2.58998 6.62 2.51 6.69 2.44C6.76 2.37 6.84 2.31 6.92 2.25C7 2.2 7.08999 2.15 7.17999 2.12C7.26999 2.08 7.36001 2.05003 7.46001 2.03003C7.55001 2.01003 7.65 2 7.75 2C8.15 2 8.53 2.16 8.81 2.44C8.88 2.51 8.94 2.58998 9 2.66998C9.05 2.74998 9.1 2.83999 9.14 2.92999C9.17 3.01999 9.2 3.11002 9.22 3.21002C9.24 3.31002 9.25 3.4 9.25 3.5Z" fill="#2CE7FF"/>
<path d="M12.7505 3.5C12.7505 3.56 12.7405 3.63 12.7305 3.69C12.7205 3.76 12.7005 3.82 12.6705 3.88C12.6505 3.94 12.6205 4 12.5805 4.06C12.5505 4.11 12.5005 4.16002 12.4605 4.21002C12.4105 4.25002 12.3605 4.30002 12.3105 4.33002C12.2505 4.37002 12.1905 4.39998 12.1305 4.41998C12.0705 4.44998 12.0105 4.46998 11.9505 4.47998C11.8805 4.48998 11.8205 4.5 11.7505 4.5C11.4905 4.5 11.2305 4.39002 11.0405 4.21002C11.0005 4.16002 10.9605 4.11 10.9205 4.06C10.8805 4 10.8505 3.94 10.8305 3.88C10.8005 3.82 10.7805 3.76 10.7705 3.69C10.7405 3.57 10.7405 3.44 10.7705 3.31C10.7805 3.24 10.8005 3.18 10.8305 3.12C10.8505 3.06 10.8805 3.00001 10.9205 2.95001C10.9605 2.89001 11.0005 2.83998 11.0405 2.78998C11.2305 2.60998 11.4905 2.5 11.7505 2.5C11.8205 2.5 11.8805 2.51002 11.9505 2.52002C12.0105 2.53002 12.0705 2.55002 12.1305 2.58002C12.1905 2.60002 12.2505 2.62998 12.3105 2.66998C12.3605 2.70998 12.4105 2.74998 12.4605 2.78998C12.5005 2.83998 12.5505 2.89001 12.5805 2.95001C12.6205 3.00001 12.6505 3.06 12.6705 3.12C12.7005 3.17999 12.7205 3.24 12.7305 3.31C12.7405 3.37 12.7505 3.44 12.7505 3.5Z" fill="#2CE7FF"/>
<path d="M12.7508 20.5C12.7508 20.76 12.6408 21.02 12.4608 21.21C12.2708 21.39 12.0108 21.5 11.7508 21.5C11.4908 21.5 11.2308 21.39 11.0408 21.21C10.7608 20.93 10.6708 20.49 10.8308 20.12C10.8808 19.99 10.9508 19.89 11.0408 19.79C11.2308 19.61 11.4908 19.5 11.7508 19.5C12.0108 19.5 12.2708 19.61 12.4608 19.79C12.6408 19.98 12.7508 20.24 12.7508 20.5Z" fill="#2CE7FF"/>
<path d="M15.5005 3.5C15.5005 3.7 15.4205 3.89003 15.2805 4.03003C15.1405 4.17003 14.9505 4.25 14.7505 4.25C14.6505 4.25 14.5605 4.23 14.4605 4.19C14.3705 4.15 14.2905 4.10003 14.2205 4.03003C14.0105 3.82003 13.9405 3.49002 14.0605 3.21002C14.1005 3.12002 14.1505 3.03997 14.2205 2.96997C14.2905 2.89997 14.3705 2.85 14.4605 2.81C14.5605 2.77 14.6505 2.75 14.7505 2.75C14.9505 2.75 15.1405 2.82997 15.2805 2.96997C15.3505 3.03997 15.4005 3.12002 15.4405 3.21002C15.4805 3.31002 15.5005 3.4 15.5005 3.5Z" fill="#2CE7FF"/>
<path d="M15.4998 20.5C15.4998 20.7 15.4198 20.89 15.2798 21.03C15.2098 21.1 15.1298 21.16 15.0398 21.19C14.9498 21.23 14.8498 21.25 14.7498 21.25C14.6498 21.25 14.5598 21.23 14.4598 21.19C14.3698 21.16 14.2898 21.1 14.2198 21.03C13.9398 20.76 13.9398 20.25 14.2198 19.97C14.2898 19.9 14.3698 19.85 14.4598 19.81C14.5598 19.77 14.6498 19.75 14.7498 19.75C14.8498 19.75 14.9498 19.77 15.0398 19.81C15.1298 19.85 15.2098 19.9 15.2798 19.97C15.4198 20.11 15.4998 20.3 15.4998 20.5Z" fill="#2CE7FF"/>
<path d="M18.0003 3.5C18.0003 3.57 17.9903 3.63 17.9603 3.69C17.9403 3.75 17.9003 3.80998 17.8503 3.84998C17.7603 3.94998 17.6303 4 17.5003 4C17.3703 4 17.2403 3.94998 17.1503 3.84998C16.9603 3.66998 16.9603 3.33002 17.1503 3.15002C17.2403 3.05002 17.3703 3 17.5003 3C17.6303 3 17.7603 3.05002 17.8503 3.15002C17.9503 3.24002 18.0003 3.37 18.0003 3.5Z" fill="#2CE7FF"/>
<path d="M18.0003 20.5C18.0003 20.63 17.9503 20.76 17.8503 20.85C17.7603 20.95 17.6303 21 17.5003 21C17.3703 21 17.2403 20.95 17.1503 20.85C16.9603 20.67 16.9603 20.33 17.1503 20.15C17.2403 20.05 17.3703 20 17.5003 20C17.6303 20 17.7603 20.05 17.8503 20.15C17.9503 20.24 18.0003 20.37 18.0003 20.5Z" fill="#2CE7FF"/>
<path d="M6.99953 16.25C6.99953 16.35 6.98953 16.45 6.96953 16.54C6.94953 16.64 6.91953 16.73 6.87953 16.82C6.84953 16.92 6.79953 17 6.74953 17.08C6.68953 17.17 6.62953 17.24 6.55953 17.31C6.27953 17.59 5.88953 17.75 5.49953 17.75C5.10953 17.75 4.71953 17.59 4.43953 17.31C3.87953 16.75 3.87953 15.75 4.43953 15.19C4.71953 14.91 5.09953 14.75 5.49953 14.75C5.89953 14.75 6.27953 14.91 6.55953 15.19C6.62953 15.26 6.68953 15.34 6.74953 15.42C6.79953 15.5 6.84953 15.59 6.87953 15.68C6.91953 15.77 6.94953 15.86 6.96953 15.96C6.98953 16.05 6.99953 16.15 6.99953 16.25Z" fill="#2CE7FF"/>
<path d="M7 7.75C7 7.85 6.99 7.94998 6.97 8.03998C6.95 8.13998 6.92001 8.23001 6.88001 8.32001C6.85001 8.41001 6.8 8.50002 6.75 8.58002C6.69 8.66002 6.63 8.74 6.56 8.81C6.49 8.88 6.41 8.94 6.33 9C6.25 9.05 6.16001 9.10001 6.07001 9.14001C5.98001 9.17001 5.88999 9.19997 5.78999 9.21997C5.69999 9.23997 5.6 9.25 5.5 9.25C5.11 9.25 4.72 9.09 4.44 8.81C4.37 8.74 4.31 8.66002 4.25 8.58002C4.2 8.50002 4.15 8.41001 4.12 8.32001C4.08 8.23001 4.05 8.13998 4.03 8.03998C3.99 7.84998 3.99 7.65002 4.03 7.46002C4.05 7.36002 4.08 7.26999 4.12 7.17999C4.15 7.08999 4.2 6.99998 4.25 6.91998C4.31 6.83998 4.37 6.76 4.44 6.69C4.72 6.41 5.11 6.25 5.5 6.25C5.6 6.25 5.69999 6.26003 5.78999 6.28003C5.88999 6.30003 5.98001 6.32999 6.07001 6.35999C6.16001 6.39999 6.25 6.45 6.33 6.5C6.41 6.56 6.49 6.62 6.56 6.69C6.63 6.76 6.69 6.83998 6.75 6.91998C6.8 6.99998 6.85001 7.08999 6.88001 7.17999C6.92001 7.26999 6.95 7.36002 6.97 7.46002C6.99 7.55002 7 7.65 7 7.75Z" fill="#2CE7FF"/>
<path d="M11.2495 16.25C11.2495 16.35 11.2395 16.45 11.2195 16.54C11.1995 16.64 11.1695 16.73 11.1395 16.82C11.0995 16.91 11.0495 17 10.9995 17.08C10.9395 17.17 10.8795 17.24 10.8095 17.31C10.5295 17.59 10.1395 17.75 9.74953 17.75C9.34953 17.75 8.96953 17.59 8.68953 17.31C8.12953 16.75 8.12953 15.75 8.68953 15.19C8.96953 14.91 9.34953 14.75 9.74953 14.75C10.1495 14.75 10.5295 14.91 10.8095 15.19C11.0895 15.47 11.2495 15.86 11.2495 16.25Z" fill="#2CE7FF"/>
<path d="M11.25 7.75C11.25 7.85 11.24 7.94998 11.22 8.03998C11.2 8.13998 11.17 8.23001 11.13 8.32001C11.1 8.41001 11.05 8.50002 11 8.58002C10.94 8.66002 10.88 8.74 10.81 8.81C10.74 8.88 10.66 8.94 10.58 9C10.5 9.05 10.41 9.10001 10.32 9.14001C10.23 9.17001 10.14 9.19997 10.04 9.21997C9.94999 9.23997 9.85 9.25 9.75 9.25C9.36 9.25 8.97 9.09 8.69 8.81C8.62 8.74 8.56 8.66002 8.5 8.58002C8.45 8.50002 8.4 8.41001 8.37 8.32001C8.33 8.23001 8.3 8.13998 8.28 8.03998C8.24 7.84998 8.24 7.65002 8.28 7.46002C8.3 7.36002 8.33 7.26999 8.37 7.17999C8.4 7.08999 8.45 6.99998 8.5 6.91998C8.56 6.83998 8.62 6.76 8.69 6.69C8.97 6.41 9.36 6.25 9.75 6.25C9.85 6.25 9.94999 6.26003 10.04 6.28003C10.14 6.30003 10.23 6.32999 10.32 6.35999C10.41 6.39999 10.5 6.45 10.58 6.5C10.66 6.56 10.74 6.62 10.81 6.69C10.88 6.76 10.94 6.83998 11 6.91998C11.05 6.99998 11.1 7.08999 11.13 7.17999C11.17 7.26999 11.2 7.36002 11.22 7.46002C11.24 7.55002 11.25 7.65 11.25 7.75Z" fill="#2CE7FF"/>
<path d="M14.7492 16.25C14.7492 16.38 14.7192 16.51 14.6692 16.63C14.6192 16.76 14.5492 16.87 14.4592 16.96C14.3592 17.05 14.2492 17.12 14.1292 17.17C14.0092 17.22 13.8792 17.25 13.7492 17.25C13.4892 17.25 13.2292 17.14 13.0392 16.96C12.6692 16.59 12.6692 15.91 13.0392 15.54C13.2292 15.36 13.4892 15.25 13.7492 15.25C13.8792 15.25 14.0092 15.28 14.1292 15.33C14.2492 15.38 14.3592 15.45 14.4592 15.54C14.6392 15.73 14.7492 15.99 14.7492 16.25Z" fill="#2CE7FF"/>
<path d="M14.7492 7.75C14.7492 8.01 14.6392 8.27002 14.4592 8.46002C14.2692 8.64002 14.0092 8.75 13.7492 8.75C13.4892 8.75 13.2292 8.64002 13.0392 8.46002C12.6692 8.09002 12.6692 7.41998 13.0392 7.03998C13.2292 6.85998 13.4892 6.75 13.7492 6.75C13.8192 6.75 13.8792 6.76002 13.9492 6.77002C14.0092 6.78002 14.0692 6.80002 14.1292 6.83002C14.1892 6.85002 14.2492 6.87998 14.2992 6.91998C14.3592 6.95998 14.4092 6.99998 14.4592 7.03998C14.6392 7.22998 14.7492 7.49 14.7492 7.75Z" fill="#2CE7FF"/>
<path d="M17.75 16.25C17.75 16.45 17.67 16.64 17.53 16.78C17.46 16.85 17.38 16.9 17.29 16.94C17.2 16.98 17.1 17 17 17C16.9 17 16.81 16.98 16.71 16.94C16.62 16.9 16.54 16.85 16.47 16.78C16.4 16.71 16.35 16.63 16.31 16.54C16.23 16.36 16.23 16.15 16.31 15.96C16.35 15.87 16.4 15.79 16.47 15.72C16.61 15.58 16.8 15.5 17 15.5C17.1 15.5 17.2 15.52 17.29 15.56C17.38 15.6 17.46 15.65 17.53 15.72C17.67 15.86 17.75 16.05 17.75 16.25Z" fill="#2CE7FF"/>
<path d="M17.75 7.75C17.75 7.85 17.73 7.94998 17.69 8.03998C17.65 8.12998 17.6 8.21003 17.53 8.28003C17.46 8.35003 17.38 8.41 17.29 8.44C17.2 8.48 17.1 8.5 17 8.5C16.9 8.5 16.8 8.48 16.71 8.44C16.62 8.4 16.54 8.35003 16.47 8.28003C16.4 8.21003 16.35 8.12998 16.31 8.03998C16.23 7.85998 16.23 7.65002 16.31 7.46002C16.35 7.37002 16.4 7.28997 16.47 7.21997C16.54 7.14997 16.62 7.1 16.71 7.06C16.8 7.02 16.9 7 17 7C17.1 7 17.2 7.02 17.29 7.06C17.38 7.1 17.46 7.14997 17.53 7.21997C17.67 7.35997 17.75 7.55 17.75 7.75Z" fill="#2CE7FF"/>
<path d="M20.0003 16.25C20.0003 16.38 19.9503 16.51 19.8503 16.6C19.7603 16.7 19.6303 16.75 19.5003 16.75C19.3703 16.75 19.2403 16.7 19.1503 16.6C18.9603 16.42 18.9603 16.08 19.1503 15.9C19.2403 15.8 19.3703 15.75 19.5003 15.75C19.6303 15.75 19.7603 15.8 19.8503 15.9C19.9503 15.99 20.0003 16.12 20.0003 16.25Z" fill="#2CE7FF"/>
<path d="M20.0003 7.75C20.0003 7.82 19.9903 7.88 19.9603 7.94C19.9403 8 19.9003 8.05998 19.8503 8.09998C19.8103 8.14998 19.7503 8.19002 19.6903 8.21002C19.6303 8.24002 19.5703 8.25 19.5003 8.25C19.3703 8.25 19.2403 8.19998 19.1503 8.09998C18.9603 7.91998 18.9603 7.58002 19.1503 7.40002C19.2403 7.30002 19.3703 7.25 19.5003 7.25C19.5703 7.25 19.6303 7.25998 19.6903 7.28998C19.7503 7.30998 19.8103 7.35002 19.8503 7.40002C19.9503 7.49002 20.0003 7.62 20.0003 7.75Z" fill="#2CE7FF"/>
</svg>
