<svg width="55" height="54" viewBox="0 0 55 54" fill="none" xmlns="http://www.w3.org/2000/svg">
<g filter="url(#filter0_d_766_36200)">
<path d="M22.5015 27C22.5015 27.0667 22.4949 27.1333 22.4815 27.1933C22.4682 27.26 22.4482 27.32 22.4282 27.38C22.4015 27.44 22.3682 27.5 22.3349 27.5533C22.2949 27.6067 22.2549 27.66 22.2082 27.7067C22.0215 27.8933 21.7682 28 21.5015 28C21.2349 28 20.9815 27.8933 20.7949 27.7067C20.7482 27.66 20.7082 27.6067 20.6682 27.5533C20.6349 27.5 20.6015 27.44 20.5815 27.38C20.5549 27.32 20.5349 27.26 20.5215 27.1933C20.4549 26.8733 20.5615 26.5267 20.7949 26.2933C20.9815 26.1067 21.2349 26 21.5015 26C21.7682 26 22.0215 26.1067 22.2082 26.2933C22.3949 26.48 22.5015 26.74 22.5015 27Z" fill="#2CE7FF"/>
</g>
<g filter="url(#filter1_d_766_36200)">
<path d="M25.5 27C25.5 27.0667 25.4933 27.1333 25.48 27.1933C25.4667 27.26 25.4467 27.32 25.4267 27.38C25.4 27.44 25.3667 27.5 25.3333 27.5533C25.2933 27.6067 25.2533 27.66 25.2067 27.7067C25.02 27.8933 24.7667 28 24.5 28C24.2333 28 23.98 27.8933 23.7933 27.7067C23.7467 27.66 23.7067 27.6067 23.6667 27.5533C23.6333 27.5 23.6 27.44 23.58 27.38C23.5533 27.32 23.5333 27.26 23.52 27.1933C23.4933 27.0667 23.4933 26.9333 23.52 26.8067C23.5333 26.74 23.5533 26.68 23.58 26.62C23.6 26.56 23.6333 26.5 23.6667 26.4467C23.7067 26.3933 23.7467 26.34 23.7933 26.2933C23.98 26.1067 24.2333 26 24.5 26C24.7667 26 25.02 26.1067 25.2067 26.2933C25.2533 26.34 25.2933 26.3933 25.3333 26.4467C25.3667 26.5 25.4 26.56 25.4267 26.62C25.4467 26.68 25.4667 26.74 25.48 26.8067C25.4933 26.8667 25.5 26.9333 25.5 27Z" fill="#2CE7FF"/>
</g>
<g filter="url(#filter2_d_766_36200)">
<path d="M28.1675 27C28.1675 27.0667 28.1609 27.1333 28.1475 27.1933C28.1342 27.26 28.1142 27.32 28.0942 27.38C28.0675 27.44 28.0342 27.5 28.0009 27.5533C27.9609 27.6067 27.9209 27.66 27.8742 27.7067C27.8275 27.7533 27.7809 27.7933 27.7209 27.8333C27.6675 27.8667 27.6076 27.9 27.5476 27.9267C27.4876 27.9467 27.4275 27.9666 27.3609 27.98C27.3009 27.9933 27.2342 28 27.1675 28C26.9009 28 26.6475 27.8933 26.4609 27.7067C26.4142 27.66 26.3742 27.6067 26.3342 27.5533C26.3009 27.5 26.2675 27.44 26.2409 27.38C26.2209 27.32 26.2009 27.26 26.1875 27.1933C26.1209 26.8733 26.2275 26.5267 26.4609 26.2933C26.6475 26.1067 26.9009 26 27.1675 26C27.2342 26 27.3009 26.0067 27.3609 26.02C27.4275 26.0334 27.4876 26.0533 27.5476 26.08C27.6076 26.1 27.6675 26.1333 27.7209 26.1667C27.7809 26.2067 27.8275 26.2467 27.8742 26.2933C27.9209 26.34 27.9609 26.3933 28.0009 26.4467C28.0342 26.5 28.0675 26.56 28.0942 26.62C28.1142 26.68 28.1342 26.74 28.1475 26.8067C28.1609 26.8667 28.1675 26.9333 28.1675 27Z" fill="#2CE7FF"/>
</g>
<g filter="url(#filter3_d_766_36200)">
<path d="M30.5013 27C30.5013 27.1734 30.428 27.3467 30.308 27.4734C30.1813 27.5934 30.008 27.6667 29.8346 27.6667C29.6613 27.6667 29.488 27.5934 29.3613 27.4734C29.208 27.32 29.1413 27.0867 29.1813 26.8734C29.188 26.8267 29.2013 26.7867 29.2213 26.7467C29.2346 26.7067 29.2546 26.6667 29.2813 26.6334C29.308 26.5934 29.3346 26.56 29.3613 26.5267C29.488 26.4067 29.6613 26.3334 29.8346 26.3334C30.008 26.3334 30.1813 26.4067 30.308 26.5267C30.3346 26.56 30.3613 26.5934 30.388 26.6334C30.4146 26.6667 30.4346 26.7067 30.448 26.7467C30.468 26.7867 30.4813 26.8267 30.488 26.8734C30.4946 26.9134 30.5013 26.96 30.5013 27Z" fill="#2CE7FF"/>
</g>
<g filter="url(#filter4_d_766_36200)">
<path d="M32.668 27C32.668 27.0667 32.6546 27.1333 32.628 27.1933C32.6013 27.2533 32.568 27.3067 32.5213 27.3534C32.4746 27.4 32.4213 27.44 32.3613 27.46C32.3013 27.4867 32.2346 27.5 32.168 27.5C32.0346 27.5 31.908 27.4467 31.8146 27.3534C31.768 27.3067 31.7346 27.2533 31.708 27.1933C31.6546 27.0667 31.6546 26.9333 31.708 26.8067C31.7346 26.7467 31.768 26.6933 31.8146 26.6466C31.8613 26.6 31.9146 26.5667 31.9746 26.54C32.0346 26.5133 32.1013 26.5 32.168 26.5C32.2346 26.5 32.3013 26.5133 32.3613 26.54C32.4213 26.5667 32.4746 26.6 32.5213 26.6466C32.568 26.6933 32.6013 26.7467 32.628 26.8067C32.6546 26.8733 32.668 26.9333 32.668 27Z" fill="#2CE7FF"/>
</g>
<g filter="url(#filter5_d_766_36200)">
<path d="M34.0464 27C34.0464 27.0866 34.0131 27.1733 33.9464 27.2333C33.8864 27.3 33.7998 27.3333 33.7131 27.3333C33.6264 27.3333 33.5398 27.3 33.4798 27.2333C33.3531 27.1133 33.3531 26.8867 33.4798 26.7667C33.5398 26.7 33.6264 26.6666 33.7131 26.6666C33.7998 26.6666 33.8864 26.7 33.9464 26.7667C34.0131 26.8267 34.0464 26.9133 34.0464 27Z" fill="#2CE7FF"/>
</g>
<g filter="url(#filter6_d_766_36200)">
<path d="M25.5003 32.6667C25.5003 32.9334 25.3937 33.1867 25.207 33.3734C25.0203 33.56 24.767 33.6667 24.5003 33.6667C24.2403 33.6667 23.9803 33.56 23.7937 33.3734C23.4203 33.0067 23.4203 32.3334 23.7937 31.96C23.9803 31.7734 24.2403 31.6667 24.5003 31.6667C24.767 31.6667 25.0203 31.7734 25.207 31.96C25.2537 32.0067 25.2937 32.06 25.3337 32.1133C25.367 32.1667 25.4003 32.2267 25.4203 32.2867C25.447 32.3467 25.467 32.4067 25.4803 32.4734C25.4937 32.5334 25.5003 32.6 25.5003 32.6667Z" fill="#2CE7FF"/>
</g>
<g filter="url(#filter7_d_766_36200)">
<path d="M25.5 21.3333C25.5 21.5933 25.3933 21.8533 25.2067 22.04C25.02 22.2266 24.76 22.3333 24.5 22.3333C24.4333 22.3333 24.3667 22.3266 24.3067 22.3133C24.24 22.3 24.18 22.28 24.12 22.26C24.06 22.2333 24 22.2 23.9467 22.1666C23.8933 22.1266 23.84 22.0866 23.7933 22.04C23.7467 21.9933 23.7067 21.94 23.6667 21.8867C23.6333 21.8333 23.6 21.7733 23.58 21.7133C23.5533 21.6533 23.5333 21.5933 23.52 21.5266C23.4933 21.4 23.4933 21.2667 23.52 21.14C23.5333 21.0733 23.5533 21.0133 23.58 20.9533C23.6 20.8933 23.6333 20.8333 23.6667 20.78C23.7067 20.7266 23.7467 20.6733 23.7933 20.6266C23.84 20.58 23.8933 20.54 23.9467 20.5C24 20.4666 24.06 20.4333 24.12 20.4133C24.18 20.3866 24.24 20.3667 24.3067 20.3533C24.3667 20.34 24.4333 20.3333 24.5 20.3333C24.7667 20.3333 25.02 20.44 25.2067 20.6266C25.2533 20.6733 25.2933 20.7266 25.3333 20.78C25.3667 20.8333 25.4 20.8933 25.4267 20.9533C25.4467 21.0133 25.4667 21.0733 25.48 21.14C25.4933 21.2067 25.5 21.2666 25.5 21.3333Z" fill="#2CE7FF"/>
</g>
<g filter="url(#filter8_d_766_36200)">
<path d="M27.833 21.3333C27.833 21.3733 27.8264 21.42 27.8197 21.46C27.813 21.5067 27.7997 21.5467 27.7797 21.5867C27.7664 21.6267 27.7464 21.6667 27.7197 21.7067C27.6997 21.74 27.6664 21.7733 27.6397 21.8067C27.6064 21.8333 27.573 21.8667 27.5397 21.8867C27.4997 21.9133 27.4597 21.9333 27.4197 21.9467C27.3797 21.9667 27.3397 21.98 27.2997 21.9867C27.253 21.9933 27.213 22 27.1664 22C26.993 22 26.8197 21.9267 26.693 21.8067C26.6664 21.7733 26.6397 21.74 26.613 21.7067C26.5864 21.6667 26.5664 21.6267 26.553 21.5867C26.533 21.5467 26.5197 21.5067 26.513 21.46C26.493 21.38 26.493 21.2933 26.513 21.2067C26.5197 21.16 26.533 21.12 26.553 21.08C26.5664 21.04 26.5864 21 26.613 20.9667C26.6397 20.9267 26.6664 20.8933 26.693 20.86C26.8197 20.74 26.993 20.6667 27.1664 20.6667C27.213 20.6667 27.253 20.6733 27.2997 20.68C27.3397 20.6867 27.3797 20.7 27.4197 20.72C27.4597 20.7333 27.4997 20.7533 27.5397 20.78C27.573 20.8067 27.6064 20.8333 27.6397 20.86C27.6664 20.8933 27.6997 20.9267 27.7197 20.9667C27.7464 21 27.7664 21.04 27.7797 21.08C27.7997 21.12 27.813 21.16 27.8197 21.2067C27.8264 21.2467 27.833 21.2933 27.833 21.3333Z" fill="#2CE7FF"/>
</g>
<g filter="url(#filter9_d_766_36200)">
<path d="M27.8345 32.6666C27.8345 32.84 27.7612 33.0133 27.6412 33.14C27.5146 33.26 27.3412 33.3333 27.1679 33.3333C26.9945 33.3333 26.8212 33.26 26.6945 33.14C26.5079 32.9533 26.4479 32.66 26.5545 32.4133C26.5879 32.3266 26.6345 32.26 26.6945 32.1933C26.8212 32.0733 26.9945 32 27.1679 32C27.3412 32 27.5146 32.0733 27.6412 32.1933C27.7612 32.32 27.8345 32.4933 27.8345 32.6666Z" fill="#2CE7FF"/>
</g>
<g filter="url(#filter10_d_766_36200)">
<path d="M29.667 21.3333C29.667 21.4666 29.6137 21.5933 29.5203 21.6867C29.427 21.78 29.3003 21.8333 29.167 21.8333C29.1003 21.8333 29.0403 21.82 28.9737 21.7933C28.9137 21.7666 28.8603 21.7333 28.8137 21.6867C28.6737 21.5467 28.627 21.3267 28.707 21.14C28.7337 21.08 28.767 21.0266 28.8137 20.98C28.8603 20.9333 28.9137 20.9 28.9737 20.8733C29.0403 20.8466 29.1003 20.8333 29.167 20.8333C29.3003 20.8333 29.427 20.8866 29.5203 20.98C29.567 21.0266 29.6003 21.08 29.627 21.14C29.6537 21.2067 29.667 21.2666 29.667 21.3333Z" fill="#2CE7FF"/>
</g>
<g filter="url(#filter11_d_766_36200)">
<path d="M29.6672 32.6667C29.6672 32.8 29.6138 32.9267 29.5205 33.02C29.4738 33.0667 29.4205 33.1067 29.3605 33.1267C29.3005 33.1534 29.2338 33.1667 29.1672 33.1667C29.1005 33.1667 29.0405 33.1534 28.9738 33.1267C28.9138 33.1067 28.8605 33.0667 28.8138 33.02C28.6272 32.84 28.6272 32.5 28.8138 32.3133C28.8605 32.2667 28.9138 32.2334 28.9738 32.2067C29.0405 32.18 29.1005 32.1667 29.1672 32.1667C29.2338 32.1667 29.3005 32.18 29.3605 32.2067C29.4205 32.2334 29.4738 32.2667 29.5205 32.3133C29.6138 32.4067 29.6672 32.5334 29.6672 32.6667Z" fill="#2CE7FF"/>
</g>
<g filter="url(#filter12_d_766_36200)">
<path d="M31.3335 21.3334C31.3335 21.38 31.3269 21.42 31.3069 21.46C31.2936 21.5 31.2669 21.54 31.2335 21.5667C31.1735 21.6333 31.0869 21.6667 31.0002 21.6667C30.9135 21.6667 30.8269 21.6333 30.7669 21.5667C30.6402 21.4467 30.6402 21.22 30.7669 21.1C30.8269 21.0334 30.9135 21 31.0002 21C31.0869 21 31.1735 21.0334 31.2335 21.1C31.3002 21.16 31.3335 21.2467 31.3335 21.3334Z" fill="#2CE7FF"/>
</g>
<g filter="url(#filter13_d_766_36200)">
<path d="M31.3335 32.6667C31.3335 32.7533 31.3002 32.84 31.2335 32.9C31.1735 32.9667 31.0869 33 31.0002 33C30.9135 33 30.8269 32.9667 30.7669 32.9C30.6402 32.78 30.6402 32.5533 30.7669 32.4333C30.8269 32.3667 30.9135 32.3333 31.0002 32.3333C31.0869 32.3333 31.1735 32.3667 31.2335 32.4333C31.3002 32.4933 31.3335 32.58 31.3335 32.6667Z" fill="#2CE7FF"/>
</g>
<g filter="url(#filter14_d_766_36200)">
<path d="M24.0003 29.8333C24.0003 29.9 23.9937 29.9666 23.9803 30.0266C23.967 30.0933 23.947 30.1533 23.9203 30.2133C23.9003 30.28 23.867 30.3333 23.8337 30.3867C23.7937 30.4467 23.7537 30.4933 23.707 30.54C23.5203 30.7266 23.2603 30.8333 23.0003 30.8333C22.7403 30.8333 22.4803 30.7266 22.2937 30.54C21.9203 30.1666 21.9203 29.5 22.2937 29.1266C22.4803 28.94 22.7337 28.8333 23.0003 28.8333C23.267 28.8333 23.5203 28.94 23.707 29.1266C23.7537 29.1733 23.7937 29.2266 23.8337 29.28C23.867 29.3333 23.9003 29.3933 23.9203 29.4533C23.947 29.5133 23.967 29.5733 23.9803 29.64C23.9937 29.7 24.0003 29.7666 24.0003 29.8333Z" fill="#2CE7FF"/>
</g>
<g filter="url(#filter15_d_766_36200)">
<path d="M24 24.1667C24 24.2334 23.9933 24.3 23.98 24.36C23.9667 24.4267 23.9467 24.4867 23.92 24.5467C23.9 24.6067 23.8667 24.6667 23.8333 24.72C23.7933 24.7734 23.7533 24.8267 23.7067 24.8734C23.66 24.92 23.6067 24.96 23.5533 25C23.5 25.0334 23.44 25.0667 23.38 25.0934C23.32 25.1134 23.26 25.1333 23.1933 25.1467C23.1333 25.16 23.0667 25.1667 23 25.1667C22.74 25.1667 22.48 25.06 22.2933 24.8734C22.2467 24.8267 22.2067 24.7734 22.1667 24.72C22.1333 24.6667 22.1 24.6067 22.08 24.5467C22.0533 24.4867 22.0333 24.4267 22.02 24.36C21.9933 24.2333 21.9933 24.1 22.02 23.9734C22.0333 23.9067 22.0533 23.8467 22.08 23.7867C22.1 23.7267 22.1333 23.6667 22.1667 23.6133C22.2067 23.56 22.2467 23.5067 22.2933 23.46C22.48 23.2734 22.74 23.1667 23 23.1667C23.0667 23.1667 23.1333 23.1734 23.1933 23.1867C23.26 23.2 23.32 23.22 23.38 23.24C23.44 23.2667 23.5 23.3 23.5533 23.3334C23.6067 23.3734 23.66 23.4134 23.7067 23.46C23.7533 23.5067 23.7933 23.56 23.8333 23.6133C23.8667 23.6667 23.9 23.7267 23.92 23.7867C23.9467 23.8467 23.9667 23.9067 23.98 23.9734C23.9933 24.0334 24 24.1 24 24.1667Z" fill="#2CE7FF"/>
</g>
<g filter="url(#filter16_d_766_36200)">
<path d="M26.8343 29.8333C26.8343 29.9 26.8277 29.9666 26.8143 30.0266C26.801 30.0933 26.781 30.1533 26.761 30.2133C26.7343 30.2733 26.701 30.3333 26.6677 30.3867C26.6277 30.4467 26.5877 30.4933 26.541 30.54C26.3543 30.7266 26.0943 30.8333 25.8343 30.8333C25.5677 30.8333 25.3143 30.7266 25.1277 30.54C24.7543 30.1666 24.7543 29.5 25.1277 29.1266C25.3143 28.94 25.5677 28.8333 25.8343 28.8333C26.101 28.8333 26.3543 28.94 26.541 29.1266C26.7277 29.3133 26.8343 29.5733 26.8343 29.8333Z" fill="#2CE7FF"/>
</g>
<g filter="url(#filter17_d_766_36200)">
<path d="M26.834 24.1667C26.834 24.2334 26.8273 24.3 26.814 24.36C26.8007 24.4267 26.7807 24.4867 26.754 24.5467C26.734 24.6067 26.7007 24.6667 26.6673 24.72C26.6273 24.7734 26.5873 24.8267 26.5406 24.8734C26.494 24.92 26.4407 24.96 26.3873 25C26.334 25.0334 26.274 25.0667 26.214 25.0934C26.154 25.1134 26.094 25.1333 26.0273 25.1467C25.9673 25.16 25.9007 25.1667 25.834 25.1667C25.574 25.1667 25.314 25.06 25.1273 24.8734C25.0807 24.8267 25.0407 24.7734 25.0007 24.72C24.9673 24.6667 24.934 24.6067 24.914 24.5467C24.8873 24.4867 24.8673 24.4267 24.854 24.36C24.8273 24.2333 24.8273 24.1 24.854 23.9734C24.8673 23.9067 24.8873 23.8467 24.914 23.7867C24.934 23.7267 24.9673 23.6667 25.0007 23.6133C25.0407 23.56 25.0807 23.5067 25.1273 23.46C25.314 23.2734 25.574 23.1667 25.834 23.1667C25.9007 23.1667 25.9673 23.1734 26.0273 23.1867C26.094 23.2 26.154 23.22 26.214 23.24C26.274 23.2667 26.334 23.3 26.3873 23.3334C26.4407 23.3734 26.494 23.4134 26.5406 23.46C26.5873 23.5067 26.6273 23.56 26.6673 23.6133C26.7007 23.6667 26.734 23.7267 26.754 23.7867C26.7807 23.8467 26.8007 23.9067 26.814 23.9734C26.8273 24.0334 26.834 24.1 26.834 24.1667Z" fill="#2CE7FF"/>
</g>
<g filter="url(#filter18_d_766_36200)">
<path d="M29.1668 29.8333C29.1668 29.92 29.1468 30.0067 29.1135 30.0867C29.0801 30.1733 29.0335 30.2467 28.9735 30.3067C28.9068 30.3667 28.8335 30.4133 28.7535 30.4467C28.6735 30.48 28.5868 30.5 28.5001 30.5C28.3268 30.5 28.1535 30.4267 28.0268 30.3067C27.7801 30.06 27.7801 29.6067 28.0268 29.36C28.1535 29.24 28.3268 29.1667 28.5001 29.1667C28.5868 29.1667 28.6735 29.1867 28.7535 29.22C28.8335 29.2533 28.9068 29.3 28.9735 29.36C29.0935 29.4867 29.1668 29.66 29.1668 29.8333Z" fill="#2CE7FF"/>
</g>
<g filter="url(#filter19_d_766_36200)">
<path d="M29.1668 24.1666C29.1668 24.34 29.0935 24.5133 28.9735 24.64C28.8468 24.76 28.6735 24.8333 28.5001 24.8333C28.3268 24.8333 28.1535 24.76 28.0268 24.64C27.7801 24.3933 27.7801 23.9466 28.0268 23.6933C28.1535 23.5733 28.3268 23.5 28.5001 23.5C28.5468 23.5 28.5868 23.5067 28.6335 23.5133C28.6735 23.52 28.7135 23.5333 28.7535 23.5533C28.7935 23.5667 28.8335 23.5866 28.8668 23.6133C28.9068 23.64 28.9401 23.6666 28.9735 23.6933C29.0935 23.82 29.1668 23.9933 29.1668 24.1666Z" fill="#2CE7FF"/>
</g>
<g filter="url(#filter20_d_766_36200)">
<path d="M31.168 29.8333C31.168 29.9666 31.1146 30.0933 31.0213 30.1867C30.9746 30.2333 30.9213 30.2666 30.8613 30.2933C30.8013 30.32 30.7346 30.3333 30.668 30.3333C30.6013 30.3333 30.5413 30.32 30.4746 30.2933C30.4146 30.2666 30.3613 30.2333 30.3146 30.1867C30.268 30.14 30.2346 30.0866 30.208 30.0266C30.1546 29.9066 30.1546 29.7667 30.208 29.64C30.2346 29.58 30.268 29.5266 30.3146 29.48C30.408 29.3866 30.5346 29.3333 30.668 29.3333C30.7346 29.3333 30.8013 29.3466 30.8613 29.3733C30.9213 29.4 30.9746 29.4333 31.0213 29.48C31.1146 29.5733 31.168 29.7 31.168 29.8333Z" fill="#2CE7FF"/>
</g>
<g filter="url(#filter21_d_766_36200)">
<path d="M31.168 24.1667C31.168 24.2334 31.1546 24.3 31.128 24.36C31.1013 24.42 31.068 24.4734 31.0213 24.52C30.9746 24.5667 30.9213 24.6067 30.8613 24.6267C30.8013 24.6534 30.7346 24.6667 30.668 24.6667C30.6013 24.6667 30.5346 24.6534 30.4746 24.6267C30.4146 24.6 30.3613 24.5667 30.3146 24.52C30.268 24.4734 30.2346 24.42 30.208 24.36C30.1546 24.24 30.1546 24.1 30.208 23.9734C30.2346 23.9134 30.268 23.86 30.3146 23.8133C30.3613 23.7667 30.4146 23.7334 30.4746 23.7067C30.5346 23.68 30.6013 23.6667 30.668 23.6667C30.7346 23.6667 30.8013 23.68 30.8613 23.7067C30.9213 23.7334 30.9746 23.7667 31.0213 23.8133C31.1146 23.9067 31.168 24.0334 31.168 24.1667Z" fill="#2CE7FF"/>
</g>
<g filter="url(#filter22_d_766_36200)">
<path d="M32.6675 29.8334C32.6675 29.92 32.6342 30.0067 32.5675 30.0667C32.5075 30.1333 32.4209 30.1667 32.3342 30.1667C32.2475 30.1667 32.1609 30.1333 32.1009 30.0667C31.9742 29.9467 31.9742 29.72 32.1009 29.6C32.1609 29.5334 32.2475 29.5 32.3342 29.5C32.4209 29.5 32.5075 29.5334 32.5675 29.6C32.6342 29.66 32.6675 29.7467 32.6675 29.8334Z" fill="#2CE7FF"/>
</g>
<g filter="url(#filter23_d_766_36200)">
<path d="M32.6675 24.1667C32.6675 24.2133 32.6609 24.2533 32.6409 24.2933C32.6275 24.3333 32.6009 24.3733 32.5675 24.4C32.5409 24.4333 32.5009 24.46 32.4609 24.4733C32.4209 24.4933 32.3809 24.5 32.3342 24.5C32.2475 24.5 32.1609 24.4667 32.1009 24.4C31.9742 24.28 31.9742 24.0533 32.1009 23.9333C32.1609 23.8667 32.2475 23.8333 32.3342 23.8333C32.3809 23.8333 32.4209 23.84 32.4609 23.86C32.5009 23.8733 32.5409 23.9 32.5675 23.9333C32.6342 23.9933 32.6675 24.08 32.6675 24.1667Z" fill="#2CE7FF"/>
</g>
<defs>
<filter id="filter0_d_766_36200" x="0.501953" y="6" width="42" height="42" filterUnits="userSpaceOnUse" color-interpolation-filters="sRGB">
<feFlood flood-opacity="0" result="BackgroundImageFix"/>
<feColorMatrix in="SourceAlpha" type="matrix" values="0 0 0 0 0 0 0 0 0 0 0 0 0 0 0 0 0 0 127 0" result="hardAlpha"/>
<feOffset/>
<feGaussianBlur stdDeviation="10"/>
<feComposite in2="hardAlpha" operator="out"/>
<feColorMatrix type="matrix" values="0 0 0 0 0.172549 0 0 0 0 0.905882 0 0 0 0 1 0 0 0 0.5 0"/>
<feBlend mode="normal" in2="BackgroundImageFix" result="effect1_dropShadow_766_36200"/>
<feBlend mode="normal" in="SourceGraphic" in2="effect1_dropShadow_766_36200" result="shape"/>
</filter>
<filter id="filter1_d_766_36200" x="3.5" y="6" width="42" height="42" filterUnits="userSpaceOnUse" color-interpolation-filters="sRGB">
<feFlood flood-opacity="0" result="BackgroundImageFix"/>
<feColorMatrix in="SourceAlpha" type="matrix" values="0 0 0 0 0 0 0 0 0 0 0 0 0 0 0 0 0 0 127 0" result="hardAlpha"/>
<feOffset/>
<feGaussianBlur stdDeviation="10"/>
<feComposite in2="hardAlpha" operator="out"/>
<feColorMatrix type="matrix" values="0 0 0 0 0.172549 0 0 0 0 0.905882 0 0 0 0 1 0 0 0 0.5 0"/>
<feBlend mode="normal" in2="BackgroundImageFix" result="effect1_dropShadow_766_36200"/>
<feBlend mode="normal" in="SourceGraphic" in2="effect1_dropShadow_766_36200" result="shape"/>
</filter>
<filter id="filter2_d_766_36200" x="6.16797" y="6" width="42" height="42" filterUnits="userSpaceOnUse" color-interpolation-filters="sRGB">
<feFlood flood-opacity="0" result="BackgroundImageFix"/>
<feColorMatrix in="SourceAlpha" type="matrix" values="0 0 0 0 0 0 0 0 0 0 0 0 0 0 0 0 0 0 127 0" result="hardAlpha"/>
<feOffset/>
<feGaussianBlur stdDeviation="10"/>
<feComposite in2="hardAlpha" operator="out"/>
<feColorMatrix type="matrix" values="0 0 0 0 0.172549 0 0 0 0 0.905882 0 0 0 0 1 0 0 0 0.5 0"/>
<feBlend mode="normal" in2="BackgroundImageFix" result="effect1_dropShadow_766_36200"/>
<feBlend mode="normal" in="SourceGraphic" in2="effect1_dropShadow_766_36200" result="shape"/>
</filter>
<filter id="filter3_d_766_36200" x="9.16992" y="6.33337" width="41.332" height="41.3333" filterUnits="userSpaceOnUse" color-interpolation-filters="sRGB">
<feFlood flood-opacity="0" result="BackgroundImageFix"/>
<feColorMatrix in="SourceAlpha" type="matrix" values="0 0 0 0 0 0 0 0 0 0 0 0 0 0 0 0 0 0 127 0" result="hardAlpha"/>
<feOffset/>
<feGaussianBlur stdDeviation="10"/>
<feComposite in2="hardAlpha" operator="out"/>
<feColorMatrix type="matrix" values="0 0 0 0 0.172549 0 0 0 0 0.905882 0 0 0 0 1 0 0 0 0.5 0"/>
<feBlend mode="normal" in2="BackgroundImageFix" result="effect1_dropShadow_766_36200"/>
<feBlend mode="normal" in="SourceGraphic" in2="effect1_dropShadow_766_36200" result="shape"/>
</filter>
<filter id="filter4_d_766_36200" x="11.668" y="6.5" width="41" height="41" filterUnits="userSpaceOnUse" color-interpolation-filters="sRGB">
<feFlood flood-opacity="0" result="BackgroundImageFix"/>
<feColorMatrix in="SourceAlpha" type="matrix" values="0 0 0 0 0 0 0 0 0 0 0 0 0 0 0 0 0 0 127 0" result="hardAlpha"/>
<feOffset/>
<feGaussianBlur stdDeviation="10"/>
<feComposite in2="hardAlpha" operator="out"/>
<feColorMatrix type="matrix" values="0 0 0 0 0.172549 0 0 0 0 0.905882 0 0 0 0 1 0 0 0 0.5 0"/>
<feBlend mode="normal" in2="BackgroundImageFix" result="effect1_dropShadow_766_36200"/>
<feBlend mode="normal" in="SourceGraphic" in2="effect1_dropShadow_766_36200" result="shape"/>
</filter>
<filter id="filter5_d_766_36200" x="13.3848" y="6.66663" width="40.6621" height="40.6667" filterUnits="userSpaceOnUse" color-interpolation-filters="sRGB">
<feFlood flood-opacity="0" result="BackgroundImageFix"/>
<feColorMatrix in="SourceAlpha" type="matrix" values="0 0 0 0 0 0 0 0 0 0 0 0 0 0 0 0 0 0 127 0" result="hardAlpha"/>
<feOffset/>
<feGaussianBlur stdDeviation="10"/>
<feComposite in2="hardAlpha" operator="out"/>
<feColorMatrix type="matrix" values="0 0 0 0 0.172549 0 0 0 0 0.905882 0 0 0 0 1 0 0 0 0.5 0"/>
<feBlend mode="normal" in2="BackgroundImageFix" result="effect1_dropShadow_766_36200"/>
<feBlend mode="normal" in="SourceGraphic" in2="effect1_dropShadow_766_36200" result="shape"/>
</filter>
<filter id="filter6_d_766_36200" x="3.51367" y="11.6667" width="41.9863" height="42" filterUnits="userSpaceOnUse" color-interpolation-filters="sRGB">
<feFlood flood-opacity="0" result="BackgroundImageFix"/>
<feColorMatrix in="SourceAlpha" type="matrix" values="0 0 0 0 0 0 0 0 0 0 0 0 0 0 0 0 0 0 127 0" result="hardAlpha"/>
<feOffset/>
<feGaussianBlur stdDeviation="10"/>
<feComposite in2="hardAlpha" operator="out"/>
<feColorMatrix type="matrix" values="0 0 0 0 0.172549 0 0 0 0 0.905882 0 0 0 0 1 0 0 0 0.5 0"/>
<feBlend mode="normal" in2="BackgroundImageFix" result="effect1_dropShadow_766_36200"/>
<feBlend mode="normal" in="SourceGraphic" in2="effect1_dropShadow_766_36200" result="shape"/>
</filter>
<filter id="filter7_d_766_36200" x="3.5" y="0.333313" width="42" height="42" filterUnits="userSpaceOnUse" color-interpolation-filters="sRGB">
<feFlood flood-opacity="0" result="BackgroundImageFix"/>
<feColorMatrix in="SourceAlpha" type="matrix" values="0 0 0 0 0 0 0 0 0 0 0 0 0 0 0 0 0 0 127 0" result="hardAlpha"/>
<feOffset/>
<feGaussianBlur stdDeviation="10"/>
<feComposite in2="hardAlpha" operator="out"/>
<feColorMatrix type="matrix" values="0 0 0 0 0.172549 0 0 0 0 0.905882 0 0 0 0 1 0 0 0 0.5 0"/>
<feBlend mode="normal" in2="BackgroundImageFix" result="effect1_dropShadow_766_36200"/>
<feBlend mode="normal" in="SourceGraphic" in2="effect1_dropShadow_766_36200" result="shape"/>
</filter>
<filter id="filter8_d_766_36200" x="6.49805" y="0.666687" width="41.3359" height="41.3333" filterUnits="userSpaceOnUse" color-interpolation-filters="sRGB">
<feFlood flood-opacity="0" result="BackgroundImageFix"/>
<feColorMatrix in="SourceAlpha" type="matrix" values="0 0 0 0 0 0 0 0 0 0 0 0 0 0 0 0 0 0 127 0" result="hardAlpha"/>
<feOffset/>
<feGaussianBlur stdDeviation="10"/>
<feComposite in2="hardAlpha" operator="out"/>
<feColorMatrix type="matrix" values="0 0 0 0 0.172549 0 0 0 0 0.905882 0 0 0 0 1 0 0 0 0.5 0"/>
<feBlend mode="normal" in2="BackgroundImageFix" result="effect1_dropShadow_766_36200"/>
<feBlend mode="normal" in="SourceGraphic" in2="effect1_dropShadow_766_36200" result="shape"/>
</filter>
<filter id="filter9_d_766_36200" x="6.50195" y="12" width="41.332" height="41.3333" filterUnits="userSpaceOnUse" color-interpolation-filters="sRGB">
<feFlood flood-opacity="0" result="BackgroundImageFix"/>
<feColorMatrix in="SourceAlpha" type="matrix" values="0 0 0 0 0 0 0 0 0 0 0 0 0 0 0 0 0 0 127 0" result="hardAlpha"/>
<feOffset/>
<feGaussianBlur stdDeviation="10"/>
<feComposite in2="hardAlpha" operator="out"/>
<feColorMatrix type="matrix" values="0 0 0 0 0.172549 0 0 0 0 0.905882 0 0 0 0 1 0 0 0 0.5 0"/>
<feBlend mode="normal" in2="BackgroundImageFix" result="effect1_dropShadow_766_36200"/>
<feBlend mode="normal" in="SourceGraphic" in2="effect1_dropShadow_766_36200" result="shape"/>
</filter>
<filter id="filter10_d_766_36200" x="8.66797" y="0.833313" width="40.998" height="41" filterUnits="userSpaceOnUse" color-interpolation-filters="sRGB">
<feFlood flood-opacity="0" result="BackgroundImageFix"/>
<feColorMatrix in="SourceAlpha" type="matrix" values="0 0 0 0 0 0 0 0 0 0 0 0 0 0 0 0 0 0 127 0" result="hardAlpha"/>
<feOffset/>
<feGaussianBlur stdDeviation="10"/>
<feComposite in2="hardAlpha" operator="out"/>
<feColorMatrix type="matrix" values="0 0 0 0 0.172549 0 0 0 0 0.905882 0 0 0 0 1 0 0 0 0.5 0"/>
<feBlend mode="normal" in2="BackgroundImageFix" result="effect1_dropShadow_766_36200"/>
<feBlend mode="normal" in="SourceGraphic" in2="effect1_dropShadow_766_36200" result="shape"/>
</filter>
<filter id="filter11_d_766_36200" x="8.67383" y="12.1667" width="40.9941" height="41" filterUnits="userSpaceOnUse" color-interpolation-filters="sRGB">
<feFlood flood-opacity="0" result="BackgroundImageFix"/>
<feColorMatrix in="SourceAlpha" type="matrix" values="0 0 0 0 0 0 0 0 0 0 0 0 0 0 0 0 0 0 127 0" result="hardAlpha"/>
<feOffset/>
<feGaussianBlur stdDeviation="10"/>
<feComposite in2="hardAlpha" operator="out"/>
<feColorMatrix type="matrix" values="0 0 0 0 0.172549 0 0 0 0 0.905882 0 0 0 0 1 0 0 0 0.5 0"/>
<feBlend mode="normal" in2="BackgroundImageFix" result="effect1_dropShadow_766_36200"/>
<feBlend mode="normal" in="SourceGraphic" in2="effect1_dropShadow_766_36200" result="shape"/>
</filter>
<filter id="filter12_d_766_36200" x="10.6719" y="1" width="40.6621" height="40.6667" filterUnits="userSpaceOnUse" color-interpolation-filters="sRGB">
<feFlood flood-opacity="0" result="BackgroundImageFix"/>
<feColorMatrix in="SourceAlpha" type="matrix" values="0 0 0 0 0 0 0 0 0 0 0 0 0 0 0 0 0 0 127 0" result="hardAlpha"/>
<feOffset/>
<feGaussianBlur stdDeviation="10"/>
<feComposite in2="hardAlpha" operator="out"/>
<feColorMatrix type="matrix" values="0 0 0 0 0.172549 0 0 0 0 0.905882 0 0 0 0 1 0 0 0 0.5 0"/>
<feBlend mode="normal" in2="BackgroundImageFix" result="effect1_dropShadow_766_36200"/>
<feBlend mode="normal" in="SourceGraphic" in2="effect1_dropShadow_766_36200" result="shape"/>
</filter>
<filter id="filter13_d_766_36200" x="10.6719" y="12.3333" width="40.6621" height="40.6667" filterUnits="userSpaceOnUse" color-interpolation-filters="sRGB">
<feFlood flood-opacity="0" result="BackgroundImageFix"/>
<feColorMatrix in="SourceAlpha" type="matrix" values="0 0 0 0 0 0 0 0 0 0 0 0 0 0 0 0 0 0 127 0" result="hardAlpha"/>
<feOffset/>
<feGaussianBlur stdDeviation="10"/>
<feComposite in2="hardAlpha" operator="out"/>
<feColorMatrix type="matrix" values="0 0 0 0 0.172549 0 0 0 0 0.905882 0 0 0 0 1 0 0 0 0.5 0"/>
<feBlend mode="normal" in2="BackgroundImageFix" result="effect1_dropShadow_766_36200"/>
<feBlend mode="normal" in="SourceGraphic" in2="effect1_dropShadow_766_36200" result="shape"/>
</filter>
<filter id="filter14_d_766_36200" x="2.01367" y="8.83331" width="41.9863" height="42" filterUnits="userSpaceOnUse" color-interpolation-filters="sRGB">
<feFlood flood-opacity="0" result="BackgroundImageFix"/>
<feColorMatrix in="SourceAlpha" type="matrix" values="0 0 0 0 0 0 0 0 0 0 0 0 0 0 0 0 0 0 127 0" result="hardAlpha"/>
<feOffset/>
<feGaussianBlur stdDeviation="10"/>
<feComposite in2="hardAlpha" operator="out"/>
<feColorMatrix type="matrix" values="0 0 0 0 0.172549 0 0 0 0 0.905882 0 0 0 0 1 0 0 0 0.5 0"/>
<feBlend mode="normal" in2="BackgroundImageFix" result="effect1_dropShadow_766_36200"/>
<feBlend mode="normal" in="SourceGraphic" in2="effect1_dropShadow_766_36200" result="shape"/>
</filter>
<filter id="filter15_d_766_36200" x="2" y="3.16669" width="42" height="42" filterUnits="userSpaceOnUse" color-interpolation-filters="sRGB">
<feFlood flood-opacity="0" result="BackgroundImageFix"/>
<feColorMatrix in="SourceAlpha" type="matrix" values="0 0 0 0 0 0 0 0 0 0 0 0 0 0 0 0 0 0 127 0" result="hardAlpha"/>
<feOffset/>
<feGaussianBlur stdDeviation="10"/>
<feComposite in2="hardAlpha" operator="out"/>
<feColorMatrix type="matrix" values="0 0 0 0 0.172549 0 0 0 0 0.905882 0 0 0 0 1 0 0 0 0.5 0"/>
<feBlend mode="normal" in2="BackgroundImageFix" result="effect1_dropShadow_766_36200"/>
<feBlend mode="normal" in="SourceGraphic" in2="effect1_dropShadow_766_36200" result="shape"/>
</filter>
<filter id="filter16_d_766_36200" x="4.84766" y="8.83331" width="41.9863" height="42" filterUnits="userSpaceOnUse" color-interpolation-filters="sRGB">
<feFlood flood-opacity="0" result="BackgroundImageFix"/>
<feColorMatrix in="SourceAlpha" type="matrix" values="0 0 0 0 0 0 0 0 0 0 0 0 0 0 0 0 0 0 127 0" result="hardAlpha"/>
<feOffset/>
<feGaussianBlur stdDeviation="10"/>
<feComposite in2="hardAlpha" operator="out"/>
<feColorMatrix type="matrix" values="0 0 0 0 0.172549 0 0 0 0 0.905882 0 0 0 0 1 0 0 0 0.5 0"/>
<feBlend mode="normal" in2="BackgroundImageFix" result="effect1_dropShadow_766_36200"/>
<feBlend mode="normal" in="SourceGraphic" in2="effect1_dropShadow_766_36200" result="shape"/>
</filter>
<filter id="filter17_d_766_36200" x="4.83398" y="3.16669" width="42" height="42" filterUnits="userSpaceOnUse" color-interpolation-filters="sRGB">
<feFlood flood-opacity="0" result="BackgroundImageFix"/>
<feColorMatrix in="SourceAlpha" type="matrix" values="0 0 0 0 0 0 0 0 0 0 0 0 0 0 0 0 0 0 127 0" result="hardAlpha"/>
<feOffset/>
<feGaussianBlur stdDeviation="10"/>
<feComposite in2="hardAlpha" operator="out"/>
<feColorMatrix type="matrix" values="0 0 0 0 0.172549 0 0 0 0 0.905882 0 0 0 0 1 0 0 0 0.5 0"/>
<feBlend mode="normal" in2="BackgroundImageFix" result="effect1_dropShadow_766_36200"/>
<feBlend mode="normal" in="SourceGraphic" in2="effect1_dropShadow_766_36200" result="shape"/>
</filter>
<filter id="filter18_d_766_36200" x="7.8418" y="9.16669" width="41.3242" height="41.3333" filterUnits="userSpaceOnUse" color-interpolation-filters="sRGB">
<feFlood flood-opacity="0" result="BackgroundImageFix"/>
<feColorMatrix in="SourceAlpha" type="matrix" values="0 0 0 0 0 0 0 0 0 0 0 0 0 0 0 0 0 0 127 0" result="hardAlpha"/>
<feOffset/>
<feGaussianBlur stdDeviation="10"/>
<feComposite in2="hardAlpha" operator="out"/>
<feColorMatrix type="matrix" values="0 0 0 0 0.172549 0 0 0 0 0.905882 0 0 0 0 1 0 0 0 0.5 0"/>
<feBlend mode="normal" in2="BackgroundImageFix" result="effect1_dropShadow_766_36200"/>
<feBlend mode="normal" in="SourceGraphic" in2="effect1_dropShadow_766_36200" result="shape"/>
</filter>
<filter id="filter19_d_766_36200" x="7.8418" y="3.5" width="41.3242" height="41.3333" filterUnits="userSpaceOnUse" color-interpolation-filters="sRGB">
<feFlood flood-opacity="0" result="BackgroundImageFix"/>
<feColorMatrix in="SourceAlpha" type="matrix" values="0 0 0 0 0 0 0 0 0 0 0 0 0 0 0 0 0 0 127 0" result="hardAlpha"/>
<feOffset/>
<feGaussianBlur stdDeviation="10"/>
<feComposite in2="hardAlpha" operator="out"/>
<feColorMatrix type="matrix" values="0 0 0 0 0.172549 0 0 0 0 0.905882 0 0 0 0 1 0 0 0 0.5 0"/>
<feBlend mode="normal" in2="BackgroundImageFix" result="effect1_dropShadow_766_36200"/>
<feBlend mode="normal" in="SourceGraphic" in2="effect1_dropShadow_766_36200" result="shape"/>
</filter>
<filter id="filter20_d_766_36200" x="10.168" y="9.33331" width="41" height="41" filterUnits="userSpaceOnUse" color-interpolation-filters="sRGB">
<feFlood flood-opacity="0" result="BackgroundImageFix"/>
<feColorMatrix in="SourceAlpha" type="matrix" values="0 0 0 0 0 0 0 0 0 0 0 0 0 0 0 0 0 0 127 0" result="hardAlpha"/>
<feOffset/>
<feGaussianBlur stdDeviation="10"/>
<feComposite in2="hardAlpha" operator="out"/>
<feColorMatrix type="matrix" values="0 0 0 0 0.172549 0 0 0 0 0.905882 0 0 0 0 1 0 0 0 0.5 0"/>
<feBlend mode="normal" in2="BackgroundImageFix" result="effect1_dropShadow_766_36200"/>
<feBlend mode="normal" in="SourceGraphic" in2="effect1_dropShadow_766_36200" result="shape"/>
</filter>
<filter id="filter21_d_766_36200" x="10.168" y="3.66669" width="41" height="41" filterUnits="userSpaceOnUse" color-interpolation-filters="sRGB">
<feFlood flood-opacity="0" result="BackgroundImageFix"/>
<feColorMatrix in="SourceAlpha" type="matrix" values="0 0 0 0 0 0 0 0 0 0 0 0 0 0 0 0 0 0 127 0" result="hardAlpha"/>
<feOffset/>
<feGaussianBlur stdDeviation="10"/>
<feComposite in2="hardAlpha" operator="out"/>
<feColorMatrix type="matrix" values="0 0 0 0 0.172549 0 0 0 0 0.905882 0 0 0 0 1 0 0 0 0.5 0"/>
<feBlend mode="normal" in2="BackgroundImageFix" result="effect1_dropShadow_766_36200"/>
<feBlend mode="normal" in="SourceGraphic" in2="effect1_dropShadow_766_36200" result="shape"/>
</filter>
<filter id="filter22_d_766_36200" x="12.0059" y="9.5" width="40.6621" height="40.6667" filterUnits="userSpaceOnUse" color-interpolation-filters="sRGB">
<feFlood flood-opacity="0" result="BackgroundImageFix"/>
<feColorMatrix in="SourceAlpha" type="matrix" values="0 0 0 0 0 0 0 0 0 0 0 0 0 0 0 0 0 0 127 0" result="hardAlpha"/>
<feOffset/>
<feGaussianBlur stdDeviation="10"/>
<feComposite in2="hardAlpha" operator="out"/>
<feColorMatrix type="matrix" values="0 0 0 0 0.172549 0 0 0 0 0.905882 0 0 0 0 1 0 0 0 0.5 0"/>
<feBlend mode="normal" in2="BackgroundImageFix" result="effect1_dropShadow_766_36200"/>
<feBlend mode="normal" in="SourceGraphic" in2="effect1_dropShadow_766_36200" result="shape"/>
</filter>
<filter id="filter23_d_766_36200" x="12.0059" y="3.83331" width="40.6621" height="40.6667" filterUnits="userSpaceOnUse" color-interpolation-filters="sRGB">
<feFlood flood-opacity="0" result="BackgroundImageFix"/>
<feColorMatrix in="SourceAlpha" type="matrix" values="0 0 0 0 0 0 0 0 0 0 0 0 0 0 0 0 0 0 127 0" result="hardAlpha"/>
<feOffset/>
<feGaussianBlur stdDeviation="10"/>
<feComposite in2="hardAlpha" operator="out"/>
<feColorMatrix type="matrix" values="0 0 0 0 0.172549 0 0 0 0 0.905882 0 0 0 0 1 0 0 0 0.5 0"/>
<feBlend mode="normal" in2="BackgroundImageFix" result="effect1_dropShadow_766_36200"/>
<feBlend mode="normal" in="SourceGraphic" in2="effect1_dropShadow_766_36200" result="shape"/>
</filter>
</defs>
</svg>
