<svg width="553" height="51" viewBox="0 0 553 51" fill="none" xmlns="http://www.w3.org/2000/svg">
<path opacity="0.8" d="M0.420001 49H-0.58V50H0.420001V49ZM0.420001 1.4V0.399998H-0.58V1.4H0.420001ZM37.752 6.432L37.0729 7.16616L37.0825 7.17484L37.752 6.432ZM37.752 31.116L38.4261 31.8547L38.4265 31.8543L37.752 31.116ZM13 36.08V35.08H12V36.08H13ZM13 49V50H14V49H13ZM13 24.52H12V25.52H13V24.52ZM28.504 22.956L27.8555 22.1948L27.8484 22.2008L27.8414 22.207L28.504 22.956ZM28.504 14.524L27.8414 15.273L27.8484 15.2792L27.8555 15.2852L28.504 14.524ZM13 12.96V11.96H12V12.96H13ZM1.42 49V1.4H-0.58V49H1.42ZM0.420001 2.4H23.54V0.399998H0.420001V2.4ZM23.54 2.4C29.1854 2.4 33.6643 4.01305 37.073 7.1661L38.431 5.6979C34.5864 2.14161 29.5906 0.399998 23.54 0.399998V2.4ZM37.0825 7.17484C40.5464 10.2966 42.26 14.1304 42.26 18.74H44.26C44.26 13.5576 42.3016 9.18603 38.4215 5.68916L37.0825 7.17484ZM42.26 18.74C42.26 23.3501 40.5459 27.2091 37.0775 30.3777L38.4265 31.8543C42.3021 28.3136 44.26 23.9219 44.26 18.74H42.26ZM37.0779 30.3773C33.6697 33.4874 29.189 35.08 23.54 35.08V37.08C29.587 37.08 34.581 35.3633 38.4261 31.8547L37.0779 30.3773ZM23.54 35.08H13V37.08H23.54V35.08ZM12 36.08V49H14V36.08H12ZM13 48H0.420001V50H13V48ZM13 25.52H23.2V23.52H13V25.52ZM23.2 25.52C25.6834 25.52 27.7327 24.9735 29.1666 23.705L27.8414 22.207C26.918 23.0239 25.4313 23.52 23.2 23.52V25.52ZM29.1525 23.7172C30.6234 22.4642 31.34 20.7681 31.34 18.74H29.34C29.34 20.2479 28.8326 21.3624 27.8555 22.1948L29.1525 23.7172ZM31.34 18.74C31.34 16.7119 30.6234 15.0158 29.1525 13.7628L27.8555 15.2852C28.8326 16.1176 29.34 17.2321 29.34 18.74H31.34ZM29.1666 13.775C27.7327 12.5065 25.6834 11.96 23.2 11.96V13.96C25.4313 13.96 26.918 14.4561 27.8414 15.273L29.1666 13.775ZM23.2 11.96H13V13.96H23.2V11.96ZM12 12.96V24.52H14V12.96H12ZM49.6934 49H48.6934V50H49.6934V49ZM49.6934 1.4V0.399998H48.6934V1.4H49.6934ZM86.4134 1.4H87.4134V0.399998H86.4134V1.4ZM86.4134 12.96V13.96H87.4134V12.96H86.4134ZM62.2734 12.96V11.96H61.2734V12.96H62.2734ZM62.2734 20.1H61.2734V21.1H62.2734V20.1ZM81.6534 20.1H82.6534V19.1H81.6534V20.1ZM81.6534 30.3V31.3H82.6534V30.3H81.6534ZM62.2734 30.3V29.3H61.2734V30.3H62.2734ZM62.2734 37.44H61.2734V38.44H62.2734V37.44ZM86.4134 37.44H87.4134V36.44H86.4134V37.44ZM86.4134 49V50H87.4134V49H86.4134ZM50.6934 49V1.4H48.6934V49H50.6934ZM49.6934 2.4H86.4134V0.399998H49.6934V2.4ZM85.4134 1.4V12.96H87.4134V1.4H85.4134ZM86.4134 11.96H62.2734V13.96H86.4134V11.96ZM61.2734 12.96V20.1H63.2734V12.96H61.2734ZM62.2734 21.1H81.6534V19.1H62.2734V21.1ZM80.6534 20.1V30.3H82.6534V20.1H80.6534ZM81.6534 29.3H62.2734V31.3H81.6534V29.3ZM61.2734 30.3V37.44H63.2734V30.3H61.2734ZM62.2734 38.44H86.4134V36.44H62.2734V38.44ZM85.4134 37.44V49H87.4134V37.44H85.4134ZM86.4134 48H49.6934V50H86.4134V48ZM93.5216 49H92.5216V50H93.5216V49ZM93.5216 1.4V0.399998H92.5216V1.4H93.5216ZM131.058 6.228L130.38 6.96324L130.39 6.97224L131.058 6.228ZM126.842 32.34L126.369 31.4585L125.449 31.9513L125.981 32.8493L126.842 32.34ZM136.702 49V50H138.455L137.562 48.4907L136.702 49ZM123.102 49L122.242 49.5115L122.533 50H123.102V49ZM114.602 34.72L115.461 34.2085L115.17 33.72H114.602V34.72ZM106.102 34.72V33.72H105.102V34.72H106.102ZM106.102 49V50H107.102V49H106.102ZM106.102 23.16H105.102V24.16H106.102V23.16ZM121.674 21.664L122.32 22.4274L122.32 22.4274L121.674 21.664ZM121.674 14.456L122.32 13.6926L121.674 14.456ZM106.102 12.96V11.96H105.102V12.96H106.102ZM94.5216 49V1.4H92.5216V49H94.5216ZM93.5216 2.4H117.322V0.399998H93.5216V2.4ZM117.322 2.4C122.788 2.4 127.108 3.94673 130.38 6.96317L131.735 5.49283C128.025 2.07193 123.188 0.399998 117.322 0.399998V2.4ZM130.39 6.97224C133.716 9.95758 135.362 13.6318 135.362 18.06H137.362C137.362 13.0588 135.471 8.84509 131.725 5.48376L130.39 6.97224ZM135.362 18.06C135.362 23.739 132.46 28.1956 126.369 31.4585L127.314 33.2215C133.916 29.6844 137.362 24.6209 137.362 18.06H135.362ZM125.981 32.8493L135.841 49.5093L137.562 48.4907L127.702 31.8307L125.981 32.8493ZM136.702 48H123.102V50H136.702V48ZM123.961 48.4885L115.461 34.2085L113.742 35.2315L122.242 49.5115L123.961 48.4885ZM114.602 33.72H106.102V35.72H114.602V33.72ZM105.102 34.72V49H107.102V34.72H105.102ZM106.102 48H93.5216V50H106.102V48ZM106.102 24.16H116.982V22.16H106.102V24.16ZM116.982 24.16C119.104 24.16 120.917 23.6142 122.32 22.4274L121.028 20.9006C120.073 21.7085 118.758 22.16 116.982 22.16V24.16ZM122.32 22.4274C123.698 21.2612 124.442 19.7908 124.442 18.06H122.442C122.442 19.1399 122.007 20.0721 121.028 20.9006L122.32 22.4274ZM124.442 18.06C124.442 16.3292 123.698 14.8588 122.32 13.6926L121.028 15.2194C122.007 16.0479 122.442 16.9801 122.442 18.06H124.442ZM122.32 13.6926C120.917 12.5058 119.104 11.96 116.982 11.96V13.96C118.758 13.96 120.073 14.4115 121.028 15.2194L122.32 13.6926ZM116.982 11.96H106.102V13.96H116.982V11.96ZM105.102 12.96V23.16H107.102V12.96H105.102ZM143.525 49H142.525V50H143.525V49ZM143.525 1.4V0.399998H142.525V1.4H143.525ZM179.565 1.4H180.565V0.399998H179.565V1.4ZM179.565 12.96V13.96H180.565V12.96H179.565ZM156.105 12.96V11.96H155.105V12.96H156.105ZM156.105 22.14H155.105V23.14H156.105V22.14ZM174.125 22.14H175.125V21.14H174.125V22.14ZM174.125 33.02V34.02H175.125V33.02H174.125ZM156.105 33.02V32.02H155.105V33.02H156.105ZM156.105 49V50H157.105V49H156.105ZM144.525 49V1.4H142.525V49H144.525ZM143.525 2.4H179.565V0.399998H143.525V2.4ZM178.565 1.4V12.96H180.565V1.4H178.565ZM179.565 11.96H156.105V13.96H179.565V11.96ZM155.105 12.96V22.14H157.105V12.96H155.105ZM156.105 23.14H174.125V21.14H156.105V23.14ZM173.125 22.14V33.02H175.125V22.14H173.125ZM174.125 32.02H156.105V34.02H174.125V32.02ZM155.105 33.02V49H157.105V33.02H155.105ZM156.105 48H143.525V50H156.105V48ZM189.805 43.016L189.101 43.7264L189.108 43.7327L189.805 43.016ZM189.805 7.452L190.506 8.16557L190.506 8.1655L189.805 7.452ZM227.817 7.452L227.113 8.16236L227.12 8.16872L227.817 7.452ZM227.817 43.016L228.518 43.7296L228.518 43.7295L227.817 43.016ZM199.257 15.34L198.544 14.6394L199.257 15.34ZM199.257 35.06L198.544 35.7606L199.257 35.06ZM218.433 35.06L219.147 35.7606L218.433 35.06ZM218.433 15.34L219.147 14.6394L218.433 15.34ZM190.509 42.3057C185.709 37.5496 183.325 31.8656 183.325 25.2H181.325C181.325 32.4064 183.928 38.5998 189.101 43.7263L190.509 42.3057ZM183.325 25.2C183.325 18.5347 185.709 12.8751 190.506 8.16557L189.105 6.73844C183.928 11.8209 181.325 17.9933 181.325 25.2H183.325ZM190.506 8.1655C195.334 3.42451 201.421 1.04 208.845 1.04V-0.960003C200.947 -0.960003 194.341 1.59682 189.105 6.73849L190.506 8.1655ZM208.845 1.04C216.269 1.04 222.332 3.42439 227.113 8.16233L228.521 6.74167C223.329 1.59694 216.744 -0.960003 208.845 -0.960003V1.04ZM227.12 8.16872C231.961 12.8791 234.365 18.5377 234.365 25.2H236.365C236.365 17.9903 233.737 11.8169 228.515 6.73527L227.12 8.16872ZM234.365 25.2C234.365 31.8626 231.961 37.5456 227.117 42.3025L228.518 43.7295C233.738 38.6037 236.365 32.4094 236.365 25.2H234.365ZM227.117 42.3024C222.336 46.9963 216.272 49.36 208.845 49.36V51.36C216.741 51.36 223.325 48.8277 228.518 43.7296L227.117 42.3024ZM208.845 49.36C201.418 49.36 195.33 46.9962 190.503 42.2993L189.108 43.7327C194.345 48.8278 200.95 51.36 208.845 51.36V49.36ZM198.544 14.6394C195.882 17.351 194.585 20.9052 194.585 25.2H196.585C196.585 21.3348 197.737 18.3157 199.971 16.0406L198.544 14.6394ZM194.585 25.2C194.585 29.4948 195.882 33.049 198.544 35.7606L199.971 34.3594C197.737 32.0843 196.585 29.0652 196.585 25.2H194.585ZM198.544 35.7606C201.205 38.4708 204.671 39.8 208.845 39.8V37.8C205.132 37.8 202.206 36.6358 199.971 34.3594L198.544 35.7606ZM208.845 39.8C213.02 39.8 216.486 38.4708 219.147 35.7606L217.72 34.3594C215.485 36.6358 212.559 37.8 208.845 37.8V39.8ZM219.147 35.7606C221.809 33.049 223.105 29.4948 223.105 25.2H221.105C221.105 29.0652 219.954 32.0843 217.72 34.3594L219.147 35.7606ZM223.105 25.2C223.105 20.9052 221.809 17.351 219.147 14.6394L217.72 16.0406C219.954 18.3157 221.105 21.3348 221.105 25.2H223.105ZM219.147 14.6394C216.486 11.9292 213.02 10.6 208.845 10.6V12.6C212.559 12.6 215.485 13.7642 217.72 16.0406L219.147 14.6394ZM208.845 10.6C204.671 10.6 201.205 11.9292 198.544 14.6394L199.971 16.0406C202.206 13.7642 205.132 12.6 208.845 12.6V10.6ZM242.139 49H241.139V50H242.139V49ZM242.139 1.4V0.399998H241.139V1.4H242.139ZM279.675 6.228L278.997 6.96324L279.007 6.97224L279.675 6.228ZM275.459 32.34L274.987 31.4585L274.067 31.9513L274.598 32.8493L275.459 32.34ZM285.319 49V50H287.073L286.179 48.4907L285.319 49ZM271.719 49L270.859 49.5115L271.15 50H271.719V49ZM263.219 34.72L264.078 34.2085L263.787 33.72H263.219V34.72ZM254.719 34.72V33.72H253.719V34.72H254.719ZM254.719 49V50H255.719V49H254.719ZM254.719 23.16H253.719V24.16H254.719V23.16ZM270.291 21.664L270.937 22.4274V22.4274L270.291 21.664ZM270.291 14.456L270.937 13.6926L270.291 14.456ZM254.719 12.96V11.96H253.719V12.96H254.719ZM243.139 49V1.4H241.139V49H243.139ZM242.139 2.4H265.939V0.399998H242.139V2.4ZM265.939 2.4C271.406 2.4 275.726 3.94673 278.997 6.96317L280.353 5.49283C276.643 2.07193 271.805 0.399998 265.939 0.399998V2.4ZM279.007 6.97224C282.333 9.95758 283.979 13.6318 283.979 18.06H285.979C285.979 13.0588 284.088 8.84509 280.343 5.48376L279.007 6.97224ZM283.979 18.06C283.979 23.739 281.077 28.1956 274.987 31.4585L275.931 33.2215C282.533 29.6844 285.979 24.6209 285.979 18.06H283.979ZM274.598 32.8493L284.458 49.5093L286.179 48.4907L276.319 31.8307L274.598 32.8493ZM285.319 48H271.719V50H285.319V48ZM272.578 48.4885L264.078 34.2085L262.359 35.2315L270.859 49.5115L272.578 48.4885ZM263.219 33.72H254.719V35.72H263.219V33.72ZM253.719 34.72V49H255.719V34.72H253.719ZM254.719 48H242.139V50H254.719V48ZM254.719 24.16H265.599V22.16H254.719V24.16ZM265.599 24.16C267.721 24.16 269.534 23.6142 270.937 22.4274L269.645 20.9006C268.69 21.7085 267.375 22.16 265.599 22.16V24.16ZM270.937 22.4274C272.315 21.2612 273.059 19.7908 273.059 18.06H271.059C271.059 19.1399 270.624 20.0721 269.645 20.9006L270.937 22.4274ZM273.059 18.06C273.059 16.3292 272.315 14.8588 270.937 13.6926L269.645 15.2194C270.624 16.0479 271.059 16.9801 271.059 18.06H273.059ZM270.937 13.6926C269.534 12.5058 267.721 11.96 265.599 11.96V13.96C267.375 13.96 268.69 14.4115 269.645 15.2194L270.937 13.6926ZM265.599 11.96H254.719V13.96H265.599V11.96ZM253.719 12.96V23.16H255.719V12.96H253.719ZM292.143 49H291.143V50H292.143V49ZM292.143 1.4V0.399998H291.143V1.4H292.143ZM309.823 1.4L310.75 1.02639L310.498 0.399998H309.823V1.4ZM319.683 25.88L318.755 26.2536L319.007 26.88H319.683V25.88ZM321.383 25.88V26.88H322.058L322.31 26.2536L321.383 25.88ZM331.243 1.4V0.399998H330.567L330.315 1.02639L331.243 1.4ZM348.923 1.4H349.923V0.399998H348.923V1.4ZM348.923 49V50H349.923V49H348.923ZM336.343 49H335.343V50H336.343V49ZM336.343 21.8L335.356 21.6356L335.343 21.7172V21.8H336.343ZM337.363 15.68L338.349 15.8444L338.543 14.68H337.363V15.68ZM336.683 15.68V14.68H336.011L335.757 15.3014L336.683 15.68ZM327.503 38.12V39.12H328.174L328.428 38.4986L327.503 38.12ZM313.563 38.12L312.637 38.4986L312.891 39.12H313.563V38.12ZM304.383 15.68L305.308 15.3014L305.054 14.68H304.383V15.68ZM303.703 15.68V14.68H302.522L302.716 15.8444L303.703 15.68ZM304.723 21.8H305.723V21.7172L305.709 21.6356L304.723 21.8ZM304.723 49V50H305.723V49H304.723ZM293.143 49V1.4H291.143V49H293.143ZM292.143 2.4H309.823V0.399998H292.143V2.4ZM308.895 1.77361L318.755 26.2536L320.61 25.5064L310.75 1.02639L308.895 1.77361ZM319.683 26.88H321.383V24.88H319.683V26.88ZM322.31 26.2536L332.17 1.77361L330.315 1.02639L320.455 25.5064L322.31 26.2536ZM331.243 2.4H348.923V0.399998H331.243V2.4ZM347.923 1.4V49H349.923V1.4H347.923ZM348.923 48H336.343V50H348.923V48ZM337.343 49V21.8H335.343V49H337.343ZM337.329 21.9644L338.349 15.8444L336.376 15.5156L335.356 21.6356L337.329 21.9644ZM337.363 14.68H336.683V16.68H337.363V14.68ZM335.757 15.3014L326.577 37.7414L328.428 38.4986L337.608 16.0586L335.757 15.3014ZM327.503 37.12H313.563V39.12H327.503V37.12ZM314.488 37.7414L305.308 15.3014L303.457 16.0586L312.637 38.4986L314.488 37.7414ZM304.383 14.68H303.703V16.68H304.383V14.68ZM302.716 15.8444L303.736 21.9644L305.709 21.6356L304.689 15.5156L302.716 15.8444ZM303.723 21.8V49H305.723V21.8H303.723ZM304.723 48H292.143V50H304.723V48ZM353.332 49L352.367 48.7381L352.024 50H353.332V49ZM366.252 1.4V0.399998H365.487L365.287 1.13805L366.252 1.4ZM389.372 1.4L390.337 1.13805L390.137 0.399998H389.372V1.4ZM402.292 49V50H403.6L403.257 48.7381L402.292 49ZM389.372 49L388.402 49.2425L388.591 50H389.372V49ZM386.992 39.48L387.962 39.2375L387.773 38.48H386.992V39.48ZM368.632 39.48V38.48H367.851L367.662 39.2375L368.632 39.48ZM366.252 49V50H367.033L367.222 49.2425L366.252 49ZM371.352 28.6L370.384 28.3476L370.058 29.6H371.352V28.6ZM384.272 28.6V29.6H385.566L385.24 28.3476L384.272 28.6ZM380.192 12.96L381.16 12.7076L380.965 11.96H380.192V12.96ZM375.432 12.96V11.96H374.659L374.464 12.7076L375.432 12.96ZM354.297 49.2619L367.217 1.66195L365.287 1.13805L352.367 48.7381L354.297 49.2619ZM366.252 2.4H389.372V0.399998H366.252V2.4ZM388.407 1.66195L401.327 49.2619L403.257 48.7381L390.337 1.13805L388.407 1.66195ZM402.292 48H389.372V50H402.292V48ZM390.342 48.7575L387.962 39.2375L386.022 39.7225L388.402 49.2425L390.342 48.7575ZM386.992 38.48H368.632V40.48H386.992V38.48ZM367.662 39.2375L365.282 48.7575L367.222 49.2425L369.602 39.7225L367.662 39.2375ZM366.252 48H353.332V50H366.252V48ZM371.352 29.6H384.272V27.6H371.352V29.6ZM385.24 28.3476L381.16 12.7076L379.224 13.2124L383.304 28.8524L385.24 28.3476ZM380.192 11.96H375.432V13.96H380.192V11.96ZM374.464 12.7076L370.384 28.3476L372.32 28.8524L376.4 13.2124L374.464 12.7076ZM406.693 49H405.693V50H406.693V49ZM406.693 1.4V0.399998H405.693V1.4H406.693ZM421.993 1.4L422.867 0.913511L422.581 0.399998H421.993V1.4ZM438.653 31.32L437.78 31.8065L438.066 32.32H438.653V31.32ZM439.333 31.32V32.32H440.514L440.32 31.1556L439.333 31.32ZM438.313 25.2H437.313V25.2828L437.327 25.3644L438.313 25.2ZM438.313 1.4V0.399998H437.313V1.4H438.313ZM450.893 1.4H451.893V0.399998H450.893V1.4ZM450.893 49V50H451.893V49H450.893ZM435.593 49L434.72 49.4865L435.006 50H435.593V49ZM418.933 19.08L419.807 18.5935L419.521 18.08H418.933V19.08ZM418.253 19.08V18.08H417.073L417.267 19.2444L418.253 19.08ZM419.273 25.2H420.273V25.1172L420.26 25.0356L419.273 25.2ZM419.273 49V50H420.273V49H419.273ZM407.693 49V1.4H405.693V49H407.693ZM406.693 2.4H421.993V0.399998H406.693V2.4ZM421.12 1.88648L437.78 31.8065L439.527 30.8335L422.867 0.913511L421.12 1.88648ZM438.653 32.32H439.333V30.32H438.653V32.32ZM440.32 31.1556L439.3 25.0356L437.327 25.3644L438.347 31.4844L440.32 31.1556ZM439.313 25.2V1.4H437.313V25.2H439.313ZM438.313 2.4H450.893V0.399998H438.313V2.4ZM449.893 1.4V49H451.893V1.4H449.893ZM450.893 48H435.593V50H450.893V48ZM436.467 48.5135L419.807 18.5935L418.06 19.5665L434.72 49.4865L436.467 48.5135ZM418.933 18.08H418.253V20.08H418.933V18.08ZM417.267 19.2444L418.287 25.3644L420.26 25.0356L419.24 18.9156L417.267 19.2444ZM418.273 25.2V49H420.273V25.2H418.273ZM419.273 48H406.693V50H419.273V48ZM465.124 43.22L464.427 43.9369L464.434 43.9434L465.124 43.22ZM465.124 7.248L465.818 7.9682L465.818 7.96808L465.124 7.248ZM504.428 9.424L505.224 8.81791L505.216 8.80769L504.428 9.424ZM509.052 18.74V19.74H510.358L510.017 18.4791L509.052 18.74ZM496.132 18.74L495.232 19.1756L495.505 19.74H496.132V18.74ZM493.616 15.204L492.909 15.9111L492.917 15.9193L492.926 15.9274L493.616 15.204ZM474.644 15.34L473.93 14.6394L474.644 15.34ZM474.644 35.06L473.93 35.7606L474.644 35.06ZM494.16 34.72L493.413 34.0556L493.404 34.0651L494.16 34.72ZM496.472 30.64V29.64H495.73L495.515 30.35L496.472 30.64ZM509.392 30.64L510.357 30.9021L510.7 29.64H509.392V30.64ZM504.564 40.5L503.77 39.8921L503.765 39.8991L503.759 39.9062L504.564 40.5ZM465.821 42.5031C461.083 37.8955 458.712 32.1518 458.712 25.2H456.712C456.712 32.6642 459.282 38.9339 464.427 43.9369L465.821 42.5031ZM458.712 25.2C458.712 18.2483 461.083 12.5293 465.818 7.9682L464.43 6.5278C459.282 11.4867 456.712 17.7357 456.712 25.2H458.712ZM465.818 7.96808C470.595 3.36436 476.705 1.04 484.232 1.04V-0.960003C476.255 -0.960003 469.626 1.52098 464.43 6.52792L465.818 7.96808ZM484.232 1.04C492.52 1.04 498.951 4.04759 503.641 10.0403L505.216 8.80769C500.113 2.28841 493.08 -0.960003 484.232 -0.960003V1.04ZM503.633 10.03C505.733 12.7866 507.215 15.7754 508.087 19.0009L510.017 18.4791C509.076 14.9953 507.475 11.7734 505.223 8.81796L503.633 10.03ZM509.052 17.74H496.132V19.74H509.052V17.74ZM497.032 18.3044C496.307 16.8055 495.401 15.5254 494.307 14.4806L492.926 15.9274C493.826 16.7866 494.597 17.8638 495.232 19.1756L497.032 18.3044ZM494.323 14.4969C491.707 11.881 488.312 10.6 484.232 10.6V12.6C487.859 12.6 490.72 13.7217 492.909 15.9111L494.323 14.4969ZM484.232 10.6C480.057 10.6 476.591 11.9292 473.93 14.6394L475.358 16.0406C477.593 13.7642 480.519 12.6 484.232 12.6V10.6ZM473.93 14.6394C471.268 17.351 469.972 20.9052 469.972 25.2H471.972C471.972 21.3348 473.124 18.3157 475.358 16.0406L473.93 14.6394ZM469.972 25.2C469.972 29.4948 471.268 33.049 473.93 35.7606L475.358 34.3594C473.124 32.0843 471.972 29.0652 471.972 25.2H469.972ZM473.93 35.7606C476.591 38.4708 480.057 39.8 484.232 39.8V37.8C480.519 37.8 477.593 36.6358 475.358 34.3594L473.93 35.7606ZM484.232 39.8C488.725 39.8 492.333 38.3549 494.916 35.3749L493.404 34.0651C491.272 36.5251 488.262 37.8 484.232 37.8V39.8ZM494.907 35.3844C496.087 34.0575 496.932 32.5711 497.429 30.93L495.515 30.35C495.106 31.7009 494.409 32.9345 493.413 34.0556L494.907 35.3844ZM496.472 31.64H509.392V29.64H496.472V31.64ZM508.427 30.3779C507.462 33.9299 505.909 37.0981 503.77 39.8921L505.358 41.1079C507.662 38.0993 509.327 34.6941 510.357 30.9021L508.427 30.3779ZM503.759 39.9062C499.111 46.2052 492.643 49.36 484.232 49.36V51.36C493.229 51.36 500.316 47.9415 505.369 41.0938L503.759 39.9062ZM484.232 49.36C476.703 49.36 470.591 47.0565 465.815 42.4966L464.434 43.9434C469.63 48.9035 476.258 51.36 484.232 51.36V49.36ZM515.865 49H514.865V50H515.865V49ZM515.865 1.4V0.399998H514.865V1.4H515.865ZM552.585 1.4H553.585V0.399998H552.585V1.4ZM552.585 12.96V13.96H553.585V12.96H552.585ZM528.445 12.96V11.96H527.445V12.96H528.445ZM528.445 20.1H527.445V21.1H528.445V20.1ZM547.825 20.1H548.825V19.1H547.825V20.1ZM547.825 30.3V31.3H548.825V30.3H547.825ZM528.445 30.3V29.3H527.445V30.3H528.445ZM528.445 37.44H527.445V38.44H528.445V37.44ZM552.585 37.44H553.585V36.44H552.585V37.44ZM552.585 49V50H553.585V49H552.585ZM516.865 49V1.4H514.865V49H516.865ZM515.865 2.4H552.585V0.399998H515.865V2.4ZM551.585 1.4V12.96H553.585V1.4H551.585ZM552.585 11.96H528.445V13.96H552.585V11.96ZM527.445 12.96V20.1H529.445V12.96H527.445ZM528.445 21.1H547.825V19.1H528.445V21.1ZM546.825 20.1V30.3H548.825V20.1H546.825ZM547.825 29.3H528.445V31.3H547.825V29.3ZM527.445 30.3V37.44H529.445V30.3H527.445ZM528.445 38.44H552.585V36.44H528.445V38.44ZM551.585 37.44V49H553.585V37.44H551.585ZM552.585 48H515.865V50H552.585V48Z" fill="url(#paint0_linear_766_34764)"/>
<defs>
<linearGradient id="paint0_linear_766_34764" x1="276" y1="-90.5" x2="276" y2="49" gradientUnits="userSpaceOnUse">
<stop stop-color="#2CE7FF"/>
<stop offset="1" stop-color="#2CE7FF" stop-opacity="0"/>
</linearGradient>
</defs>
</svg>
