<svg width="815" height="53" viewBox="0 0 815 53" fill="none" xmlns="http://www.w3.org/2000/svg">
<path opacity="0.5" d="M0.55 51H-0.45V52H0.55V51ZM0.55 2V0.999997H-0.45V2H0.55ZM39.05 22.51L39.6192 23.3322L39.6431 23.3157L39.6659 23.2978L39.05 22.51ZM35.2 24.4L34.9036 23.4449L34.2 23.6633V24.4H35.2ZM35.2 24.75H34.2V25.5016L34.9219 25.7106L35.2 24.75ZM39.89 26.92L40.4586 26.0974L40.4577 26.0968L39.89 26.92ZM39.82 47.01L40.4569 47.781L40.4635 47.7755L39.82 47.01ZM13.5 20.9H12.5V21.9H13.5V20.9ZM27.92 19.78L28.5641 20.5449L28.5756 20.5352L28.5868 20.5252L27.92 19.78ZM27.92 13.69L27.2532 14.4352L27.2644 14.4452L27.2759 14.4549L27.92 13.69ZM13.5 12.5V11.5H12.5V12.5H13.5ZM13.5 40.5H12.5V41.5H13.5V40.5ZM29.67 39.17L30.2907 39.954L29.67 39.17ZM29.67 32.03L30.2907 31.246L29.67 32.03ZM13.5 30.7V29.7H12.5V30.7H13.5ZM1.55 51V2H-0.45V51H1.55ZM0.55 3H26.8V0.999997H0.55V3ZM26.8 3C31.6938 3 35.3844 4.13263 37.9961 6.27339L39.2639 4.72661C36.1823 2.20069 31.9862 0.999997 26.8 0.999997V3ZM37.9961 6.27339C40.6248 8.42807 41.9 11.067 41.9 14.25H43.9C43.9 10.433 42.3286 7.2386 39.2639 4.72661L37.9961 6.27339ZM41.9 14.25C41.9 17.4686 40.7383 19.9207 38.4341 21.7222L39.6659 23.2978C42.495 21.086 43.9 18.0313 43.9 14.25H41.9ZM38.4808 21.6878C37.3476 22.4723 36.1558 23.0563 34.9036 23.4449L35.4964 25.3551C36.9509 24.9037 38.3257 24.2277 39.6192 23.3322L38.4808 21.6878ZM34.2 24.4V24.75H36.2V24.4H34.2ZM34.9219 25.7106C36.6045 26.1976 38.0676 26.8779 39.3223 27.7432L40.4577 26.0968C39.0057 25.0954 37.3422 24.329 35.4781 23.7894L34.9219 25.7106ZM39.3214 27.7426C42.1908 29.7259 43.65 32.6418 43.65 36.65H45.65C45.65 32.0716 43.9359 28.5008 40.4586 26.0974L39.3214 27.7426ZM43.65 36.65C43.65 40.5542 42.1709 43.7275 39.1766 46.2445L40.4635 47.7755C43.9091 44.8792 45.65 41.1458 45.65 36.65H43.65ZM39.1831 46.239C36.2044 48.6997 31.8899 50 26.1 50V52C32.1634 52 36.9956 50.6403 40.4569 47.781L39.1831 46.239ZM26.1 50H0.55V52H26.1V50ZM13.5 21.9H24V19.9H13.5V21.9ZM24 21.9C25.8508 21.9 27.4271 21.5024 28.5641 20.5449L27.2759 19.0151C26.6396 19.5509 25.6025 19.9 24 19.9V21.9ZM28.5868 20.5252C29.6992 19.5299 30.25 18.2255 30.25 16.7H28.25C28.25 17.6945 27.9141 18.4434 27.2532 19.0348L28.5868 20.5252ZM30.25 16.7C30.25 15.1741 29.6978 13.8797 28.5641 12.9251L27.2759 14.4549C27.9155 14.9936 28.25 15.7059 28.25 16.7H30.25ZM28.5868 12.9448C27.449 11.9267 25.8634 11.5 24 11.5V13.5C25.59 13.5 26.6177 13.8666 27.2532 14.4352L28.5868 12.9448ZM24 11.5H13.5V13.5H24V11.5ZM12.5 12.5V20.9H14.5V12.5H12.5ZM13.5 41.5H24.7V39.5H13.5V41.5ZM24.7 41.5C27.0043 41.5 28.9215 41.038 30.2907 39.954L29.0493 38.386C28.1785 39.0753 26.7824 39.5 24.7 39.5V41.5ZM30.2907 39.954C31.6626 38.8679 32.35 37.3828 32.35 35.6H30.35C30.35 36.8038 29.9174 37.6987 29.0493 38.386L30.2907 39.954ZM32.35 35.6C32.35 33.8172 31.6626 32.3321 30.2907 31.246L29.0493 32.814C29.9174 33.5013 30.35 34.3962 30.35 35.6H32.35ZM30.2907 31.246C28.9215 30.162 27.0043 29.7 24.7 29.7V31.7C26.7824 31.7 28.1785 32.1247 29.0493 32.814L30.2907 31.246ZM24.7 29.7H13.5V31.7H24.7V29.7ZM12.5 30.7V40.5H14.5V30.7H12.5ZM51.6828 51H50.6828V52H51.6828V51ZM51.6828 2V0.999997H50.6828V2H51.6828ZM64.6328 2H65.6328V0.999997H64.6328V2ZM64.6328 51V52H65.6328V51H64.6328ZM52.6828 51V2H50.6828V51H52.6828ZM51.6828 3H64.6328V0.999997H51.6828V3ZM63.6328 2V51H65.6328V2H63.6328ZM64.6328 50H51.6828V52H64.6328V50ZM69.9129 13.9H68.9129V14.9H69.9129V13.9ZM69.9129 2V0.999997H68.9129V2H69.9129ZM113.663 2H114.663V0.999997H113.663V2ZM113.663 13.9V14.9H114.663V13.9H113.663ZM98.2629 13.9V12.9H97.2629V13.9H98.2629ZM98.2629 51V52H99.2629V51H98.2629ZM85.3129 51H84.3129V52H85.3129V51ZM85.3129 13.9H86.3129V12.9H85.3129V13.9ZM70.9129 13.9V2H68.9129V13.9H70.9129ZM69.9129 3H113.663V0.999997H69.9129V3ZM112.663 2V13.9H114.663V2H112.663ZM113.663 12.9H98.2629V14.9H113.663V12.9ZM97.2629 13.9V51H99.2629V13.9H97.2629ZM98.2629 50H85.3129V52H98.2629V50ZM86.3129 51V13.9H84.3129V51H86.3129ZM85.3129 12.9H69.9129V14.9H85.3129V12.9ZM124.41 45.05L123.713 45.7669L123.72 45.7734L124.41 45.05ZM124.41 8.02L125.104 8.7402L125.104 8.74008L124.41 8.02ZM164.87 10.26L165.666 9.6539L165.658 9.64369L164.87 10.26ZM169.63 19.85V20.85H170.936L170.595 19.5891L169.63 19.85ZM156.33 19.85L155.43 20.2856L155.703 20.85H156.33V19.85ZM153.74 16.21L153.033 16.9171L153.041 16.9253L153.05 16.9334L153.74 16.21ZM134.21 16.35L133.497 15.6494V15.6494L134.21 16.35ZM134.21 36.65L133.497 37.3506L134.21 36.65ZM154.3 36.3L153.553 35.6356L153.544 35.6451L154.3 36.3ZM156.68 32.1V31.1H155.938L155.723 31.81L156.68 32.1ZM169.98 32.1L170.945 32.3621L171.288 31.1H169.98V32.1ZM165.01 42.25L164.216 41.6421L164.211 41.6491L164.205 41.6562L165.01 42.25ZM125.107 44.3331C120.224 39.5841 117.78 33.6638 117.78 26.5H115.78C115.78 34.1762 118.423 40.6225 123.713 45.7669L125.107 44.3331ZM117.78 26.5C117.78 19.3363 120.224 13.4413 125.104 8.7402L123.716 7.2998C118.423 12.3987 115.78 18.8237 115.78 26.5H117.78ZM125.104 8.74008C130.028 3.99502 136.325 1.6 144.08 1.6V-0.400002C135.875 -0.400002 129.059 2.15164 123.716 7.29992L125.104 8.74008ZM144.08 1.6C152.62 1.6 159.249 4.69959 164.083 10.8763L165.658 9.64369C160.412 2.94041 153.18 -0.400002 144.08 -0.400002V1.6ZM164.075 10.866C166.239 13.7066 167.766 16.7867 168.665 20.1109L170.595 19.5891C169.627 16.0066 167.981 12.6934 165.666 9.65396L164.075 10.866ZM169.63 18.85H156.33V20.85H169.63V18.85ZM157.23 19.4144C156.485 17.8742 155.554 16.5594 154.431 15.4866L153.05 16.9334C153.979 17.8206 154.775 18.9325 155.43 20.2856L157.23 19.4144ZM154.447 15.5029C151.761 12.8163 148.273 11.5 144.08 11.5V13.5C147.82 13.5 150.773 14.657 153.033 16.9171L154.447 15.5029ZM144.08 11.5C139.789 11.5 136.229 12.8658 133.497 15.6494L134.924 17.0506C137.231 14.7008 140.251 13.5 144.08 13.5V11.5ZM133.497 15.6494C130.762 18.4343 129.43 22.0852 129.43 26.5H131.43C131.43 22.5147 132.618 19.399 134.924 17.0506L133.497 15.6494ZM129.43 26.5C129.43 30.9147 130.762 34.5657 133.497 37.3506L134.924 35.9494C132.618 33.601 131.43 30.4852 131.43 26.5H129.43ZM133.497 37.3506C136.229 40.1342 139.789 41.5 144.08 41.5V39.5C140.251 39.5 137.231 38.2992 134.924 35.9494L133.497 37.3506ZM144.08 41.5C148.698 41.5 152.404 40.0149 155.056 36.9549L153.544 35.6451C151.343 38.1851 148.235 39.5 144.08 39.5V41.5ZM155.047 36.9644C156.259 35.6015 157.126 34.0751 157.637 32.39L155.723 31.81C155.3 33.2049 154.581 34.4785 153.553 35.6356L155.047 36.9644ZM156.68 33.1H169.98V31.1H156.68V33.1ZM169.015 31.8379C168.021 35.4979 166.421 38.7627 164.216 41.6421L165.804 42.8579C168.173 39.7639 169.886 36.2621 170.945 32.3621L169.015 31.8379ZM164.205 41.6562C159.415 48.1485 152.747 51.4 144.08 51.4V53.4C153.333 53.4 160.619 49.8848 165.815 42.8438L164.205 41.6562ZM144.08 51.4C136.323 51.4 130.024 49.0265 125.101 44.3266L123.72 45.7734C129.063 50.8735 135.878 53.4 144.08 53.4V51.4ZM176.644 51H175.644V52H176.644V51ZM176.644 2V0.999997H175.644V2H176.644ZM189.594 2H190.594V0.999997H189.594V2ZM189.594 51V52H190.594V51H189.594ZM177.644 51V2H175.644V51H177.644ZM176.644 3H189.594V0.999997H176.644V3ZM188.594 2V51H190.594V2H188.594ZM189.594 50H176.644V52H189.594V50ZM194.874 13.9H193.874V14.9H194.874V13.9ZM194.874 2V0.999997H193.874V2H194.874ZM238.624 2H239.624V0.999997H238.624V2ZM238.624 13.9V14.9H239.624V13.9H238.624ZM223.224 13.9V12.9H222.224V13.9H223.224ZM223.224 51V52H224.224V51H223.224ZM210.274 51H209.274V52H210.274V51ZM210.274 13.9H211.274V12.9H210.274V13.9ZM195.874 13.9V2H193.874V13.9H195.874ZM194.874 3H238.624V0.999997H194.874V3ZM237.624 2V13.9H239.624V2H237.624ZM238.624 12.9H223.224V14.9H238.624V12.9ZM222.224 13.9V51H224.224V13.9H222.224ZM223.224 50H210.274V52H223.224V50ZM211.274 51V13.9H209.274V51H211.274ZM210.274 12.9H194.874V14.9H210.274V12.9ZM238.591 2V0.999997H236.858L237.725 2.50027L238.591 2ZM252.241 2L253.115 1.51435L252.829 0.999997H252.241V2ZM262.741 20.9L261.867 21.3856L262.153 21.9H262.741V20.9ZM263.791 20.9V21.9H264.379L264.665 21.3856L263.791 20.9ZM274.291 2V0.999997H273.703L273.417 1.51435L274.291 2ZM287.941 2L288.807 2.50027L289.674 0.999997H287.941V2ZM269.741 33.5L268.875 32.9997L268.741 33.2319V33.5H269.741ZM269.741 51V52H270.741V51H269.741ZM256.791 51H255.791V52H256.791V51ZM256.791 33.5H257.791V33.2319L257.657 32.9997L256.791 33.5ZM238.591 3H252.241V0.999997H238.591V3ZM251.367 2.48564L261.867 21.3856L263.615 20.4144L253.115 1.51435L251.367 2.48564ZM262.741 21.9H263.791V19.9H262.741V21.9ZM264.665 21.3856L275.165 2.48564L273.417 1.51435L262.917 20.4144L264.665 21.3856ZM274.291 3H287.941V0.999997H274.291V3ZM287.075 1.49972L268.875 32.9997L270.607 34.0003L288.807 2.50027L287.075 1.49972ZM268.741 33.5V51H270.741V33.5H268.741ZM269.741 50H256.791V52H269.741V50ZM257.791 51V33.5H255.791V51H257.791ZM257.657 32.9997L239.457 1.49972L237.725 2.50027L255.925 34.0003L257.657 32.9997ZM289.661 51H288.661V52H289.661V51ZM289.661 39.1L288.949 38.398L288.661 38.69V39.1H289.661ZM313.811 14.6L314.523 15.302L314.811 15.01V14.6H313.811ZM313.811 13.9H314.811V12.9H313.811V13.9ZM290.361 13.9H289.361V14.9H290.361V13.9ZM290.361 2V0.999997H289.361V2H290.361ZM330.611 2H331.611V0.999997H330.611V2ZM330.611 13.9L331.323 14.602L331.611 14.31V13.9H330.611ZM306.461 38.4L305.749 37.698L305.461 37.99V38.4H306.461ZM306.461 39.1H305.461V40.1H306.461V39.1ZM331.311 39.1H332.311V38.1H331.311V39.1ZM331.311 51V52H332.311V51H331.311ZM290.661 51V39.1H288.661V51H290.661ZM290.373 39.802L314.523 15.302L313.099 13.898L288.949 38.398L290.373 39.802ZM314.811 14.6V13.9H312.811V14.6H314.811ZM313.811 12.9H290.361V14.9H313.811V12.9ZM291.361 13.9V2H289.361V13.9H291.361ZM290.361 3H330.611V0.999997H290.361V3ZM329.611 2V13.9H331.611V2H329.611ZM329.899 13.198L305.749 37.698L307.173 39.102L331.323 14.602L329.899 13.198ZM305.461 38.4V39.1H307.461V38.4H305.461ZM306.461 40.1H331.311V38.1H306.461V40.1ZM330.311 39.1V51H332.311V39.1H330.311ZM331.311 50H289.661V52H331.311V50ZM357.933 51H356.933V52H357.933V51ZM357.933 2V0.999997H356.933V2H357.933ZM370.883 2H371.883V0.999997H370.883V2ZM370.883 39.1H369.883V40.1H370.883V39.1ZM394.333 39.1H395.333V38.1H394.333V39.1ZM394.333 51V52H395.333V51H394.333ZM358.933 51V2H356.933V51H358.933ZM357.933 3H370.883V0.999997H357.933V3ZM369.883 2V39.1H371.883V2H369.883ZM370.883 40.1H394.333V38.1H370.883V40.1ZM393.333 39.1V51H395.333V39.1H393.333ZM394.333 50H357.933V52H394.333V50ZM395.014 51L394.049 50.738L393.706 52H395.014V51ZM408.314 2V0.999997H407.549L407.349 1.73805L408.314 2ZM432.114 2L433.079 1.73805L432.878 0.999997H432.114V2ZM445.414 51V52H446.721L446.379 50.738L445.414 51ZM432.114 51L431.144 51.2425L431.333 52H432.114V51ZM429.664 41.2L430.634 40.9575L430.444 40.2H429.664V41.2ZM410.764 41.2V40.2H409.983L409.794 40.9575L410.764 41.2ZM408.314 51V52H409.094L409.284 51.2425L408.314 51ZM413.564 30L412.596 29.7476L412.269 31H413.564V30ZM426.864 30V31H428.158L427.831 29.7476L426.864 30ZM422.664 13.9L423.631 13.6476L423.436 12.9H422.664V13.9ZM417.764 13.9V12.9H416.991L416.796 13.6476L417.764 13.9ZM395.979 51.262L409.279 2.26195L407.349 1.73805L394.049 50.738L395.979 51.262ZM408.314 3H432.114V0.999997H408.314V3ZM431.149 2.26195L444.449 51.262L446.379 50.738L433.079 1.73805L431.149 2.26195ZM445.414 50H432.114V52H445.414V50ZM433.084 50.7575L430.634 40.9575L428.694 41.4425L431.144 51.2425L433.084 50.7575ZM429.664 40.2H410.764V42.2H429.664V40.2ZM409.794 40.9575L407.344 50.7575L409.284 51.2425L411.734 41.4425L409.794 40.9575ZM408.314 50H395.014V52H408.314V50ZM413.564 31H426.864V29H413.564V31ZM427.831 29.7476L423.631 13.6476L421.696 14.1524L425.896 30.2524L427.831 29.7476ZM422.664 12.9H417.764V14.9H422.664V12.9ZM416.796 13.6476L412.596 29.7476L414.531 30.2524L418.731 14.1524L416.796 13.6476ZM449.595 2V0.999997H448.595V2H449.595ZM462.545 2H463.545V0.999997H462.545V2ZM464.995 37.98L464.278 38.6771L464.995 37.98ZM478.295 37.98L479.012 38.6771L478.295 37.98ZM480.745 2V0.999997H479.745V2H480.745ZM493.695 2H494.695V0.999997H493.695V2ZM487.745 46.66L487.05 45.9403L487.745 46.66ZM455.545 46.66L456.239 45.9403L455.545 46.66ZM450.595 31.4V2H448.595V31.4H450.595ZM449.595 3H462.545V0.999997H449.595V3ZM461.545 2V31.05H463.545V2H461.545ZM461.545 31.05C461.545 34.1807 462.419 36.7658 464.278 38.6771L465.712 37.2829C464.303 35.8342 463.545 33.7993 463.545 31.05H461.545ZM464.278 38.6771C466.135 40.5879 468.631 41.5 471.645 41.5V39.5C469.058 39.5 467.12 38.7321 465.712 37.2829L464.278 38.6771ZM471.645 41.5C474.658 41.5 477.154 40.5879 479.012 38.6771L477.578 37.2829C476.169 38.7321 474.231 39.5 471.645 39.5V41.5ZM479.012 38.6771C480.87 36.7658 481.745 34.1807 481.745 31.05H479.745C479.745 33.7993 478.986 35.8342 477.578 37.2829L479.012 38.6771ZM481.745 31.05V2H479.745V31.05H481.745ZM480.745 3H493.695V0.999997H480.745V3ZM492.695 2V31.4H494.695V2H492.695ZM492.695 31.4C492.695 37.5201 490.791 42.3311 487.05 45.9403L488.439 47.3797C492.631 43.3355 494.695 37.9733 494.695 31.4H492.695ZM487.05 45.9403C483.31 49.5481 478.215 51.4 471.645 51.4V53.4C478.608 53.4 484.245 51.4252 488.439 47.3797L487.05 45.9403ZM471.645 51.4C465.075 51.4 459.979 49.5481 456.239 45.9403L454.85 47.3797C459.044 51.4252 464.681 53.4 471.645 53.4V51.4ZM456.239 45.9403C452.498 42.3311 450.595 37.5201 450.595 31.4H448.595C448.595 37.9733 450.658 43.3355 454.85 47.3797L456.239 45.9403ZM502.445 51H501.445V52H502.445V51ZM502.445 2V0.999997H501.445V2H502.445ZM518.195 2L519.068 1.51351L518.782 0.999997H518.195V2ZM535.345 32.8L534.471 33.2865L534.757 33.8H535.345V32.8ZM536.045 32.8V33.8H537.225L537.031 32.6356L536.045 32.8ZM534.995 26.5H533.995V26.5828L534.008 26.6644L534.995 26.5ZM534.995 2V0.999997H533.995V2H534.995ZM547.945 2H548.945V0.999997H547.945V2ZM547.945 51V52H548.945V51H547.945ZM532.195 51L531.321 51.4865L531.607 52H532.195V51ZM515.045 20.2L515.918 19.7135L515.632 19.2H515.045V20.2ZM514.345 20.2V19.2H513.164L513.358 20.3644L514.345 20.2ZM515.395 26.5H516.395V26.4172L516.381 26.3356L515.395 26.5ZM515.395 51V52H516.395V51H515.395ZM503.445 51V2H501.445V51H503.445ZM502.445 3H518.195V0.999997H502.445V3ZM517.321 2.48648L534.471 33.2865L536.218 32.3135L519.068 1.51351L517.321 2.48648ZM535.345 33.8H536.045V31.8H535.345V33.8ZM537.031 32.6356L535.981 26.3356L534.008 26.6644L535.058 32.9644L537.031 32.6356ZM535.995 26.5V2H533.995V26.5H535.995ZM534.995 3H547.945V0.999997H534.995V3ZM546.945 2V51H548.945V2H546.945ZM547.945 50H532.195V52H547.945V50ZM533.068 50.5135L515.918 19.7135L514.171 20.6865L531.321 51.4865L533.068 50.5135ZM515.045 19.2H514.345V21.2H515.045V19.2ZM513.358 20.3644L514.408 26.6644L516.381 26.3356L515.331 20.0356L513.358 20.3644ZM514.395 26.5V51H516.395V26.5H514.395ZM515.395 50H502.445V52H515.395V50ZM562.594 45.05L561.896 45.7669L561.903 45.7734L562.594 45.05ZM562.594 8.02L563.287 8.7402L563.288 8.74008L562.594 8.02ZM603.054 10.26L603.849 9.6539L603.841 9.64369L603.054 10.26ZM607.814 19.85V20.85H609.12L608.779 19.5891L607.814 19.85ZM594.514 19.85L593.614 20.2856L593.887 20.85H594.514V19.85ZM591.924 16.21L591.217 16.9171L591.225 16.9253L591.233 16.9334L591.924 16.21ZM572.394 16.35L571.68 15.6494V15.6494L572.394 16.35ZM572.394 36.65L571.68 37.3506L572.394 36.65ZM592.484 36.3L591.736 35.6356L591.728 35.6451L592.484 36.3ZM594.864 32.1V31.1H594.122L593.907 31.81L594.864 32.1ZM608.164 32.1L609.129 32.3621L609.471 31.1H608.164V32.1ZM603.194 42.25L602.4 41.6421L602.394 41.6491L602.389 41.6562L603.194 42.25ZM563.291 44.3331C558.407 39.5841 555.964 33.6638 555.964 26.5H553.964C553.964 34.1762 556.607 40.6225 561.896 45.7669L563.291 44.3331ZM555.964 26.5C555.964 19.3363 558.407 13.4413 563.287 8.7402L561.9 7.2998C556.607 12.3987 553.964 18.8237 553.964 26.5H555.964ZM563.288 8.74008C568.212 3.99502 574.509 1.6 582.264 1.6V-0.400002C574.058 -0.400002 567.242 2.15164 561.9 7.29992L563.288 8.74008ZM582.264 1.6C590.804 1.6 597.432 4.69959 602.266 10.8763L603.841 9.64369C598.595 2.94041 591.363 -0.400002 582.264 -0.400002V1.6ZM602.258 10.866C604.422 13.7066 605.95 16.7867 606.848 20.1109L608.779 19.5891C607.811 16.0066 606.165 12.6934 603.849 9.65396L602.258 10.866ZM607.814 18.85H594.514V20.85H607.814V18.85ZM595.414 19.4144C594.669 17.8742 593.738 16.5594 592.614 15.4866L591.233 16.9334C592.163 17.8206 592.959 18.9325 593.614 20.2856L595.414 19.4144ZM592.631 15.5029C589.944 12.8163 586.457 11.5 582.264 11.5V13.5C586.004 13.5 588.956 14.657 591.217 16.9171L592.631 15.5029ZM582.264 11.5C577.973 11.5 574.413 12.8658 571.68 15.6494L573.107 17.0506C575.414 14.7008 578.434 13.5 582.264 13.5V11.5ZM571.68 15.6494C568.946 18.4343 567.614 22.0852 567.614 26.5H569.614C569.614 22.5147 570.801 19.399 573.107 17.0506L571.68 15.6494ZM567.614 26.5C567.614 30.9147 568.946 34.5657 571.68 37.3506L573.107 35.9494C570.801 33.601 569.614 30.4852 569.614 26.5H567.614ZM571.68 37.3506C574.413 40.1342 577.973 41.5 582.264 41.5V39.5C578.434 39.5 575.414 38.2992 573.107 35.9494L571.68 37.3506ZM582.264 41.5C586.882 41.5 590.587 40.0149 593.239 36.9549L591.728 35.6451C589.527 38.1851 586.419 39.5 582.264 39.5V41.5ZM593.231 36.9644C594.443 35.6015 595.31 34.0751 595.821 32.39L593.907 31.81C593.484 33.2049 592.765 34.4785 591.736 35.6356L593.231 36.9644ZM594.864 33.1H608.164V31.1H594.864V33.1ZM607.199 31.8379C606.205 35.4979 604.604 38.7627 602.4 41.6421L603.988 42.8579C606.357 39.7639 608.069 36.2621 609.129 32.3621L607.199 31.8379ZM602.389 41.6562C597.598 48.1485 590.93 51.4 582.264 51.4V53.4C591.517 53.4 598.802 49.8848 603.998 42.8438L602.389 41.6562ZM582.264 51.4C574.506 51.4 568.208 49.0265 563.284 44.3266L561.903 45.7734C567.246 50.8735 574.061 53.4 582.264 53.4V51.4ZM614.827 51H613.827V52H614.827V51ZM614.827 2V0.999997H613.827V2H614.827ZM627.777 2H628.777V0.999997H627.777V2ZM627.777 20.2H626.777V21.2H627.777V20.2ZM646.677 20.2V21.2H647.677V20.2H646.677ZM646.677 2V0.999997H645.677V2H646.677ZM659.627 2H660.627V0.999997H659.627V2ZM659.627 51V52H660.627V51H659.627ZM646.677 51H645.677V52H646.677V51ZM646.677 32.1H647.677V31.1H646.677V32.1ZM627.777 32.1V31.1H626.777V32.1H627.777ZM627.777 51V52H628.777V51H627.777ZM615.827 51V2H613.827V51H615.827ZM614.827 3H627.777V0.999997H614.827V3ZM626.777 2V20.2H628.777V2H626.777ZM627.777 21.2H646.677V19.2H627.777V21.2ZM647.677 20.2V2H645.677V20.2H647.677ZM646.677 3H659.627V0.999997H646.677V3ZM658.627 2V51H660.627V2H658.627ZM659.627 50H646.677V52H659.627V50ZM647.677 51V32.1H645.677V51H647.677ZM646.677 31.1H627.777V33.1H646.677V31.1ZM626.777 32.1V51H628.777V32.1H626.777ZM627.777 50H614.827V52H627.777V50ZM668.695 51H667.695V52H668.695V51ZM668.695 2V0.999997H667.695V2H668.695ZM707.125 7.18L706.445 7.91416L706.455 7.92283L707.125 7.18ZM707.125 32.59L707.799 33.3287L707.799 33.3283L707.125 32.59ZM681.645 37.7V36.7H680.645V37.7H681.645ZM681.645 51V52H682.645V51H681.645ZM681.645 25.8H680.645V26.8H681.645V25.8ZM697.605 24.19L696.956 23.4288L696.949 23.4348L696.942 23.441L697.605 24.19ZM697.605 15.51L696.942 16.259L696.949 16.2652L696.956 16.2712L697.605 15.51ZM681.645 13.9V12.9H680.645V13.9H681.645ZM669.695 51V2H667.695V51H669.695ZM668.695 3H692.495V0.999997H668.695V3ZM692.495 3C698.312 3 702.93 4.66238 706.445 7.9141L707.804 6.4459C703.852 2.79095 698.717 0.999997 692.495 0.999997V3ZM706.455 7.92283C710.027 11.142 711.795 15.0964 711.795 19.85H713.795C713.795 14.5236 711.782 10.0314 707.794 6.43716L706.455 7.92283ZM711.795 19.85C711.795 24.6041 710.026 28.5844 706.45 31.8517L707.799 33.3283C711.783 29.6889 713.795 25.1759 713.795 19.85H711.795ZM706.451 31.8513C702.936 35.0587 698.316 36.7 692.495 36.7V38.7C698.714 38.7 703.847 36.9346 707.799 33.3287L706.451 31.8513ZM692.495 36.7H681.645V38.7H692.495V36.7ZM680.645 37.7V51H682.645V37.7H680.645ZM681.645 50H668.695V52H681.645V50ZM681.645 26.8H692.145V24.8H681.645V26.8ZM692.145 26.8C694.697 26.8 696.799 26.2381 698.267 24.939L696.942 23.441C695.984 24.2885 694.445 24.8 692.145 24.8V26.8ZM698.253 24.9512C699.76 23.6676 700.495 21.9301 700.495 19.85H698.495C698.495 21.4099 697.969 22.5658 696.956 23.4288L698.253 24.9512ZM700.495 19.85C700.495 17.7699 699.76 16.0324 698.253 14.7488L696.956 16.2712C697.969 17.1342 698.495 18.2901 698.495 19.85H700.495ZM698.267 14.761C696.799 13.4619 694.697 12.9 692.145 12.9V14.9C694.445 14.9 695.984 15.4115 696.942 16.259L698.267 14.761ZM692.145 12.9H681.645V14.9H692.145V12.9ZM680.645 13.9V25.8H682.645V13.9H680.645ZM713.5 51L712.535 50.738L712.192 52H713.5V51ZM726.8 2V0.999997H726.035L725.835 1.73805L726.8 2ZM750.6 2L751.565 1.73805L751.365 0.999997H750.6V2ZM763.9 51V52H765.208L764.865 50.738L763.9 51ZM750.6 51L749.63 51.2425L749.819 52H750.6V51ZM748.15 41.2L749.12 40.9575L748.931 40.2H748.15V41.2ZM729.25 41.2V40.2H728.469L728.28 40.9575L729.25 41.2ZM726.8 51V52H727.581L727.77 51.2425L726.8 51ZM732.05 30L731.082 29.7476L730.756 31H732.05V30ZM745.35 30V31H746.644L746.318 29.7476L745.35 30ZM741.15 13.9L742.118 13.6476L741.923 12.9H741.15V13.9ZM736.25 13.9V12.9H735.477L735.282 13.6476L736.25 13.9ZM714.465 51.262L727.765 2.26195L725.835 1.73805L712.535 50.738L714.465 51.262ZM726.8 3H750.6V0.999997H726.8V3ZM749.635 2.26195L762.935 51.262L764.865 50.738L751.565 1.73805L749.635 2.26195ZM763.9 50H750.6V52H763.9V50ZM751.57 50.7575L749.12 40.9575L747.18 41.4425L749.63 51.2425L751.57 50.7575ZM748.15 40.2H729.25V42.2H748.15V40.2ZM728.28 40.9575L725.83 50.7575L727.77 51.2425L730.22 41.4425L728.28 40.9575ZM726.8 50H713.5V52H726.8V50ZM732.05 31H745.35V29H732.05V31ZM746.318 29.7476L742.118 13.6476L740.182 14.1524L744.382 30.2524L746.318 29.7476ZM741.15 12.9H736.25V14.9H741.15V12.9ZM735.282 13.6476L731.082 29.7476L733.018 30.2524L737.218 14.1524L735.282 13.6476ZM768.431 51H767.431V52H768.431V51ZM768.431 2V0.999997H767.431V2H768.431ZM807.071 9.07L806.388 9.80039L806.391 9.80376L807.071 9.07ZM807.071 44L807.75 44.7338L807.754 44.7304L807.071 44ZM781.381 39.1H780.381V40.1H781.381V39.1ZM797.411 35.74L796.726 35.0118L797.411 35.74ZM797.411 17.26L796.726 17.9882L797.411 17.26ZM781.381 13.9V12.9H780.381V13.9H781.381ZM769.431 51V2H767.431V51H769.431ZM768.431 3H787.401V0.999997H768.431V3ZM787.401 3C795.267 3 801.564 5.28936 806.388 9.80038L807.754 8.33962C802.498 3.42397 795.682 0.999997 787.401 0.999997V3ZM806.391 9.80376C811.224 14.2785 813.631 19.8213 813.631 26.5H815.631C815.631 19.272 812.997 13.1948 807.75 8.33624L806.391 9.80376ZM813.631 26.5C813.631 33.1789 811.224 38.747 806.388 43.2696L807.754 44.7304C812.998 39.8263 815.631 33.7278 815.631 26.5H813.631ZM806.391 43.2662C801.568 47.7323 795.269 50 787.401 50V52C795.679 52 802.494 49.6011 807.75 44.7338L806.391 43.2662ZM787.401 50H768.431V52H787.401V50ZM781.381 40.1H787.331V38.1H781.381V40.1ZM787.331 40.1C791.84 40.1 795.477 38.9338 798.096 36.4682L796.726 35.0118C794.585 37.0262 791.502 38.1 787.331 38.1V40.1ZM798.096 36.4682C800.717 34.002 801.981 30.6363 801.981 26.5H799.981C799.981 30.2037 798.865 32.998 796.726 35.0118L798.096 36.4682ZM801.981 26.5C801.981 22.3637 800.717 18.998 798.096 16.5318L796.726 17.9882C798.865 20.002 799.981 22.7963 799.981 26.5H801.981ZM798.096 16.5318C795.477 14.0662 791.84 12.9 787.331 12.9V14.9C791.502 14.9 794.585 15.9738 796.726 17.9882L798.096 16.5318ZM787.331 12.9H781.381V14.9H787.331V12.9ZM780.381 13.9V39.1H782.381V13.9H780.381Z" fill="url(#paint0_linear_766_34547)"/>
<defs>
<linearGradient id="paint0_linear_766_34547" x1="407" y1="-58.7467" x2="407" y2="62" gradientUnits="userSpaceOnUse">
<stop stop-color="#2CE7FF"/>
<stop offset="1" stop-color="#2CE7FF" stop-opacity="0"/>
</linearGradient>
</defs>
</svg>
