<svg width="634" height="51" viewBox="0 0 634 51" fill="none" xmlns="http://www.w3.org/2000/svg">
<path opacity="0.8" d="M0.0799999 1.4V0.399998H-0.92V1.4H0.0799999ZM12.66 1.4H13.66V0.399998H12.66V1.4ZM15.04 36.352L14.323 37.0491V37.0491L15.04 36.352ZM27.96 36.352L28.677 37.0491V37.0491L27.96 36.352ZM30.34 1.4V0.399998H29.34V1.4H30.34ZM42.92 1.4H43.92V0.399998H42.92V1.4ZM37.14 44.784L36.4457 44.0643L37.14 44.784ZM5.86 44.784L6.55429 44.0643L5.86 44.784ZM1.08 29.96V1.4H-0.92V29.96H1.08ZM0.0799999 2.4H12.66V0.399998H0.0799999V2.4ZM11.66 1.4V29.62H13.66V1.4H11.66ZM11.66 29.62C11.66 32.6667 12.5115 35.1858 14.323 37.0491L15.757 35.6549C14.3952 34.2542 13.66 32.2853 13.66 29.62H11.66ZM14.323 37.0491C16.1341 38.9119 18.5666 39.8 21.5 39.8V37.8C18.9934 37.8 17.1192 37.0561 15.757 35.6549L14.323 37.0491ZM21.5 39.8C24.4334 39.8 26.8659 38.9119 28.677 37.0491L27.243 35.6549C25.8808 37.0561 24.0066 37.8 21.5 37.8V39.8ZM28.677 37.0491C30.4885 35.1858 31.34 32.6667 31.34 29.62H29.34C29.34 32.2853 28.6048 34.2542 27.243 35.6549L28.677 37.0491ZM31.34 29.62V1.4H29.34V29.62H31.34ZM30.34 2.4H42.92V0.399998H30.34V2.4ZM41.92 1.4V29.96H43.92V1.4H41.92ZM41.92 29.96C41.92 35.8987 40.0736 40.5645 36.4457 44.0643L37.8343 45.5037C41.9131 41.5689 43.92 36.3519 43.92 29.96H41.92ZM36.4457 44.0643C32.8193 47.5628 27.8767 49.36 21.5 49.36V51.36C28.27 51.36 33.7541 49.4399 37.8343 45.5037L36.4457 44.0643ZM21.5 49.36C15.1233 49.36 10.1807 47.5628 6.55429 44.0643L5.16571 45.5037C9.24593 49.4399 14.73 51.36 21.5 51.36V49.36ZM6.55429 44.0643C2.92639 40.5645 1.08 35.8987 1.08 29.96H-0.92C-0.92 36.3519 1.08694 41.5689 5.16571 45.5037L6.55429 44.0643ZM51.42 49H50.42V50H51.42V49ZM51.42 1.4V0.399998H50.42V1.4H51.42ZM88.752 6.432L88.0729 7.16616L88.0825 7.17484L88.752 6.432ZM88.752 31.116L89.4261 31.8547L89.4265 31.8543L88.752 31.116ZM64 36.08V35.08H63V36.08H64ZM64 49V50H65V49H64ZM64 24.52H63V25.52H64V24.52ZM79.504 22.956L78.8555 22.1948L78.8484 22.2008L78.8414 22.207L79.504 22.956ZM79.504 14.524L78.8414 15.273L78.8484 15.2792L78.8555 15.2852L79.504 14.524ZM64 12.96V11.96H63V12.96H64ZM52.42 49V1.4H50.42V49H52.42ZM51.42 2.4H74.54V0.399998H51.42V2.4ZM74.54 2.4C80.1854 2.4 84.6643 4.01305 88.073 7.1661L89.431 5.6979C85.5864 2.14161 80.5906 0.399998 74.54 0.399998V2.4ZM88.0825 7.17484C91.5464 10.2966 93.26 14.1304 93.26 18.74H95.26C95.26 13.5576 93.3016 9.18603 89.4215 5.68916L88.0825 7.17484ZM93.26 18.74C93.26 23.3501 91.5459 27.2091 88.0775 30.3777L89.4265 31.8543C93.3021 28.3136 95.26 23.9219 95.26 18.74H93.26ZM88.0779 30.3773C84.6697 33.4874 80.189 35.08 74.54 35.08V37.08C80.587 37.08 85.581 35.3633 89.426 31.8547L88.0779 30.3773ZM74.54 35.08H64V37.08H74.54V35.08ZM63 36.08V49H65V36.08H63ZM64 48H51.42V50H64V48ZM64 25.52H74.2V23.52H64V25.52ZM74.2 25.52C76.6834 25.52 78.7327 24.9735 80.1666 23.705L78.8414 22.207C77.918 23.0239 76.4313 23.52 74.2 23.52V25.52ZM80.1525 23.7172C81.6234 22.4642 82.34 20.7681 82.34 18.74H80.34C80.34 20.2479 79.8326 21.3624 78.8555 22.1948L80.1525 23.7172ZM82.34 18.74C82.34 16.7119 81.6234 15.0158 80.1525 13.7628L78.8555 15.2852C79.8326 16.1176 80.34 17.2321 80.34 18.74H82.34ZM80.1666 13.775C78.7327 12.5065 76.6834 11.96 74.2 11.96V13.96C76.4313 13.96 77.918 14.4561 78.8414 15.273L80.1666 13.775ZM74.2 11.96H64V13.96H74.2V11.96ZM63 12.96V24.52H65V12.96H63ZM106.065 43.22L105.368 43.9369L105.375 43.9434L106.065 43.22ZM106.065 7.248L106.759 7.9682L106.759 7.96808L106.065 7.248ZM145.369 9.424L146.165 8.81791L146.157 8.80769L145.369 9.424ZM149.993 18.74V19.74H151.3L150.959 18.4791L149.993 18.74ZM137.073 18.74L136.173 19.1756L136.446 19.74H137.073V18.74ZM134.557 15.204L133.85 15.9111L133.859 15.9193L133.867 15.9274L134.557 15.204ZM115.585 15.34L114.872 14.6394L115.585 15.34ZM115.585 35.06L114.872 35.7606L115.585 35.06ZM135.101 34.72L134.354 34.0556L134.346 34.0651L135.101 34.72ZM137.413 30.64V29.64H136.672L136.456 30.35L137.413 30.64ZM150.333 30.64L151.298 30.9021L151.641 29.64H150.333V30.64ZM145.505 40.5L144.711 39.8921L144.706 39.8991L144.701 39.9062L145.505 40.5ZM106.763 42.5031C102.025 37.8955 99.6534 32.1518 99.6534 25.2H97.6534C97.6534 32.6642 100.224 38.9339 105.368 43.9369L106.763 42.5031ZM99.6534 25.2C99.6534 18.2483 102.024 12.5293 106.759 7.9682L105.372 6.5278C100.224 11.4867 97.6534 17.7357 97.6534 25.2H99.6534ZM106.759 7.96808C111.537 3.36436 117.647 1.04 125.173 1.04V-0.960003C117.196 -0.960003 110.567 1.52098 105.372 6.52792L106.759 7.96808ZM125.173 1.04C133.462 1.04 139.892 4.04759 144.582 10.0403L146.157 8.80769C141.055 2.28841 134.021 -0.960003 125.173 -0.960003V1.04ZM144.574 10.03C146.674 12.7866 148.156 15.7754 149.028 19.0009L150.959 18.4791C150.017 14.9953 148.417 11.7734 146.165 8.81796L144.574 10.03ZM149.993 17.74H137.073V19.74H149.993V17.74ZM137.974 18.3044C137.248 16.8055 136.342 15.5254 135.248 14.4806L133.867 15.9274C134.767 16.7866 135.539 17.8638 136.173 19.1756L137.974 18.3044ZM135.265 14.4969C132.649 11.881 129.253 10.6 125.173 10.6V12.6C128.8 12.6 131.661 13.7217 133.85 15.9111L135.265 14.4969ZM125.173 10.6C120.999 10.6 117.533 11.9292 114.872 14.6394L116.299 16.0406C118.534 13.7642 121.46 12.6 125.173 12.6V10.6ZM114.872 14.6394C112.21 17.351 110.913 20.9052 110.913 25.2H112.913C112.913 21.3348 114.065 18.3157 116.299 16.0406L114.872 14.6394ZM110.913 25.2C110.913 29.4948 112.21 33.049 114.872 35.7606L116.299 34.3594C114.065 32.0843 112.913 29.0652 112.913 25.2H110.913ZM114.872 35.7606C117.533 38.4708 120.999 39.8 125.173 39.8V37.8C121.46 37.8 118.534 36.6358 116.299 34.3594L114.872 35.7606ZM125.173 39.8C129.666 39.8 133.275 38.3549 135.857 35.3749L134.346 34.0651C132.214 36.5251 129.203 37.8 125.173 37.8V39.8ZM135.849 35.3844C137.028 34.0575 137.873 32.5711 138.37 30.93L136.456 30.35C136.047 31.7009 135.351 32.9345 134.354 34.0556L135.849 35.3844ZM137.413 31.64H150.333V29.64H137.413V31.64ZM149.368 30.3779C148.404 33.9299 146.851 37.0981 144.711 39.8921L146.299 41.1079C148.603 38.0993 150.269 34.6941 151.298 30.9021L149.368 30.3779ZM144.701 39.9062C140.053 46.2052 133.584 49.36 125.173 49.36V51.36C134.171 51.36 141.257 47.9415 146.31 41.0938L144.701 39.9062ZM125.173 49.36C117.644 49.36 111.533 47.0565 106.756 42.4966L105.375 43.9434C110.571 48.9035 117.199 51.36 125.173 51.36V49.36ZM162.247 43.016L161.543 43.7264L161.549 43.7327L162.247 43.016ZM162.247 7.452L162.947 8.16557L162.947 8.1655L162.247 7.452ZM200.259 7.452L199.555 8.16236L199.561 8.16872L200.259 7.452ZM200.259 43.016L200.959 43.7296L200.959 43.7295L200.259 43.016ZM171.699 15.34L170.985 14.6394L171.699 15.34ZM171.699 35.06L170.985 35.7606L171.699 35.06ZM190.875 35.06L191.588 35.7606L190.875 35.06ZM190.875 15.34L191.588 14.6394L190.875 15.34ZM162.951 42.3057C158.151 37.5496 155.767 31.8656 155.767 25.2H153.767C153.767 32.4064 156.369 38.5998 161.543 43.7263L162.951 42.3057ZM155.767 25.2C155.767 18.5347 158.151 12.8751 162.947 8.16557L161.546 6.73844C156.37 11.8209 153.767 17.9933 153.767 25.2H155.767ZM162.947 8.1655C167.775 3.42451 173.863 1.04 181.287 1.04V-0.960003C173.388 -0.960003 166.782 1.59682 161.546 6.73849L162.947 8.1655ZM181.287 1.04C188.711 1.04 194.773 3.42439 199.555 8.16233L200.963 6.74167C195.771 1.59694 189.185 -0.960003 181.287 -0.960003V1.04ZM199.561 8.16872C204.403 12.8791 206.807 18.5377 206.807 25.2H208.807C208.807 17.9903 206.179 11.8169 200.956 6.73527L199.561 8.16872ZM206.807 25.2C206.807 31.8626 204.402 37.5456 199.558 42.3025L200.959 43.7295C206.179 38.6037 208.807 32.4094 208.807 25.2H206.807ZM199.558 42.3024C194.777 46.9963 188.714 49.36 181.287 49.36V51.36C189.182 51.36 195.767 48.8277 200.959 43.7296L199.558 42.3024ZM181.287 49.36C173.86 49.36 167.772 46.9962 162.944 42.2993L161.549 43.7327C166.786 48.8278 173.391 51.36 181.287 51.36V49.36ZM170.985 14.6394C168.323 17.351 167.027 20.9052 167.027 25.2H169.027C169.027 21.3348 170.179 18.3157 172.412 16.0406L170.985 14.6394ZM167.027 25.2C167.027 29.4948 168.323 33.049 170.985 35.7606L172.412 34.3594C170.179 32.0843 169.027 29.0652 169.027 25.2H167.027ZM170.985 35.7606C173.646 38.4708 177.112 39.8 181.287 39.8V37.8C177.573 37.8 174.647 36.6358 172.412 34.3594L170.985 35.7606ZM181.287 39.8C185.461 39.8 188.927 38.4708 191.588 35.7606L190.161 34.3594C187.926 36.6358 185 37.8 181.287 37.8V39.8ZM191.588 35.7606C194.251 33.049 195.547 29.4948 195.547 25.2H193.547C193.547 29.0652 192.395 32.0843 190.161 34.3594L191.588 35.7606ZM195.547 25.2C195.547 20.9052 194.251 17.351 191.588 14.6394L190.161 16.0406C192.395 18.3157 193.547 21.3348 193.547 25.2H195.547ZM191.588 14.6394C188.927 11.9292 185.461 10.6 181.287 10.6V12.6C185 12.6 187.926 13.7642 190.161 16.0406L191.588 14.6394ZM181.287 10.6C177.112 10.6 173.646 11.9292 170.985 14.6394L172.412 16.0406C174.647 13.7642 177.573 12.6 181.287 12.6V10.6ZM214.58 49H213.58V50H214.58V49ZM214.58 1.4V0.399998H213.58V1.4H214.58ZM232.26 1.4L233.188 1.02639L232.935 0.399998H232.26V1.4ZM242.12 25.88L241.193 26.2536L241.445 26.88H242.12V25.88ZM243.82 25.88V26.88H244.495L244.748 26.2536L243.82 25.88ZM253.68 1.4V0.399998H253.005L252.753 1.02639L253.68 1.4ZM271.36 1.4H272.36V0.399998H271.36V1.4ZM271.36 49V50H272.36V49H271.36ZM258.78 49H257.78V50H258.78V49ZM258.78 21.8L257.794 21.6356L257.78 21.7172V21.8H258.78ZM259.8 15.68L260.787 15.8444L260.981 14.68H259.8V15.68ZM259.12 15.68V14.68H258.449L258.195 15.3014L259.12 15.68ZM249.94 38.12V39.12H250.612L250.866 38.4986L249.94 38.12ZM236 38.12L235.075 38.4986L235.329 39.12H236V38.12ZM226.82 15.68L227.746 15.3014L227.492 14.68H226.82V15.68ZM226.14 15.68V14.68H224.96L225.154 15.8444L226.14 15.68ZM227.16 21.8H228.16V21.7172L228.147 21.6356L227.16 21.8ZM227.16 49V50H228.16V49H227.16ZM215.58 49V1.4H213.58V49H215.58ZM214.58 2.4H232.26V0.399998H214.58V2.4ZM231.333 1.77361L241.193 26.2536L243.048 25.5064L233.188 1.02639L231.333 1.77361ZM242.12 26.88H243.82V24.88H242.12V26.88ZM244.748 26.2536L254.608 1.77361L252.753 1.02639L242.893 25.5064L244.748 26.2536ZM253.68 2.4H271.36V0.399998H253.68V2.4ZM270.36 1.4V49H272.36V1.4H270.36ZM271.36 48H258.78V50H271.36V48ZM259.78 49V21.8H257.78V49H259.78ZM259.767 21.9644L260.787 15.8444L258.814 15.5156L257.794 21.6356L259.767 21.9644ZM259.8 14.68H259.12V16.68H259.8V14.68ZM258.195 15.3014L249.015 37.7414L250.866 38.4986L260.046 16.0586L258.195 15.3014ZM249.94 37.12H236V39.12H249.94V37.12ZM236.926 37.7414L227.746 15.3014L225.895 16.0586L235.075 38.4986L236.926 37.7414ZM226.82 14.68H226.14V16.68H226.82V14.68ZM225.154 15.8444L226.174 21.9644L228.147 21.6356L227.127 15.5156L225.154 15.8444ZM226.16 21.8V49H228.16V21.8H226.16ZM227.16 48H214.58V50H227.16V48ZM280.19 49H279.19V50H280.19V49ZM280.19 1.4V0.399998H279.19V1.4H280.19ZM292.77 1.4H293.77V0.399998H292.77V1.4ZM292.77 49V50H293.77V49H292.77ZM281.19 49V1.4H279.19V49H281.19ZM280.19 2.4H292.77V0.399998H280.19V2.4ZM291.77 1.4V49H293.77V1.4H291.77ZM292.77 48H280.19V50H292.77V48ZM301.639 49H300.639V50H301.639V49ZM301.639 1.4V0.399998H300.639V1.4H301.639ZM316.939 1.4L317.812 0.913511L317.527 0.399998H316.939V1.4ZM333.599 31.32L332.725 31.8065L333.011 32.32H333.599V31.32ZM334.279 31.32V32.32H335.459L335.265 31.1556L334.279 31.32ZM333.259 25.2H332.259V25.2828L332.272 25.3644L333.259 25.2ZM333.259 1.4V0.399998H332.259V1.4H333.259ZM345.839 1.4H346.839V0.399998H345.839V1.4ZM345.839 49V50H346.839V49H345.839ZM330.539 49L329.665 49.4865L329.951 50H330.539V49ZM313.879 19.08L314.752 18.5935L314.466 18.08H313.879V19.08ZM313.199 19.08V18.08H312.018L312.212 19.2444L313.199 19.08ZM314.219 25.2H315.219V25.1172L315.205 25.0356L314.219 25.2ZM314.219 49V50H315.219V49H314.219ZM302.639 49V1.4H300.639V49H302.639ZM301.639 2.4H316.939V0.399998H301.639V2.4ZM316.065 1.88648L332.725 31.8065L334.472 30.8335L317.812 0.913511L316.065 1.88648ZM333.599 32.32H334.279V30.32H333.599V32.32ZM335.265 31.1556L334.245 25.0356L332.272 25.3644L333.292 31.4844L335.265 31.1556ZM334.259 25.2V1.4H332.259V25.2H334.259ZM333.259 2.4H345.839V0.399998H333.259V2.4ZM344.839 1.4V49H346.839V1.4H344.839ZM345.839 48H330.539V50H345.839V48ZM331.412 48.5135L314.752 18.5935L313.005 19.5665L329.665 49.4865L331.412 48.5135ZM313.879 18.08H313.199V20.08H313.879V18.08ZM312.212 19.2444L313.232 25.3644L315.205 25.0356L314.185 18.9156L312.212 19.2444ZM313.219 25.2V49H315.219V25.2H313.219ZM314.219 48H301.639V50H314.219V48ZM360.069 43.22L359.372 43.9369L359.379 43.9434L360.069 43.22ZM360.069 7.248L360.763 7.9682L360.763 7.96808L360.069 7.248ZM399.373 9.084L400.156 8.46091L400.152 8.45716L399.373 9.084ZM403.997 18.06V19.06H405.326L404.958 17.7835L403.997 18.06ZM391.077 18.06L390.19 18.5203L390.469 19.06H391.077V18.06ZM388.561 14.864L387.897 15.6115L387.905 15.6186L388.561 14.864ZM369.589 15.34L368.876 14.6394L369.589 15.34ZM369.589 35.06L368.876 35.7606L369.589 35.06ZM388.697 35.4L389.377 36.1338L389.391 36.1207L389.404 36.1071L388.697 35.4ZM391.077 32L391.998 32.3896L392.586 31H391.077V32ZM384.617 32H383.617V33H384.617V32ZM384.617 22.48V21.48H383.617V22.48H384.617ZM409.437 22.48H410.437V21.48H409.437V22.48ZM409.437 32V33H410.437V32H409.437ZM404.065 32V31H403.332L403.112 31.6989L404.065 32ZM399.169 41.18L398.394 40.5489L398.391 40.5518L399.169 41.18ZM360.767 42.5031C356.028 37.8955 353.657 32.1518 353.657 25.2H351.657C351.657 32.6642 354.228 38.9339 359.372 43.9369L360.767 42.5031ZM353.657 25.2C353.657 18.2483 356.028 12.5293 360.763 7.9682L359.376 6.5278C354.228 11.4867 351.657 17.7357 351.657 25.2H353.657ZM360.763 7.96808C365.541 3.36436 371.651 1.04 379.177 1.04V-0.960003C371.2 -0.960003 364.571 1.52098 359.375 6.52792L360.763 7.96808ZM379.177 1.04C387.527 1.04 393.956 3.94617 398.594 9.71083L400.152 8.45716C395.089 2.16316 388.055 -0.960003 379.177 -0.960003V1.04ZM398.591 9.70708C400.639 12.2783 402.12 15.1524 403.036 18.3365L404.958 17.7835C403.97 14.349 402.369 11.239 400.156 8.46092L398.591 9.70708ZM403.997 17.06H391.077V19.06H403.997V17.06ZM391.965 17.5997C391.272 16.2636 390.355 15.0985 389.218 14.1094L387.905 15.6186C388.853 16.4428 389.613 17.4084 390.19 18.5203L391.965 17.5997ZM389.226 14.1166C386.565 11.7518 383.188 10.6 379.177 10.6V12.6C382.783 12.6 385.661 13.6242 387.897 15.6114L389.226 14.1166ZM379.177 10.6C375.003 10.6 371.537 11.9292 368.876 14.6394L370.303 16.0406C372.538 13.7642 375.464 12.6 379.177 12.6V10.6ZM368.876 14.6394C366.214 17.351 364.917 20.9052 364.917 25.2H366.917C366.917 21.3348 368.069 18.3157 370.303 16.0406L368.876 14.6394ZM364.917 25.2C364.917 29.4948 366.214 33.049 368.876 35.7606L370.303 34.3594C368.069 32.0843 366.917 29.0652 366.917 25.2H364.917ZM368.876 35.7606C371.537 38.4708 375.003 39.8 379.177 39.8V37.8C375.464 37.8 372.538 36.6358 370.303 34.3594L368.876 35.7606ZM379.177 39.8C383.283 39.8 386.713 38.6001 389.377 36.1338L388.018 34.6662C385.786 36.7333 382.869 37.8 379.177 37.8V39.8ZM389.404 36.1071C390.566 34.946 391.44 33.7083 391.998 32.3896L390.156 31.6104C389.717 32.649 389.005 33.678 387.99 34.6929L389.404 36.1071ZM391.077 31H384.617V33H391.077V31ZM385.617 32V22.48H383.617V32H385.617ZM384.617 23.48H409.437V21.48H384.617V23.48ZM408.437 22.48V32H410.437V22.48H408.437ZM409.437 31H404.065V33H409.437V31ZM403.112 31.6989C402.06 35.0298 400.486 37.9767 398.394 40.5489L399.945 41.8111C402.204 39.034 403.895 35.8608 405.019 32.3011L403.112 31.6989ZM398.391 40.5518C393.654 46.4193 387.285 49.36 379.177 49.36V51.36C387.843 51.36 394.802 48.1807 399.947 41.8082L398.391 40.5518ZM379.177 49.36C371.648 49.36 365.537 47.0565 360.76 42.4966L359.379 43.9434C364.575 48.9035 371.203 51.36 379.177 51.36V49.36ZM433.256 49H432.256V50H433.256V49ZM433.256 1.4V0.399998H432.256V1.4H433.256ZM470.588 6.432L469.909 7.16616L469.918 7.17484L470.588 6.432ZM470.588 31.116L471.262 31.8547L471.262 31.8543L470.588 31.116ZM445.836 36.08V35.08H444.836V36.08H445.836ZM445.836 49V50H446.836V49H445.836ZM445.836 24.52H444.836V25.52H445.836V24.52ZM461.34 22.956L460.691 22.1948L460.684 22.2008L460.677 22.207L461.34 22.956ZM461.34 14.524L460.677 15.273L460.684 15.2792L460.691 15.2852L461.34 14.524ZM445.836 12.96V11.96H444.836V12.96H445.836ZM434.256 49V1.4H432.256V49H434.256ZM433.256 2.4H456.376V0.399998H433.256V2.4ZM456.376 2.4C462.021 2.4 466.5 4.01305 469.909 7.1661L471.267 5.6979C467.422 2.14161 462.427 0.399998 456.376 0.399998V2.4ZM469.918 7.17484C473.382 10.2966 475.096 14.1304 475.096 18.74H477.096C477.096 13.5576 475.138 9.18603 471.257 5.68916L469.918 7.17484ZM475.096 18.74C475.096 23.3501 473.382 27.2091 469.913 30.3777L471.262 31.8543C475.138 28.3136 477.096 23.9219 477.096 18.74H475.096ZM469.914 30.3773C466.506 33.4874 462.025 35.08 456.376 35.08V37.08C462.423 37.08 467.417 35.3633 471.262 31.8547L469.914 30.3773ZM456.376 35.08H445.836V37.08H456.376V35.08ZM444.836 36.08V49H446.836V36.08H444.836ZM445.836 48H433.256V50H445.836V48ZM445.836 25.52H456.036V23.52H445.836V25.52ZM456.036 25.52C458.519 25.52 460.569 24.9735 462.003 23.705L460.677 22.207C459.754 23.0239 458.267 23.52 456.036 23.52V25.52ZM461.988 23.7172C463.459 22.4642 464.176 20.7681 464.176 18.74H462.176C462.176 20.2479 461.669 21.3624 460.691 22.1948L461.988 23.7172ZM464.176 18.74C464.176 16.7119 463.459 15.0158 461.988 13.7628L460.691 15.2852C461.669 16.1176 462.176 17.2321 462.176 18.74H464.176ZM462.003 13.775C460.569 12.5065 458.519 11.96 456.036 11.96V13.96C458.267 13.96 459.754 14.4561 460.677 15.273L462.003 13.775ZM456.036 11.96H445.836V13.96H456.036V11.96ZM444.836 12.96V24.52H446.836V12.96H444.836ZM487.969 43.016L487.265 43.7264L487.272 43.7327L487.969 43.016ZM487.969 7.452L488.67 8.16557L488.67 8.1655L487.969 7.452ZM525.981 7.452L525.277 8.16236L525.284 8.16872L525.981 7.452ZM525.981 43.016L526.682 43.7296L526.682 43.7295L525.981 43.016ZM497.421 15.34L496.708 14.6394L497.421 15.34ZM497.421 35.06L496.708 35.7606L497.421 35.06ZM516.597 35.06L517.311 35.7606L516.597 35.06ZM516.597 15.34L517.311 14.6394L516.597 15.34ZM488.673 42.3057C483.874 37.5496 481.489 31.8656 481.489 25.2H479.489C479.489 32.4064 482.092 38.5998 487.266 43.7263L488.673 42.3057ZM481.489 25.2C481.489 18.5347 483.873 12.8751 488.67 8.16557L487.269 6.73844C482.092 11.8209 479.489 17.9933 479.489 25.2H481.489ZM488.67 8.1655C493.498 3.42451 499.585 1.04 507.009 1.04V-0.960003C499.111 -0.960003 492.505 1.59682 487.269 6.73849L488.67 8.1655ZM507.009 1.04C514.434 1.04 520.496 3.42439 525.278 8.16233L526.685 6.74167C521.493 1.59694 514.908 -0.960003 507.009 -0.960003V1.04ZM525.284 8.16872C530.125 12.8791 532.529 18.5377 532.529 25.2H534.529C534.529 17.9903 531.902 11.8169 526.679 6.73527L525.284 8.16872ZM532.529 25.2C532.529 31.8626 530.125 37.5456 525.281 42.3025L526.682 43.7295C531.902 38.6037 534.529 32.4094 534.529 25.2H532.529ZM525.281 42.3024C520.5 46.9963 514.436 49.36 507.009 49.36V51.36C514.905 51.36 521.489 48.8277 526.682 43.7296L525.281 42.3024ZM507.009 49.36C499.582 49.36 493.494 46.9962 488.667 42.2993L487.272 43.7327C492.509 48.8278 499.114 51.36 507.009 51.36V49.36ZM496.708 14.6394C494.046 17.351 492.749 20.9052 492.749 25.2H494.749C494.749 21.3348 495.901 18.3157 498.135 16.0406L496.708 14.6394ZM492.749 25.2C492.749 29.4948 494.046 33.049 496.708 35.7606L498.135 34.3594C495.901 32.0843 494.749 29.0652 494.749 25.2H492.749ZM496.708 35.7606C499.369 38.4708 502.835 39.8 507.009 39.8V37.8C503.296 37.8 500.37 36.6358 498.135 34.3594L496.708 35.7606ZM507.009 39.8C511.184 39.8 514.65 38.4708 517.311 35.7606L515.884 34.3594C513.649 36.6358 510.723 37.8 507.009 37.8V39.8ZM517.311 35.7606C519.973 33.049 521.269 29.4948 521.269 25.2H519.269C519.269 29.0652 518.118 32.0843 515.884 34.3594L517.311 35.7606ZM521.269 25.2C521.269 20.9052 519.973 17.351 517.311 14.6394L515.884 16.0406C518.118 18.3157 519.269 21.3348 519.269 25.2H521.269ZM517.311 14.6394C514.65 11.9292 511.184 10.6 507.009 10.6V12.6C510.723 12.6 513.649 13.7642 515.884 16.0406L517.311 14.6394ZM507.009 10.6C502.835 10.6 499.369 11.9292 496.708 14.6394L498.135 16.0406C500.37 13.7642 503.296 12.6 507.009 12.6V10.6ZM545.743 43.016L545.039 43.7264L545.045 43.7327L545.743 43.016ZM545.743 7.452L546.443 8.16557L546.443 8.1655L545.743 7.452ZM583.755 7.452L583.051 8.16236L583.057 8.16872L583.755 7.452ZM583.755 43.016L584.455 43.7296L584.455 43.7295L583.755 43.016ZM555.195 15.34L554.481 14.6394L555.195 15.34ZM555.195 35.06L554.481 35.7606L555.195 35.06ZM574.371 35.06L575.084 35.7606L574.371 35.06ZM574.371 15.34L575.084 14.6394L574.371 15.34ZM546.447 42.3057C541.647 37.5496 539.263 31.8656 539.263 25.2H537.263C537.263 32.4064 539.865 38.5998 545.039 43.7263L546.447 42.3057ZM539.263 25.2C539.263 18.5347 541.647 12.8751 546.443 8.16557L545.042 6.73844C539.866 11.8209 537.263 17.9933 537.263 25.2H539.263ZM546.443 8.1655C551.271 3.42451 557.359 1.04 564.783 1.04V-0.960003C556.884 -0.960003 550.278 1.59682 545.042 6.73849L546.443 8.1655ZM564.783 1.04C572.207 1.04 578.27 3.42439 583.051 8.16233L584.459 6.74167C579.267 1.59694 572.681 -0.960003 564.783 -0.960003V1.04ZM583.057 8.16872C587.899 12.8791 590.303 18.5377 590.303 25.2H592.303C592.303 17.9903 589.675 11.8169 584.452 6.73527L583.057 8.16872ZM590.303 25.2C590.303 31.8626 587.898 37.5456 583.054 42.3025L584.455 43.7295C589.675 38.6037 592.303 32.4094 592.303 25.2H590.303ZM583.054 42.3024C578.273 46.9963 572.21 49.36 564.783 49.36V51.36C572.679 51.36 579.263 48.8277 584.455 43.7296L583.054 42.3024ZM564.783 49.36C557.356 49.36 551.268 46.9962 546.44 42.2993L545.045 43.7327C550.282 48.8278 556.887 51.36 564.783 51.36V49.36ZM554.481 14.6394C551.819 17.351 550.523 20.9052 550.523 25.2H552.523C552.523 21.3348 553.675 18.3157 555.908 16.0406L554.481 14.6394ZM550.523 25.2C550.523 29.4948 551.819 33.049 554.481 35.7606L555.908 34.3594C553.675 32.0843 552.523 29.0652 552.523 25.2H550.523ZM554.481 35.7606C557.142 38.4708 560.608 39.8 564.783 39.8V37.8C561.069 37.8 558.143 36.6358 555.908 34.3594L554.481 35.7606ZM564.783 39.8C568.957 39.8 572.423 38.4708 575.084 35.7606L573.657 34.3594C571.422 36.6358 568.496 37.8 564.783 37.8V39.8ZM575.084 35.7606C577.747 33.049 579.043 29.4948 579.043 25.2H577.043C577.043 29.0652 575.891 32.0843 573.657 34.3594L575.084 35.7606ZM579.043 25.2C579.043 20.9052 577.747 17.351 575.084 14.6394L573.657 16.0406C575.891 18.3157 577.043 21.3348 577.043 25.2H579.043ZM575.084 14.6394C572.423 11.9292 568.957 10.6 564.783 10.6V12.6C568.496 12.6 571.422 13.7642 573.657 16.0406L575.084 14.6394ZM564.783 10.6C560.608 10.6 557.142 11.9292 554.481 14.6394L555.908 16.0406C558.143 13.7642 561.069 12.6 564.783 12.6V10.6ZM598.076 49H597.076V50H598.076V49ZM598.076 1.4V0.399998H597.076V1.4H598.076ZM610.656 1.4H611.656V0.399998H610.656V1.4ZM610.656 37.44H609.656V38.44H610.656V37.44ZM633.436 37.44H634.436V36.44H633.436V37.44ZM633.436 49V50H634.436V49H633.436ZM599.076 49V1.4H597.076V49H599.076ZM598.076 2.4H610.656V0.399998H598.076V2.4ZM609.656 1.4V37.44H611.656V1.4H609.656ZM610.656 38.44H633.436V36.44H610.656V38.44ZM632.436 37.44V49H634.436V37.44H632.436ZM633.436 48H598.076V50H633.436V48Z" fill="url(#paint0_linear_766_34770)"/>
<defs>
<linearGradient id="paint0_linear_766_34770" x1="315.5" y1="-94" x2="315.5" y2="49" gradientUnits="userSpaceOnUse">
<stop stop-color="#2CE7FF"/>
<stop offset="1" stop-color="#2CE7FF" stop-opacity="0"/>
</linearGradient>
</defs>
</svg>
