<svg width="24" height="24" viewBox="0 0 24 24" fill="none" xmlns="http://www.w3.org/2000/svg">
<path d="M22.0002 12.62V14.68C22.0002 15.24 21.5402 15.7 20.9702 15.7H19.0402C17.9602 15.7 16.9702 14.91 16.8802 13.83C16.8202 13.2 17.0602 12.61 17.4802 12.2C17.8502 11.82 18.3602 11.6 18.9202 11.6H20.9702C21.5402 11.6 22.0002 12.06 22.0002 12.62Z" fill="#212121"/>
<path d="M15.38 13.96C15.29 12.91 15.67 11.88 16.43 11.13C17.07 10.48 17.96 10.1 18.92 10.1H19.49C19.77 10.1 20 9.86999 19.96 9.58999C19.69 7.64999 18.01 6.14999 16 6.14999H6C3.79 6.14999 2 7.93999 2 10.15V17.15C2 19.36 3.79 21.15 6 21.15H16C18.02 21.15 19.69 19.65 19.96 17.71C20 17.43 19.77 17.2 19.49 17.2H19.04C17.14 17.2 15.54 15.78 15.38 13.96ZM13 11.9H7C6.59 11.9 6.25 11.57 6.25 11.15C6.25 10.73 6.59 10.4 7 10.4H13C13.41 10.4 13.75 10.74 13.75 11.15C13.75 11.56 13.41 11.9 13 11.9Z" fill="#212121"/>
<path d="M14.2106 3.98001C14.4706 4.25001 14.2406 4.65001 13.8606 4.65001H6.03064C4.94064 4.65001 3.92064 4.97001 3.07064 5.52001C2.68064 5.77001 2.15064 5.50001 2.34064 5.07001C2.90064 3.76001 4.21064 2.85001 5.72064 2.85001H11.3406C12.5006 2.85001 13.5306 3.26001 14.2106 3.98001Z" fill="#212121"/>
</svg>
