<svg width="45" height="28" viewBox="0 0 45 28" fill="none" xmlns="http://www.w3.org/2000/svg">
<path d="M9.33993 6.02547C16.4548 -0.942083 27.9876 -0.942083 35.1116 6.02547L35.9676 6.86305C36.3265 7.21281 36.3265 7.77426 35.9676 8.12402L33.0407 10.9957C32.8658 11.1706 32.5712 11.1706 32.3964 10.9957L31.2182 9.8452C26.2572 4.9854 18.2035 4.9854 13.2425 9.8452L11.9815 11.0786C11.8067 11.2534 11.5121 11.2534 11.3372 11.0786L8.40111 8.20685C8.04215 7.8571 8.04215 7.29564 8.40111 6.94588L9.33993 6.02547ZM41.1679 11.9529L43.7727 14.5025C44.1317 14.8523 44.1317 15.4137 43.7727 15.7635L32.019 27.2779C31.66 27.6276 31.0894 27.6276 30.7304 27.2779L22.3822 19.1046C22.2902 19.0217 22.1521 19.0217 22.0601 19.1046L13.7211 27.2779C13.3622 27.6276 12.7915 27.6276 12.4325 27.2779L0.669612 15.7727C0.31065 15.4229 0.31065 14.8615 0.669612 14.5117L3.27439 11.9622C3.63335 11.6124 4.20401 11.6124 4.56297 11.9622L12.9111 20.1355C13.0032 20.2183 13.1413 20.2183 13.2333 20.1355L21.5723 11.9622C21.9312 11.6124 22.5019 11.6124 22.8608 11.9622L31.209 20.1355C31.3011 20.2183 31.4391 20.2183 31.5312 20.1355L39.8793 11.9622C40.2291 11.6032 40.809 11.6032 41.1679 11.9529Z" fill="#3A99FB"/>
</svg>
