<svg width="24" height="24" viewBox="0 0 24 24" fill="none" xmlns="http://www.w3.org/2000/svg">
<path d="M0 12C0 5.37258 5.37258 0 12 0C18.6274 0 24 5.37258 24 12C24 18.6274 18.6274 24 12 24C5.37258 24 0 18.6274 0 12Z" fill="white"/>
<mask id="mask0_851_20326" style="mask-type:alpha" maskUnits="userSpaceOnUse" x="0" y="0" width="24" height="24">
<path fill-rule="evenodd" clip-rule="evenodd" d="M0 12C0 5.37258 5.37258 0 12 0C18.6274 0 24 5.37258 24 12C24 18.6274 18.6274 24 12 24C5.37258 24 0 18.6274 0 12Z" fill="white"/>
</mask>
<g mask="url(#mask0_851_20326)">
<path fill-rule="evenodd" clip-rule="evenodd" d="M10.4004 12C10.4004 11.5603 10.7167 11.2 11.1174 11.2C11.5181 11.2 11.8415 11.5603 11.8345 12C11.8345 12.4396 11.5181 12.8 11.1174 12.8C10.7238 12.8 10.4004 12.4396 10.4004 12ZM12.9663 12C12.9663 11.5603 13.2826 11.2 13.6833 11.2C14.084 11.2 14.4004 11.5603 14.4004 12C14.4004 12.4396 14.084 12.8 13.6833 12.8C13.2897 12.8 12.9663 12.4396 12.9663 12Z" fill="#7289DA"/>
<path fill-rule="evenodd" clip-rule="evenodd" d="M7.45257 5.19995H16.9474C17.7481 5.19995 18.4 5.84395 18.4 6.64195V19.2L16.8766 17.87L16.0192 17.0859L15.1122 16.253L15.4878 17.5479H7.45257C6.65189 17.5479 6 16.904 6 16.106V6.64195C6 5.84395 6.65189 5.19995 7.45257 5.19995ZM13.7447 13.775C13.9573 14.041 14.2123 14.342 14.2123 14.342C15.7783 14.293 16.3806 13.278 16.3806 13.278C16.3806 11.024 15.3602 9.19695 15.3602 9.19695C14.3399 8.44095 13.3691 8.46195 13.3691 8.46195L13.2699 8.57395C14.4745 8.93795 15.0343 9.46295 15.0343 9.46295C14.2974 9.06395 13.5746 8.86795 12.9015 8.79095C12.3913 8.73495 11.9024 8.74895 11.4702 8.80495C11.4331 8.80495 11.4013 8.81029 11.3656 8.8163C11.3604 8.81717 11.3551 8.81806 11.3497 8.81895C11.1017 8.83995 10.4994 8.93095 9.74126 9.25995C9.47909 9.37895 9.3232 9.46295 9.3232 9.46295C9.3232 9.46295 9.91131 8.90995 11.1867 8.54595L11.1159 8.46195C11.1159 8.46195 10.1451 8.44095 9.1248 9.19695C9.1248 9.19695 8.10446 11.024 8.10446 13.278C8.10446 13.278 8.69966 14.293 10.2656 14.342C10.2656 14.342 10.5278 14.0269 10.7403 13.761C9.84046 13.495 9.50034 12.935 9.50034 12.935C9.50034 12.935 9.5712 12.984 9.69874 13.054C9.70583 13.061 9.71291 13.068 9.72709 13.075C9.73771 13.082 9.74834 13.0872 9.75897 13.0925C9.7696 13.0977 9.78023 13.103 9.79086 13.11C9.968 13.208 10.1451 13.285 10.3081 13.348C10.5986 13.46 10.9458 13.5719 11.3497 13.649C11.8811 13.747 12.5047 13.7819 13.1849 13.656C13.5179 13.5999 13.8581 13.502 14.2123 13.355C14.4603 13.264 14.7367 13.131 15.0272 12.942C15.0272 12.942 14.6729 13.516 13.7447 13.775Z" fill="#7289DA"/>
</g>
</svg>
