<svg width="24" height="24" viewBox="0 0 24 24" fill="none" xmlns="http://www.w3.org/2000/svg">
<path fill-rule="evenodd" clip-rule="evenodd" d="M12 0C5.37258 0 0 5.37258 0 12C0 18.6274 5.37258 24 12 24C18.6274 24 24 18.6274 24 12C24 5.37258 18.6274 0 12 0ZM18.3893 9.06486C18.9054 9.99416 19.1997 11.0636 19.1997 12.202H19.2C19.2 12.4843 19.1818 12.7625 19.1467 13.0354H9.89122C9.89122 14.5592 11.2128 15.7944 12.8431 15.7944C13.9558 15.7944 14.9244 15.2187 15.4275 14.3688H18.8275C17.9364 16.8769 15.5425 18.6729 12.7288 18.6729C11.701 18.6729 10.7295 18.4329 9.86646 18.0066C9.06496 18.4213 3.32115 21.1997 5.16151 14.6203C5.17379 14.5765 5.4575 13.8386 6.04029 12.7824C6.15146 12.5809 6.2749 12.3668 6.408 12.1447L6.4133 12.1359C6.46282 12.0534 6.5136 11.97 6.5662 11.8852L6.57479 11.8714C6.62732 11.7868 6.68092 11.7016 6.73647 11.615L6.73801 11.6126C6.949 11.2839 7.1826 10.9418 7.43828 10.5929C7.44745 10.5804 7.45656 10.5679 7.46567 10.5554C7.4846 10.5294 7.50351 10.5035 7.52294 10.4773C7.5544 10.4351 7.58673 10.3926 7.61908 10.3502C7.62812 10.3383 7.63716 10.3264 7.64618 10.3146C7.65321 10.3053 7.66022 10.2961 7.66724 10.2869C7.6968 10.248 7.72635 10.2092 7.75661 10.1702C7.7938 10.1223 7.83184 10.0744 7.86993 10.0264L7.87643 10.0182C7.91796 9.96585 7.95955 9.91345 8.00208 9.86099C8.0414 9.81249 8.08145 9.76398 8.12163 9.71541C8.16705 9.66053 8.21294 9.60565 8.25943 9.55078C8.29928 9.50375 8.3396 9.45679 8.38026 9.40982C8.4293 9.3532 8.47901 9.29671 8.52919 9.24023C8.56958 9.19474 8.61003 9.14939 8.65116 9.10404C8.70409 9.04567 8.75803 8.9875 8.81231 8.92941C8.82148 8.91959 8.83064 8.90978 8.8398 8.89996C8.87111 8.86642 8.90242 8.83286 8.93434 8.79939C8.99244 8.73847 9.05181 8.67796 9.11132 8.61738C9.12219 8.60631 9.13302 8.59523 9.14385 8.58415C9.17219 8.55517 9.20051 8.52621 9.22939 8.49743C9.29648 8.43054 9.36518 8.36426 9.43401 8.29804C9.44706 8.28547 9.46 8.27287 9.47293 8.26027C9.49397 8.23976 9.515 8.21927 9.53652 8.19895C9.64091 8.10027 9.74704 8.00232 9.85546 7.90544C9.17626 8.19902 8.04207 8.93263 6.42142 10.7508C7.08016 7.87572 9.65399 5.73105 12.7288 5.73105C12.852 5.73105 12.9742 5.73481 13.0957 5.74165C13.9197 5.35717 14.8129 5.05386 15.7783 4.86494C16.0321 4.8153 20.5891 4.08605 18.3893 9.06486Z" fill="#F5F5F5"/>
</svg>
