<svg width="25" height="24" viewBox="0 0 25 24" fill="none" xmlns="http://www.w3.org/2000/svg">
<path d="M21.5 5.25H3.5C3.09 5.25 2.75 4.91 2.75 4.5C2.75 4.09 3.09 3.75 3.5 3.75H21.5C21.91 3.75 22.25 4.09 22.25 4.5C22.25 4.91 21.91 5.25 21.5 5.25Z" fill="#F5F5F5"/>
<path d="M21.5 10.25H12.03C11.62 10.25 11.28 9.91 11.28 9.5C11.28 9.09 11.62 8.75 12.03 8.75H21.5C21.91 8.75 22.25 9.09 22.25 9.5C22.25 9.91 21.91 10.25 21.5 10.25Z" fill="#F5F5F5"/>
<path d="M21.5 15.25H3.5C3.09 15.25 2.75 14.91 2.75 14.5C2.75 14.09 3.09 13.75 3.5 13.75H21.5C21.91 13.75 22.25 14.09 22.25 14.5C22.25 14.91 21.91 15.25 21.5 15.25Z" fill="#F5F5F5"/>
<path d="M21.5 20.25H12.03C11.62 20.25 11.28 19.91 11.28 19.5C11.28 19.09 11.62 18.75 12.03 18.75H21.5C21.91 18.75 22.25 19.09 22.25 19.5C22.25 19.91 21.91 20.25 21.5 20.25Z" fill="#F5F5F5"/>
</svg>
