<svg width="24" height="24" viewBox="0 0 24 24" fill="none" xmlns="http://www.w3.org/2000/svg">
<path d="M4.74985 12C4.74985 12.1 4.73985 12.2 4.71985 12.29C4.69985 12.39 4.66985 12.48 4.63985 12.57C4.59985 12.66 4.54985 12.75 4.49985 12.83C4.43985 12.91 4.37985 12.99 4.30985 13.06C4.02985 13.34 3.64985 13.5 3.24985 13.5C2.84985 13.5 2.46986 13.34 2.18986 13.06C2.11986 12.99 2.05985 12.91 1.99985 12.83C1.94985 12.75 1.89985 12.66 1.86985 12.57C1.82985 12.48 1.79985 12.39 1.77985 12.29C1.67985 11.81 1.83986 11.29 2.18986 10.94C2.46986 10.66 2.84985 10.5 3.24985 10.5C3.64985 10.5 4.02985 10.66 4.30985 10.94C4.58985 11.22 4.74985 11.61 4.74985 12Z" fill="#2CE7FF"/>
<path d="M9.25 12C9.25 12.1 9.24 12.2 9.22 12.29C9.2 12.39 9.17 12.48 9.14 12.57C9.1 12.66 9.05 12.75 9 12.83C8.94 12.91 8.88 12.99 8.81 13.06C8.53 13.34 8.15 13.5 7.75 13.5C7.35 13.5 6.97 13.34 6.69 13.06C6.62 12.99 6.56 12.91 6.5 12.83C6.45 12.75 6.4 12.66 6.37 12.57C6.33 12.48 6.3 12.39 6.28 12.29C6.24 12.1 6.24 11.9 6.28 11.71C6.3 11.61 6.33 11.52 6.37 11.43C6.4 11.34 6.45 11.25 6.5 11.17C6.56 11.09 6.62 11.01 6.69 10.94C6.97 10.66 7.35 10.5 7.75 10.5C8.15 10.5 8.53 10.66 8.81 10.94C8.88 11.01 8.94 11.09 9 11.17C9.05 11.25 9.1 11.34 9.14 11.43C9.17 11.52 9.2 11.61 9.22 11.71C9.24 11.8 9.25 11.9 9.25 12Z" fill="#2CE7FF"/>
<path d="M13.2499 12C13.2499 12.1 13.2399 12.2 13.2199 12.29C13.1999 12.39 13.1699 12.48 13.1399 12.57C13.0999 12.66 13.0499 12.75 12.9999 12.83C12.9399 12.91 12.8799 12.99 12.8099 13.06C12.7399 13.13 12.6699 13.19 12.5799 13.25C12.4999 13.3 12.4099 13.35 12.3199 13.39C12.2299 13.42 12.1398 13.45 12.0398 13.47C11.9498 13.49 11.8499 13.5 11.7499 13.5C11.3499 13.5 10.9699 13.34 10.6899 13.06C10.6199 12.99 10.5599 12.91 10.4999 12.83C10.4499 12.75 10.3999 12.66 10.3599 12.57C10.3299 12.48 10.2999 12.39 10.2799 12.29C10.1799 11.81 10.3399 11.29 10.6899 10.94C10.9699 10.66 11.3499 10.5 11.7499 10.5C11.8499 10.5 11.9498 10.51 12.0398 10.53C12.1398 10.55 12.2299 10.58 12.3199 10.62C12.4099 10.65 12.4999 10.7 12.5799 10.75C12.6699 10.81 12.7399 10.87 12.8099 10.94C12.8799 11.01 12.9399 11.09 12.9999 11.17C13.0499 11.25 13.0999 11.34 13.1399 11.43C13.1699 11.52 13.1999 11.61 13.2199 11.71C13.2399 11.8 13.2499 11.9 13.2499 12Z" fill="#2CE7FF"/>
<path d="M16.75 12C16.75 12.26 16.64 12.52 16.46 12.71C16.27 12.89 16.01 13 15.75 13C15.49 13 15.23 12.89 15.04 12.71C14.81 12.48 14.71 12.13 14.77 11.81C14.78 11.74 14.8 11.68 14.83 11.62C14.85 11.56 14.88 11.5 14.92 11.45C14.96 11.39 15 11.34 15.04 11.29C15.23 11.11 15.49 11 15.75 11C16.01 11 16.27 11.11 16.46 11.29C16.5 11.34 16.54 11.39 16.58 11.45C16.62 11.5 16.65 11.56 16.67 11.62C16.7 11.68 16.72 11.74 16.73 11.81C16.74 11.87 16.75 11.94 16.75 12Z" fill="#2CE7FF"/>
<path d="M20 12C20 12.1 19.98 12.2 19.94 12.29C19.9 12.38 19.85 12.46 19.78 12.53C19.71 12.6 19.63 12.66 19.54 12.69C19.45 12.73 19.35 12.75 19.25 12.75C19.05 12.75 18.86 12.67 18.72 12.53C18.65 12.46 18.6 12.38 18.56 12.29C18.48 12.1 18.48 11.9 18.56 11.71C18.6 11.62 18.65 11.54 18.72 11.47C18.79 11.4 18.87 11.35 18.96 11.31C19.05 11.27 19.15 11.25 19.25 11.25C19.35 11.25 19.45 11.27 19.54 11.31C19.63 11.35 19.71 11.4 19.78 11.47C19.85 11.54 19.9 11.62 19.94 11.71C19.98 11.81 20 11.9 20 12Z" fill="#2CE7FF"/>
<path d="M22.0701 12C22.0701 12.13 22.0201 12.26 21.9201 12.35C21.8301 12.45 21.7001 12.5 21.5701 12.5C21.4401 12.5 21.3101 12.45 21.2201 12.35C21.0301 12.17 21.0301 11.83 21.2201 11.65C21.3101 11.55 21.4401 11.5 21.5701 11.5C21.7001 11.5 21.8301 11.55 21.9201 11.65C22.0201 11.74 22.0701 11.87 22.0701 12Z" fill="#2CE7FF"/>
<path d="M9.25002 20.5C9.25002 20.9 9.09001 21.28 8.81001 21.56C8.53001 21.84 8.15002 22 7.75002 22C7.36002 22 6.97002 21.84 6.69002 21.56C6.13002 21.01 6.13002 20 6.69002 19.44C6.97002 19.16 7.36002 19 7.75002 19C8.15002 19 8.53001 19.16 8.81001 19.44C8.88001 19.51 8.94002 19.59 9.00002 19.67C9.05002 19.75 9.10002 19.84 9.13002 19.93C9.17002 20.02 9.20002 20.11 9.22002 20.21C9.24002 20.3 9.25002 20.4 9.25002 20.5Z" fill="#2CE7FF"/>
<path d="M9.25 3.5C9.25 3.89 9.09 4.28 8.81 4.56C8.53 4.84 8.14 5 7.75 5C7.65 5 7.55001 4.98997 7.46001 4.96997C7.36001 4.94997 7.26999 4.92001 7.17999 4.89001C7.08999 4.85001 7 4.8 6.92 4.75C6.84 4.69 6.76 4.63 6.69 4.56C6.62 4.49 6.56 4.41002 6.5 4.33002C6.45 4.25002 6.4 4.16001 6.37 4.07001C6.33 3.98001 6.3 3.88998 6.28 3.78998C6.24 3.59998 6.24 3.40002 6.28 3.21002C6.3 3.11002 6.33 3.01999 6.37 2.92999C6.4 2.83999 6.45 2.74998 6.5 2.66998C6.56 2.58998 6.62 2.51 6.69 2.44C6.76 2.37 6.84 2.31 6.92 2.25C7 2.2 7.08999 2.15 7.17999 2.12C7.26999 2.08 7.36001 2.05003 7.46001 2.03003C7.55001 2.01003 7.65 2 7.75 2C8.15 2 8.53 2.16 8.81 2.44C8.88 2.51 8.94 2.58998 9 2.66998C9.05 2.74998 9.1 2.83999 9.14 2.92999C9.17 3.01999 9.2 3.11002 9.22 3.21002C9.24 3.31002 9.25 3.4 9.25 3.5Z" fill="#2CE7FF"/>
<path d="M12.7501 3.5C12.7501 3.56 12.7401 3.63 12.7301 3.69C12.7201 3.76 12.7001 3.82 12.6701 3.88C12.6501 3.94 12.6201 4 12.5801 4.06C12.5501 4.11 12.5001 4.16002 12.4601 4.21002C12.4101 4.25002 12.3601 4.30002 12.3101 4.33002C12.2501 4.37002 12.1901 4.39998 12.1301 4.41998C12.0701 4.44998 12.0101 4.46998 11.9501 4.47998C11.8801 4.48998 11.8201 4.5 11.7501 4.5C11.4901 4.5 11.23 4.39002 11.04 4.21002C11 4.16002 10.9601 4.11 10.9201 4.06C10.8801 4 10.8501 3.94 10.8301 3.88C10.8001 3.82 10.7801 3.76 10.7701 3.69C10.7401 3.57 10.7401 3.44 10.7701 3.31C10.7801 3.24 10.8001 3.18 10.8301 3.12C10.8501 3.06 10.8801 3.00001 10.9201 2.95001C10.9601 2.89001 11 2.83998 11.04 2.78998C11.23 2.60998 11.4901 2.5 11.7501 2.5C11.8201 2.5 11.8801 2.51002 11.9501 2.52002C12.0101 2.53002 12.0701 2.55002 12.1301 2.58002C12.1901 2.60002 12.2501 2.62998 12.3101 2.66998C12.3601 2.70998 12.4101 2.74998 12.4601 2.78998C12.5001 2.83998 12.5501 2.89001 12.5801 2.95001C12.6201 3.00001 12.6501 3.06 12.6701 3.12C12.7001 3.17999 12.7201 3.24 12.7301 3.31C12.7401 3.37 12.7501 3.44 12.7501 3.5Z" fill="#2CE7FF"/>
<path d="M12.7499 20.5C12.7499 20.76 12.6399 21.02 12.4599 21.21C12.2699 21.39 12.0099 21.5 11.7499 21.5C11.4899 21.5 11.2299 21.39 11.0399 21.21C10.7599 20.93 10.6699 20.49 10.8299 20.12C10.8799 19.99 10.9499 19.89 11.0399 19.79C11.2299 19.61 11.4899 19.5 11.7499 19.5C12.0099 19.5 12.2699 19.61 12.4599 19.79C12.6399 19.98 12.7499 20.24 12.7499 20.5Z" fill="#2CE7FF"/>
<path d="M15.5 3.5C15.5 3.7 15.42 3.89003 15.28 4.03003C15.14 4.17003 14.95 4.25 14.75 4.25C14.65 4.25 14.56 4.23 14.46 4.19C14.37 4.15 14.29 4.10003 14.22 4.03003C14.01 3.82003 13.94 3.49002 14.06 3.21002C14.1 3.12002 14.15 3.03997 14.22 2.96997C14.29 2.89997 14.37 2.85 14.46 2.81C14.56 2.77 14.65 2.75 14.75 2.75C14.95 2.75 15.14 2.82997 15.28 2.96997C15.35 3.03997 15.4 3.12002 15.44 3.21002C15.48 3.31002 15.5 3.4 15.5 3.5Z" fill="#2CE7FF"/>
<path d="M15.4998 20.5C15.4998 20.7 15.4198 20.89 15.2798 21.03C15.2098 21.1 15.1298 21.16 15.0398 21.19C14.9498 21.23 14.8498 21.25 14.7498 21.25C14.6498 21.25 14.5598 21.23 14.4598 21.19C14.3698 21.16 14.2898 21.1 14.2198 21.03C13.9398 20.76 13.9398 20.25 14.2198 19.97C14.2898 19.9 14.3698 19.85 14.4598 19.81C14.5598 19.77 14.6498 19.75 14.7498 19.75C14.8498 19.75 14.9498 19.77 15.0398 19.81C15.1298 19.85 15.2098 19.9 15.2798 19.97C15.4198 20.11 15.4998 20.3 15.4998 20.5Z" fill="#2CE7FF"/>
<path d="M17.9998 3.5C17.9998 3.57 17.9898 3.63 17.9598 3.69C17.9398 3.75 17.8998 3.80998 17.8498 3.84998C17.7598 3.94998 17.6298 4 17.4998 4C17.3698 4 17.2398 3.94998 17.1498 3.84998C16.9598 3.66998 16.9598 3.33002 17.1498 3.15002C17.2398 3.05002 17.3698 3 17.4998 3C17.6298 3 17.7598 3.05002 17.8498 3.15002C17.9498 3.24002 17.9998 3.37 17.9998 3.5Z" fill="#2CE7FF"/>
<path d="M17.9998 20.5C17.9998 20.63 17.9498 20.76 17.8498 20.85C17.7598 20.95 17.6298 21 17.4998 21C17.3698 21 17.2398 20.95 17.1498 20.85C16.9598 20.67 16.9598 20.33 17.1498 20.15C17.2398 20.05 17.3698 20 17.4998 20C17.6298 20 17.7598 20.05 17.8498 20.15C17.9498 20.24 17.9998 20.37 17.9998 20.5Z" fill="#2CE7FF"/>
<path d="M7.00002 16.25C7.00002 16.35 6.99002 16.45 6.97002 16.54C6.95002 16.64 6.92002 16.73 6.88002 16.82C6.85002 16.92 6.80002 17 6.75002 17.08C6.69002 17.17 6.63001 17.24 6.56001 17.31C6.28001 17.59 5.89002 17.75 5.50002 17.75C5.11002 17.75 4.72002 17.59 4.44002 17.31C3.88002 16.75 3.88002 15.75 4.44002 15.19C4.72002 14.91 5.10002 14.75 5.50002 14.75C5.90002 14.75 6.28001 14.91 6.56001 15.19C6.63001 15.26 6.69002 15.34 6.75002 15.42C6.80002 15.5 6.85002 15.59 6.88002 15.68C6.92002 15.77 6.95002 15.86 6.97002 15.96C6.99002 16.05 7.00002 16.15 7.00002 16.25Z" fill="#2CE7FF"/>
<path d="M7 7.75C7 7.85 6.99 7.94998 6.97 8.03998C6.95 8.13998 6.92001 8.23001 6.88001 8.32001C6.85001 8.41001 6.8 8.50002 6.75 8.58002C6.69 8.66002 6.63 8.74 6.56 8.81C6.49 8.88 6.41 8.94 6.33 9C6.25 9.05 6.16001 9.10001 6.07001 9.14001C5.98001 9.17001 5.88999 9.19997 5.78999 9.21997C5.69999 9.23997 5.6 9.25 5.5 9.25C5.11 9.25 4.72 9.09 4.44 8.81C4.37 8.74 4.31 8.66002 4.25 8.58002C4.2 8.50002 4.15 8.41001 4.12 8.32001C4.08 8.23001 4.05 8.13998 4.03 8.03998C3.99 7.84998 3.99 7.65002 4.03 7.46002C4.05 7.36002 4.08 7.26999 4.12 7.17999C4.15 7.08999 4.2 6.99998 4.25 6.91998C4.31 6.83998 4.37 6.76 4.44 6.69C4.72 6.41 5.11 6.25 5.5 6.25C5.6 6.25 5.69999 6.26003 5.78999 6.28003C5.88999 6.30003 5.98001 6.32999 6.07001 6.35999C6.16001 6.39999 6.25 6.45 6.33 6.5C6.41 6.56 6.49 6.62 6.56 6.69C6.63 6.76 6.69 6.83998 6.75 6.91998C6.8 6.99998 6.85001 7.08999 6.88001 7.17999C6.92001 7.26999 6.95 7.36002 6.97 7.46002C6.99 7.55002 7 7.65 7 7.75Z" fill="#2CE7FF"/>
<path d="M11.25 16.25C11.25 16.35 11.24 16.45 11.22 16.54C11.2 16.64 11.17 16.73 11.14 16.82C11.1 16.91 11.05 17 11 17.08C10.94 17.17 10.88 17.24 10.81 17.31C10.53 17.59 10.14 17.75 9.75002 17.75C9.35002 17.75 8.97002 17.59 8.69002 17.31C8.13002 16.75 8.13002 15.75 8.69002 15.19C8.97002 14.91 9.35002 14.75 9.75002 14.75C10.15 14.75 10.53 14.91 10.81 15.19C11.09 15.47 11.25 15.86 11.25 16.25Z" fill="#2CE7FF"/>
<path d="M11.25 7.75C11.25 7.85 11.24 7.94998 11.22 8.03998C11.2 8.13998 11.17 8.23001 11.13 8.32001C11.1 8.41001 11.05 8.50002 11 8.58002C10.94 8.66002 10.88 8.74 10.81 8.81C10.74 8.88 10.66 8.94 10.58 9C10.5 9.05 10.41 9.10001 10.32 9.14001C10.23 9.17001 10.14 9.19997 10.04 9.21997C9.94999 9.23997 9.85 9.25 9.75 9.25C9.36 9.25 8.97 9.09 8.69 8.81C8.62 8.74 8.56 8.66002 8.5 8.58002C8.45 8.50002 8.4 8.41001 8.37 8.32001C8.33 8.23001 8.3 8.13998 8.28 8.03998C8.24 7.84998 8.24 7.65002 8.28 7.46002C8.3 7.36002 8.33 7.26999 8.37 7.17999C8.4 7.08999 8.45 6.99998 8.5 6.91998C8.56 6.83998 8.62 6.76 8.69 6.69C8.97 6.41 9.36 6.25 9.75 6.25C9.85 6.25 9.94999 6.26003 10.04 6.28003C10.14 6.30003 10.23 6.32999 10.32 6.35999C10.41 6.39999 10.5 6.45 10.58 6.5C10.66 6.56 10.74 6.62 10.81 6.69C10.88 6.76 10.94 6.83998 11 6.91998C11.05 6.99998 11.1 7.08999 11.13 7.17999C11.17 7.26999 11.2 7.36002 11.22 7.46002C11.24 7.55002 11.25 7.65 11.25 7.75Z" fill="#2CE7FF"/>
<path d="M14.7502 16.25C14.7502 16.38 14.7202 16.51 14.6702 16.63C14.6202 16.76 14.5502 16.87 14.4602 16.96C14.3602 17.05 14.2502 17.12 14.1302 17.17C14.0102 17.22 13.8802 17.25 13.7502 17.25C13.4902 17.25 13.2302 17.14 13.0402 16.96C12.6702 16.59 12.6702 15.91 13.0402 15.54C13.2302 15.36 13.4902 15.25 13.7502 15.25C13.8802 15.25 14.0102 15.28 14.1302 15.33C14.2502 15.38 14.3602 15.45 14.4602 15.54C14.6402 15.73 14.7502 15.99 14.7502 16.25Z" fill="#2CE7FF"/>
<path d="M14.7502 7.75C14.7502 8.01 14.6402 8.27002 14.4602 8.46002C14.2702 8.64002 14.0102 8.75 13.7502 8.75C13.4902 8.75 13.2302 8.64002 13.0402 8.46002C12.6702 8.09002 12.6702 7.41998 13.0402 7.03998C13.2302 6.85998 13.4902 6.75 13.7502 6.75C13.8202 6.75 13.8802 6.76002 13.9502 6.77002C14.0102 6.78002 14.0702 6.80002 14.1302 6.83002C14.1902 6.85002 14.2502 6.87998 14.3002 6.91998C14.3602 6.95998 14.4102 6.99998 14.4602 7.03998C14.6402 7.22998 14.7502 7.49 14.7502 7.75Z" fill="#2CE7FF"/>
<path d="M17.75 16.25C17.75 16.45 17.67 16.64 17.53 16.78C17.46 16.85 17.38 16.9 17.29 16.94C17.2 16.98 17.1 17 17 17C16.9 17 16.81 16.98 16.71 16.94C16.62 16.9 16.54 16.85 16.47 16.78C16.4 16.71 16.35 16.63 16.31 16.54C16.23 16.36 16.23 16.15 16.31 15.96C16.35 15.87 16.4 15.79 16.47 15.72C16.61 15.58 16.8 15.5 17 15.5C17.1 15.5 17.2 15.52 17.29 15.56C17.38 15.6 17.46 15.65 17.53 15.72C17.67 15.86 17.75 16.05 17.75 16.25Z" fill="#2CE7FF"/>
<path d="M17.75 7.75C17.75 7.85 17.73 7.94998 17.69 8.03998C17.65 8.12998 17.6 8.21003 17.53 8.28003C17.46 8.35003 17.38 8.41 17.29 8.44C17.2 8.48 17.1 8.5 17 8.5C16.9 8.5 16.8 8.48 16.71 8.44C16.62 8.4 16.54 8.35003 16.47 8.28003C16.4 8.21003 16.35 8.12998 16.31 8.03998C16.23 7.85998 16.23 7.65002 16.31 7.46002C16.35 7.37002 16.4 7.28997 16.47 7.21997C16.54 7.14997 16.62 7.1 16.71 7.06C16.8 7.02 16.9 7 17 7C17.1 7 17.2 7.02 17.29 7.06C17.38 7.1 17.46 7.14997 17.53 7.21997C17.67 7.35997 17.75 7.55 17.75 7.75Z" fill="#2CE7FF"/>
<path d="M19.9998 16.25C19.9998 16.38 19.9498 16.51 19.8498 16.6C19.7598 16.7 19.6298 16.75 19.4998 16.75C19.3698 16.75 19.2398 16.7 19.1498 16.6C18.9598 16.42 18.9598 16.08 19.1498 15.9C19.2398 15.8 19.3698 15.75 19.4998 15.75C19.6298 15.75 19.7598 15.8 19.8498 15.9C19.9498 15.99 19.9998 16.12 19.9998 16.25Z" fill="#2CE7FF"/>
<path d="M19.9998 7.75C19.9998 7.82 19.9898 7.88 19.9598 7.94C19.9398 8 19.8998 8.05998 19.8498 8.09998C19.8098 8.14998 19.7498 8.19002 19.6898 8.21002C19.6298 8.24002 19.5698 8.25 19.4998 8.25C19.3698 8.25 19.2398 8.19998 19.1498 8.09998C18.9598 7.91998 18.9598 7.58002 19.1498 7.40002C19.2398 7.30002 19.3698 7.25 19.4998 7.25C19.5698 7.25 19.6298 7.25998 19.6898 7.28998C19.7498 7.30998 19.8098 7.35002 19.8498 7.40002C19.9498 7.49002 19.9998 7.62 19.9998 7.75Z" fill="#2CE7FF"/>
</svg>
